<svg xmlns="http://www.w3.org/2000/svg" xml:space="preserve" width="80" height="80"><path d="M3.016 0a1 1 0 0 0-1 1v69.5H1a1 1 0 0 0-1 1V79a1 1 0 0 0 1 1h78a1 1 0 0 0 1-1v-7.5a1 1 0 0 0-1-1h-1V1a1 1 0 0 0-1-1H3.016zm1 2H76v68.5h-4.58V7.75a1 1 0 0 0-1-1H9.598a1 1 0 0 0-1 1V70.5H4.016V2zm6.582 6.75H69.42V70.5h-4.15c.143-.36.229-.75.229-1.16v-2.653a3.163 3.163 0 0 0-3.16-3.16H35.285a3.164 3.164 0 0 0-3.16 3.16v2.65c0 .412.085.801.229 1.161H10.598V8.75zm29.404 7.916c-11.01.003-20.308 6.993-21.33 16.285l-.084.77h42.824l-.088-.77c-1.021-9.289-10.315-16.278-21.322-16.285zm0 1.387c.29 0 .573.023.86.033a7.087 7.087 0 0 1 6.24 7.045 7.095 7.095 0 0 1-7.104 7.105 7.093 7.093 0 0 1-7.102-7.105 7.087 7.087 0 0 1 6.237-7.045c.29-.01.575-.033.869-.033zm-5.443.629a8.426 8.426 0 0 0-.55 12.392l-10.525-5.65c2.586-3.226 6.482-5.655 11.075-6.742zm10.875 0c4.595 1.087 8.494 3.516 11.08 6.744l-10.54 5.662a8.415 8.415 0 0 0 2.467-5.957c0-2.585-1.172-4.9-3.007-6.45zm-22.848 7.976 10.572 5.68H20.312c.348-2.033 1.134-3.95 2.274-5.68zm34.826.002c1.139 1.729 1.925 3.645 2.272 5.678H46.85l10.562-5.678zM18.54 38.457a1 1 0 1 0 0 2h42.322a1 1 0 1 0 0-2H18.54zm1.545 7.033a1 1 0 0 0-1 1v7.844a1 1 0 0 0 1 1h7.844a1 1 0 0 0 1-1V46.49a1 1 0 0 0-1-1h-7.844zm16.09 0a1 1 0 0 0-1 1v7.844a1 1 0 0 0 1 1h7.842a1 1 0 0 0 1-1V46.49a1 1 0 0 0-1-1h-7.842zm16.088 0a1 1 0 0 0-1 1v7.844a1 1 0 0 0 1 1h7.843a1 1 0 0 0 1-1V46.49a1 1 0 0 0-1-1h-7.843zm-31.178 2h5.844v5.844h-5.844V47.49zm16.09 0h5.842v5.844h-5.842V47.49zm16.088 0h5.843v5.844h-5.843V47.49zM35.285 65.527H62.34c.64 0 1.162.522 1.162 1.16v2.653c0 .64-.522 1.16-1.162 1.16H35.285c-.64 0-1.16-.52-1.16-1.16v-2.653c0-.64.52-1.16 1.16-1.16zM2 72.5h76V78H2v-5.5z" style="fill:#fff"/></svg>