<svg xmlns="http://www.w3.org/2000/svg" width="216" height="216" fill="none"><g stroke="#000" clip-path="url(#a)"><path fill="#000" d="M156.455 156.35h-3.907V90.56c0-.66-.534-1.195-1.195-1.195h-13.545V74.863c0-.66-.534-1.195-1.195-1.195h-16.954c-.661 0-1.195.534-1.195 1.195v2.39H99.126v-2.39c0-.66-.535-1.195-1.196-1.195H83.367c-.66 0-1.195.534-1.195 1.195v14.503H68.628c-.661 0-1.196.535-1.196 1.196v65.789h-4.207c-.66 0-1.195.534-1.195 1.195v10.547c0 .661.534 1.195 1.195 1.195h93.23c.661 0 1.195-.534 1.195-1.195v-10.547c0-.661-.534-1.196-1.195-1.196Zm-18.647 0v-44.446h12.349v44.447h-12.349v-.001Zm12.349-46.836h-12.349v-5.005h12.349v5.005Zm0-17.758v10.363h-12.349V91.756h12.349Zm-14.74-15.698v80.293h-14.563V76.058h14.563Zm-16.953 3.586v76.707H99.126V79.644h19.338Zm-21.729 67.511H84.563v-5.005h12.172v5.005Zm-12.172 2.39h12.172v6.805H84.563v-6.805Zm12.172-73.487v63.703H84.563V76.058h12.172ZM69.823 91.756h12.35v64.594h-12.35V91.756Zm85.437 75.142H64.42v-8.157h90.84v8.157Z" style="stroke:#fff;stroke-opacity:1;fill:#fff;fill-opacity:1"/><path fill="#000" d="M146.909 147.155h-5.844c-.661 0-1.195.534-1.195 1.195s.534 1.195 1.195 1.195h5.844a1.195 1.195 0 1 0 0-2.39Zm-5.844-2.203h5.844a1.195 1.195 0 1 0 0-2.391h-5.844a1.195 1.195 0 1 0 0 2.391Zm-12.928-27.654c.661 0 1.195-.534 1.195-1.195V86.317a1.194 1.194 0 1 0-2.39 0v29.786c0 .66.534 1.195 1.195 1.195ZM75.908 98.619c-.661 0-1.195.534-1.195 1.195V129.6a1.194 1.194 0 1 0 2.39 0V99.814c0-.66-.534-1.195-1.195-1.195Zm35.752 19.974c.661 0 1.195-.535 1.195-1.196v-31.08a1.195 1.195 0 1 0-2.391 0v31.08c0 .66.536 1.196 1.196 1.196Zm-5.73 0c.66 0 1.195-.535 1.195-1.196v-31.08a1.195 1.195 0 1 0-2.391 0v31.08c0 .66.535 1.196 1.196 1.196Z" style="fill:#fff;fill-opacity:1;stroke:#fff;stroke-opacity:1"/><path stroke-width="4" d="M137.809 82.114h20.902V66.035m-6.163 57.42h18.84v11.703M67.433 123.456H50.649M90.65 73.668v-12.16" style="stroke:#fff;stroke-opacity:1"/><path stroke-linecap="round" stroke-linejoin="round" stroke-width="4" d="M90.65 61.508a6.037 6.037 0 1 0 0-12.074 6.037 6.037 0 0 0 0 12.074Zm68.06 5.89a9.513 9.513 0 1 0 0-19.025 9.513 9.513 0 0 0 0 19.025Zm12.678 79.834a6.037 6.037 0 1 0 0-12.074 6.037 6.037 0 0 0 0 12.074ZM44.612 129.493a6.037 6.037 0 1 0 0-12.074 6.037 6.037 0 0 0 0 12.074Zm8.45-42.737a5.39 5.39 0 1 0 0-10.78 5.39 5.39 0 0 0 0 10.78Z" style="stroke:#fff;stroke-opacity:1"/><path fill="#000" stroke-linecap="round" stroke-linejoin="round" stroke-width="4" d="M162.632 104.899a1.499 1.499 0 1 0 0-2.997 1.499 1.499 0 0 0 0 2.997Z" style="stroke:#fff;stroke-opacity:1"/></g><defs><clipPath id="a"><path fill="#fff" d="M0 0h216v216H0z"/></clipPath></defs></svg>