<svg xmlns="http://www.w3.org/2000/svg" width="190.121" height="63.565" viewBox="0 0 50.303 16.818"><path d="M-415.106-57.69c-3.324.616-6.05 3.23-6.744 6.624-.131.64-.155.903-.155 1.714 0 .81.024 1.073.155 1.712.775 3.79 4.094 6.618 7.933 6.76 1.522.057 2.874-.231 4.192-.894a8.48 8.48 0 0 0 4.045-4.37l-.257-.005-.313-.006c-.172-.003-.488-.01-.703-.017l-.39-.012-.087.16a6.975 6.975 0 0 1-3.376 3.063 7.064 7.064 0 0 1-1.867.504c-.224.031-1.155.057-1.366.038-1.013-.09-1.838-.324-2.702-.77a6.532 6.532 0 0 1-1.788-1.334 6.534 6.534 0 0 1-1.22-1.716 6.955 6.955 0 0 1 .937-7.644 7.807 7.807 0 0 1 1.335-1.197 7.213 7.213 0 0 1 1.852-.902 1.31 1.31 0 0 0 .24-.09c0-.026.247-1.358.253-1.364l.026-.255zm2.002 1.905c-.053-.003-.087-.002-.092.003a52.311 52.311 0 0 0-.367 1.987c.004.004.132.016.283.026a4.35 4.35 0 0 1 2.005.619c.27.162.334.212.304.233-.053.038-.367.29-.66.527a3.556 3.556 0 0 0-1.949-.582 3.601 3.601 0 0 0-3.588 3.588c0 .457.088.895.247 1.299l-2.312 1.877.34.426c.188.234.475.587.64.786.293.354.307.347.307.347l2.327-1.79a3.55 3.55 0 0 0 2.039.643 3.601 3.601 0 0 0 3.588-3.588c0-.429-.077-.84-.217-1.222.229-.172.454-.34.7-.531.044 0 .226.548.294.887.105.516.117 1.125.033 1.602-.02.117-.036.216-.034.218.002.003.449.018.992.033.544.016 1.002.028 1.019.026.046-.004.078-.277.094-.799a6.138 6.138 0 0 0-.342-2.288 6.435 6.435 0 0 0-3.23-3.668 6.183 6.183 0 0 0-1.704-.569 7.067 7.067 0 0 0-.718-.09zm-2.393.287c-.021-.024-.697.253-1 .41-1.94 1.011-3.195 2.84-3.461 5.042a8.719 8.719 0 0 0 .01 1.469c.086.659.263 1.288.523 1.866l1.671-1.287a4.374 4.374 0 0 1-.07-2.477 4.395 4.395 0 0 1 1.74-2.504.563.563 0 0 0 .159-.147c.02-.086.432-2.367.428-2.372zm1.917 4.287c1.02 0 1.827.807 1.827 1.827s-.807 1.827-1.827 1.827a1.815 1.815 0 0 1-1.827-1.827c0-1.02.807-1.827 1.827-1.827zm3.205 4.95-.13.117c-.538.48-1.002.762-1.596.966-.436.15-.814.219-1.296.236a4.06 4.06 0 0 1-1.044-.086 4.53 4.53 0 0 1-1.552-.645l-1.559 1.364c.138.108.312.236.437.319.88.584 1.91.95 2.965 1.05.307.03.947.026 1.266-.008a6.422 6.422 0 0 0 3.904-1.865c.38-.38.65-.723.931-1.178l.13-.21h-.169c-.092 0-.645-.014-1.227-.03l-1.06-.03z" style="fill:#212121;fill-opacity:1;stroke-width:.16263458" transform="translate(422.005 57.69)"/><path d="M24.28 9.014v4.675h-1.273V9.056q0-1.1-.429-1.646-.429-.547-1.286-.547-1.03 0-1.625.657t-.595 1.792v4.377h-1.28V5.944h1.28v1.203q.456-.699 1.072-1.044.622-.346 1.431-.346 1.335 0 2.02.83.684.823.684 2.427zm2.551-6.086h1.273V13.69H26.83zm3.929 3.016h1.272v7.745h-1.273zm0-3.016h1.272V4.54h-1.273zm10.366 6.086v4.675h-1.273V9.056q0-1.1-.428-1.646-.43-.547-1.287-.547-1.03 0-1.625.657t-.595 1.792v4.377H34.64V5.944h1.28v1.203q.456-.699 1.071-1.044.623-.346 1.432-.346 1.335 0 2.02.83.684.823.684 2.427zm9.177.484v.623h-5.85q.082 1.314.788 2.005.712.685 1.978.685.733 0 1.417-.18.692-.18 1.37-.54v1.204q-.685.29-1.404.443-.72.152-1.46.152-1.853 0-2.939-1.08-1.079-1.078-1.079-2.918 0-1.901 1.024-3.015 1.03-1.12 2.773-1.12 1.563 0 2.469 1.01.913 1.002.913 2.731zm-1.273-.373q-.013-1.044-.587-1.667-.567-.622-1.508-.622-1.065 0-1.708.601-.636.602-.733 1.695z" aria-label="nline" style="font-style:normal;font-weight:400;font-size:40px;line-height:1.25;font-family:sans-serif;letter-spacing:0;word-spacing:0;fill:#212121;fill-opacity:1;stroke:none"/></svg>