<svg xmlns="http://www.w3.org/2000/svg" width="190.121" height="63.565" viewBox="0 0 50.303 16.818"><path d="M-415.106-57.69c-3.324.616-6.05 3.23-6.744 6.624-.131.64-.155.903-.155 1.714 0 .81.024 1.073.155 1.712.775 3.79 4.094 6.618 7.933 6.76 1.522.057 2.874-.231 4.192-.894a8.48 8.48 0 0 0 4.045-4.37l-.257-.005-.313-.006c-.172-.003-.488-.01-.703-.017l-.39-.012-.087.16a6.975 6.975 0 0 1-3.376 3.063 7.064 7.064 0 0 1-1.867.504c-.224.031-1.155.057-1.366.038-1.013-.09-1.838-.324-2.702-.77a6.532 6.532 0 0 1-1.788-1.334 6.534 6.534 0 0 1-1.22-1.716 6.955 6.955 0 0 1 .937-7.644 7.807 7.807 0 0 1 1.335-1.197 7.213 7.213 0 0 1 1.852-.902 1.31 1.31 0 0 0 .24-.09c0-.026.247-1.358.253-1.364l.026-.255zm2.002 1.905c-.053-.003-.087-.002-.092.003a52.311 52.311 0 0 0-.367 1.987c.004.004.132.016.283.026a4.35 4.35 0 0 1 2.005.619c.27.162.334.212.304.233-.053.038-.367.29-.66.527a3.556 3.556 0 0 0-1.949-.582 3.601 3.601 0 0 0-3.588 3.588c0 .457.088.895.247 1.299l-2.312 1.877.34.426c.188.234.475.587.64.786.293.354.307.347.307.347l2.327-1.79a3.55 3.55 0 0 0 2.039.643 3.601 3.601 0 0 0 3.588-3.588c0-.429-.077-.84-.217-1.222.229-.172.454-.34.7-.531.044 0 .226.548.294.887.105.516.117 1.125.033 1.602-.02.117-.036.216-.034.218.002.003.449.018.992.033.544.016 1.002.028 1.019.026.046-.004.078-.277.094-.799a6.138 6.138 0 0 0-.342-2.288 6.435 6.435 0 0 0-3.23-3.668 6.183 6.183 0 0 0-1.704-.569 7.067 7.067 0 0 0-.718-.09zm-2.393.287c-.021-.024-.697.253-1 .41-1.94 1.011-3.195 2.84-3.461 5.042a8.719 8.719 0 0 0 .01 1.469c.086.659.263 1.288.523 1.866l1.671-1.287a4.374 4.374 0 0 1-.07-2.477 4.395 4.395 0 0 1 1.74-2.504.563.563 0 0 0 .159-.147c.02-.086.432-2.367.428-2.372zm1.917 4.287c1.02 0 1.827.807 1.827 1.827s-.807 1.827-1.827 1.827a1.815 1.815 0 0 1-1.827-1.827c0-1.02.807-1.827 1.827-1.827zm3.205 4.95-.13.117c-.538.48-1.002.762-1.596.966-.436.15-.814.219-1.296.236a4.06 4.06 0 0 1-1.044-.086 4.53 4.53 0 0 1-1.552-.645l-1.559 1.364c.138.108.312.236.437.319.88.584 1.91.95 2.965 1.05.307.03.947.026 1.266-.008a6.422 6.422 0 0 0 3.904-1.865c.38-.38.65-.723.931-1.178l.13-.21h-.169c-.092 0-.645-.014-1.227-.03l-1.06-.03z" style="fill:#fff;fill-opacity:1;stroke-width:.16263458" transform="translate(422.005 57.69)"/><g style="font-style:normal;font-weight:400;font-size:40px;line-height:1.25;font-family:sans-serif;letter-spacing:0;word-spacing:0;fill:#fff;fill-opacity:1;stroke:none"><path d="M377.527 461.844v13.203h-3.593V461.96q0-3.106-1.211-4.649-1.211-1.542-3.633-1.542-2.91 0-4.59 1.855-1.68 1.855-1.68 5.059v12.363h-3.613v-21.875h3.613v3.398q1.29-1.972 3.028-2.949 1.757-.976 4.043-.976 3.77 0 5.703 2.343 1.933 2.324 1.933 6.856zm7.207-17.188h3.594v30.39h-3.594zm11.094 8.516h3.594v21.875h-3.594zm0-8.516h3.594v4.551h-3.594zm29.277 17.188v13.203h-3.593V461.96q0-3.106-1.211-4.649-1.211-1.542-3.633-1.542-2.91 0-4.59 1.855-1.68 1.855-1.68 5.059v12.363h-3.613v-21.875h3.613v3.398q1.29-1.972 3.028-2.949 1.758-.976 4.043-.976 3.77 0 5.703 2.343 1.933 2.324 1.933 6.856zm25.918 1.366v1.759H434.5q.234 3.71 2.227 5.664 2.011 1.933 5.586 1.933 2.07 0 4.003-.507 1.954-.508 3.868-1.524v3.399q-1.934.82-3.965 1.25-2.031.43-4.121.43-5.235 0-8.301-3.048-3.047-3.046-3.047-8.242 0-5.37 2.89-8.515 2.91-3.164 7.833-3.164 4.414 0 6.972 2.851 2.578 2.832 2.578 7.715zm-3.593-1.054q-.04-2.949-1.66-4.707-1.602-1.758-4.258-1.758-3.008 0-4.825 1.7-1.796 1.699-2.07 4.785z" aria-label="nline" style="fill:#fff" transform="translate(-109.396 -154.516) scale(.35408)"/></g></svg>