<svg xmlns="http://www.w3.org/2000/svg" width="2284.53" height="2321.024" viewBox="0 0 604.448 614.104"><path d="M1439.057.016c-14.786-.341-28.505 4.957-39.02 13.992-11.216 9.637-18.747 23.526-19.922 39.44-1.174 15.912 4.21 30.771 13.848 41.988 9.637 11.216 23.526 18.747 39.44 19.921 15.913 1.175 30.773-4.21 41.99-13.847 11.216-9.637 18.747-23.526 19.921-39.44 1.175-15.913-4.212-30.772-13.85-41.988-9.636-11.216-23.523-18.748-39.437-19.922a58.746 58.746 0 0 0-2.97-.144zm-1.916 34.136a23.743 23.743 0 0 1 2.336.06 23.526 23.526 0 0 1 16.115 8.14 23.527 23.527 0 0 1 5.629 17.128 23.525 23.525 0 0 1-8.139 16.116 23.527 23.527 0 0 1-17.129 5.629 23.528 23.528 0 0 1-16.115-8.141 23.522 23.522 0 0 1-5.629-17.127 23.525 23.525 0 0 1 8.139-16.115 23.53 23.53 0 0 1 14.793-5.69zM775.09 52.857c-17.36.413-33.382 6.964-45.838 17.676-14.172 12.188-23.687 29.763-25.186 49.887a73.813 73.813 0 0 0 1.133 19.435C570.726 205.614 451.681 299.07 356.08 413.377 259.183 529.224 186.258 666.57 145.686 818.172c-2.39 9.11 2.996 18.424 12.107 20.853 9.11 2.39 18.424-2.996 20.853-12.107 23.283-87.017 57.66-169.215 101.35-245.137l95.277 47.012c-66.446 113.58-109.49 243.11-121.96 382.523-15.144 2.794-29.032 9.638-40.37 19.397-16.682 14.334-27.859 35.066-29.64 58.754-1.741 23.687 6.237 45.835 20.611 62.517 14.334 16.683 35.064 27.86 58.752 29.641 23.688 1.741 45.837-6.235 62.52-20.61 16.682-14.333 27.859-35.066 29.64-58.753 1.741-23.688-6.237-45.837-20.611-62.52-11.864-13.767-28.02-23.809-46.647-27.898 12.35-134.15 54.139-258.743 118.44-367.908l83.17 41.058a791.175 791.175 0 0 0-72.926 159.012c-19.962 60.454-32.92 124.228-37.86 190.432-.728 9.394 6.357 17.614 15.75 18.302 9.395.73 17.615-6.358 18.303-15.752 4.738-63.572 17.128-124.673 36.2-182.414A756.097 756.097 0 0 1 527.4 687.79a22.33 22.33 0 0 0 1.377-2.35c4.13-8.462.649-18.666-7.814-22.796h.04l-97.017-47.9a890.589 890.589 0 0 1 167.998-193.227c171.968-148.078 400.463-230.56 644.668-212.338 9.394.729 17.615-6.358 18.303-15.752.729-9.394-6.356-17.615-15.75-18.303-253.64-18.91-490.922 66.771-669.531 220.559-68.188 58.713-127.832 127.386-176.543 203.916l-95.56-47.172a1031.175 1031.175 0 0 1 84.75-117.143c92.442-110.461 207.356-200.798 337.091-264.41a67.35 67.35 0 0 0 2.147 2.63c12.188 14.173 29.802 23.688 49.886 25.186 20.125 1.499 38.912-5.304 53.084-17.492 14.172-12.188 23.688-29.8 25.186-49.885 1.498-20.124-5.304-38.913-17.492-53.085-12.188-14.173-29.763-23.688-49.887-25.186a74.223 74.223 0 0 0-7.246-.184zm847.344 6.565c-16.845.397-32.418 6.753-44.518 17.144-13.767 11.824-23 28.913-24.457 48.43-1.458 19.517 5.143 37.778 16.967 51.545 11.823 13.767 28.91 23 48.428 24.457 19.516 1.458 37.78-5.143 51.546-16.967 13.767-11.823 23-28.91 24.457-48.427 1.458-19.517-5.143-37.778-16.966-51.545-11.824-13.768-28.911-23-48.428-24.457a71.992 71.992 0 0 0-7.03-.18zm-846.498 27.49a38.764 38.764 0 0 1 3.85.102 38.744 38.744 0 0 1 26.562 13.402c6.478 7.531 10.124 17.533 9.314 28.223a38.747 38.747 0 0 1-13.404 26.562c-7.532 6.479-17.533 10.124-28.223 9.315a38.746 38.746 0 0 1-26.562-13.405c-6.479-7.531-10.123-17.533-9.313-28.222a38.744 38.744 0 0 1 13.403-26.563c6.619-5.694 15.147-9.199 24.373-9.414zm847.33 6.645a36.78 36.78 0 0 1 3.646.097c10.123.77 18.991 5.548 25.106 12.674 6.114 7.086 9.554 16.56 8.785 26.684-.77 10.123-5.548 18.99-12.674 25.105-7.086 6.114-16.56 9.557-26.684 8.787-10.123-.769-18.99-5.547-25.105-12.674-6.114-7.086-9.555-16.56-8.785-26.683.769-10.123 5.547-18.991 12.673-25.106 6.228-5.373 14.301-8.684 23.038-8.884zm167.214 64.77c-21.174.046-40.783 7.82-55.902 20.847-16.682 14.334-27.857 35.064-29.639 58.752-1.74 23.687 6.235 45.837 20.61 62.52 14.334 16.682 35.066 27.858 58.754 29.64 20.69 1.539 40.248-4.374 55.959-15.469a1033.67 1033.67 0 0 1 206.224 242.22 1045.96 1045.96 0 0 1 36.766 65.112l-94.871 47.174 3.523 7.125a925.816 925.816 0 0 0-87.504-139.453c-5.709-7.45-16.358-8.907-23.85-3.238-7.45 5.709-8.906 16.358-3.237 23.85 64.26 84.627 113.537 180.956 144.23 284.818 29.518 99.974 41.788 206.952 33.568 317.21-.728 9.395 6.358 17.615 15.752 18.303 9.394.73 17.613-6.358 18.301-15.752 8.544-114.348-4.25-225.417-34.943-329.36a915.987 915.987 0 0 0-52.559-136.577l1.781 3.644 94.953-47.213a1021.79 1021.79 0 0 1 70.01 196.264c-17.37 6.52-32.758 18.666-43.164 35.713-12.39 20.246-15.386 43.61-10.203 64.95 5.183 21.379 18.505 40.773 38.791 53.163l3.604 2.229h.242c19.314 10.487 41.06 12.835 61.062 7.976 21.38-5.183 40.776-18.504 53.166-38.79l2.227-3.604v-.244c10.487-19.315 12.835-41.058 7.976-61.06l.08-.042c-5.182-21.38-18.504-40.775-38.79-53.166-12.917-7.896-27.088-11.984-41.22-12.55-26.319-108.559-69.443-211.045-126.658-304.256a1067.681 1067.681 0 0 0-211.853-249.227c7.167-11.419 11.702-24.739 12.795-39.113 1.741-23.688-6.235-45.837-20.61-62.52-14.334-16.682-35.066-27.859-58.753-29.64a87.6 87.6 0 0 0-6.618-.237zm1.278 34.241c.885.02 1.774.063 2.668.13 14.293 1.052 26.764 7.815 35.43 17.857 8.665 10.082 13.484 23.403 12.431 37.697-1.053 14.294-7.815 26.764-17.857 35.43-10.083 8.665-23.404 13.484-37.698 12.431-14.293-1.053-26.764-7.815-35.43-17.857-8.664-10.083-13.484-23.404-12.43-37.697 1.052-14.294 7.815-26.765 17.856-35.43 9.453-8.124 21.752-12.867 35.03-12.56zM1228.064 301.29c-8.646.212-15.91 6.992-16.556 15.799l-6.317 84.586c-30.206-1.498-60.332-1.01-90.134 1.338-30.936 2.47-61.344 6.964-91.106 13.402a73.733 73.733 0 0 0-12.027-19.396c-12.188-14.173-29.76-23.688-49.885-25.186-20.124-1.498-38.914 5.304-53.086 17.492-14.172 12.188-23.687 29.763-25.185 49.887-1.499 20.124 5.304 38.912 17.492 53.084 12.188 14.172 29.803 23.687 49.886 25.185 20.125 1.499 38.912-5.304 53.085-17.492 14.172-12.188 23.687-29.8 25.185-49.884v-.041a654.624 654.624 0 0 1 88.313-13.12c27.696-2.227 56.041-2.632 84.912-1.214l-6.44 86.408c-.729 9.394 6.358 17.614 15.752 18.302 80.214 5.993 155.043 28.67 221.408 64.383 68.998 37.131 128.966 88.393 176.301 149.657 5.75 7.49 16.481 8.827 23.932 3.078 7.45-5.75 8.785-16.482 3.035-23.932-50.17-64.949-113.822-119.329-187.111-158.768-65.88-35.47-139.454-58.833-218.008-66.972l5.183-69.647a664.045 664.045 0 0 1 86.166 14.375 655.55 655.55 0 0 1 98.922 31.867c8.706 3.564 18.668-.606 22.23-9.312 3.564-8.706-.608-18.667-9.314-22.23-33.284-13.727-68.026-24.945-104.023-33.448a694.241 694.241 0 0 0-91.469-15.304l5.02-67.38c178.69 17.29 337.418 95.44 457.152 212.258 125.524 122.447 208.166 287.41 225.982 469.338a762.24 762.24 0 0 1 3.565 65.639c.08 5.669.08 11.418 0 17.127l-67.541-3.037a691.844 691.844 0 0 0-18.91-165.772 690.463 690.463 0 0 0-81.063-197.316c-4.9-8.058-15.346-10.609-23.404-5.75-8.058 4.9-10.61 15.346-5.75 23.404 34.904 57.62 61.142 120.745 77.096 187.516 11.985 50.21 18.18 102.647 17.857 156.42l-193.51-8.705c-1.984-17.452-9.273-33.527-20.287-46.323a85.672 85.672 0 0 0-35.742-24.71c-29.28-163.335-157.677-288.477-327.559-294.317a19.4 19.4 0 0 0-1.941 0 19.4 19.4 0 0 0 .605 38.772c85.344 2.934 158.311 38.921 210.526 96.105l-93.092 73.647c-33.133-32.065-78.224-51.842-127.818-51.842-101.377 0-183.98 82.601-183.98 183.978 0 34.83 9.75 67.44 26.661 95.248l-93.511 72.45c-4.007-5.139-8.364-10.737-14.514-18.606a19.4 19.4 0 0 0-15.03-7.67 19.4 19.4 0 0 0-15.53 31.559c28.208 36.096 28.324 36.69 56.286 70.254a19.4 19.4 0 1 0 29.809-24.834c-7.206-8.65-12.472-14.998-16.86-20.344l92.878-71.965c33.58 35.604 81.151 57.879 133.79 57.879 101.377 0 183.971-82.594 183.971-183.97 0-37.856-11.52-73.091-31.232-102.387l92.465-73.153c25.504 36.164 43.922 78.478 53.718 124.813-17 2.184-32.582 9.366-45.091 20.144-16.683 14.334-27.86 35.067-29.64 58.754-1.742 23.688 6.236 45.835 20.61 62.518 14.334 16.682 35.065 27.859 58.752 29.64 23.688 1.742 45.837-6.235 62.52-20.609 12.35-10.65 21.704-24.782 26.441-41.02l195.332 8.788c-.202 3.927-.486 7.897-.77 11.865-5.304 71.387-21.784 139.168-47.577 201.85-26.725 64.948-63.45 124.47-108.153 176.745-6.114 7.127-5.264 17.898 1.903 24.012 7.126 6.114 17.897 5.265 24.011-1.902 47.052-55.028 85.68-117.629 113.823-185.979 27.17-66.001 44.5-137.307 50.088-212.216.323-4.293.608-8.585.851-12.877l67.46 3.037c-.284 4.98-.61 9.92-.974 14.9-6.397 85.397-26.603 166.381-58.267 240.967-.203.405-.405.81-.567 1.256-.08.243-.163.444-.244.646a751.862 751.862 0 0 1-59.724 112.324c-69.08 107.06-164.112 195.13-275.545 255.989-8.26 4.534-11.299 14.86-6.764 23.12 4.535 8.261 14.86 11.298 23.121 6.763 116.333-63.532 215.62-155.528 287.776-267.366 21.136-32.717 39.925-67.175 56.162-103.091l216.144 86.69c-29.154 67.096-66.164 131.194-109.773 190.798-45.513 62.195-98.192 119.49-156.5 170.226-12.593-9.272-27.86-15.223-44.582-16.478-23.688-1.741-45.837 6.235-62.52 20.61-16.682 14.333-27.857 35.065-29.638 58.753-1.742 23.688 6.234 45.837 20.609 62.52 14.334 16.682 35.066 27.857 58.754 29.638 23.688 1.741 45.837-6.235 62.52-20.609 16.682-14.334 27.856-35.066 29.638-58.754 1.377-18.343-3.118-35.755-11.904-50.453 60.089-52.356 114.268-111.352 161.117-175.37 48.59-66.446 89.323-138.318 120.502-213.835 3.563-8.706-.607-18.667-9.313-22.23l-.12-.042v-.039l-231.573-92.888c29.559-73.776 48.47-153.22 54.705-236.592a750.565 750.565 0 0 0 1.62-28.508c.445-1.377.688-2.834.769-4.332.08-1.66-.081-3.28-.446-4.818.284-10.407.364-20.812.243-31.178a788.26 788.26 0 0 0-3.725-68.594c-18.626-190.19-105.035-362.603-236.188-490.597-129.046-125.97-301.5-208.897-495.374-223.352a17.13 17.13 0 0 0-1.746-.047zM955.557 405.744a38.754 38.754 0 0 1 3.85.102 38.745 38.745 0 0 1 26.562 13.402c6.478 7.531 10.124 17.533 9.314 28.223a38.746 38.746 0 0 1-13.404 26.562c-7.532 6.479-17.533 10.123-28.223 9.313a38.744 38.744 0 0 1-26.562-13.403c-6.479-7.531-10.123-17.533-9.313-28.222a38.745 38.745 0 0 1 13.403-26.563c6.62-5.694 15.147-9.199 24.373-9.414zm187.421 186.006a19.4 19.4 0 0 0-5.197.486c-216.959 47.058-379.45 240.198-379.45 471.002 0 259.01 204.85 470.651 461.19 481.6 3.736 21.641 13.327 41.462 27.215 57.576 19.922 23.161 48.711 38.71 81.631 41.18h.242l12.35 320.654c-34.742 6.924-71.264 11.783-108.88 14.293-41.262 2.753-84.063 2.673-127.47-.566-143.057-10.69-275.546-54.664-390.502-123.784-114.51-68.876-211.689-162.654-284.574-273.318l164.235-103.658c15.872 23.85 33.243 46.687 51.91 68.39 115.684 134.311 282.63 224.527 473.386 238.78 9.394.729 17.615-6.358 18.303-15.752.73-9.394-6.356-17.615-15.75-18.303-181.362-13.565-340.09-99.326-450.066-227.037-109.976-127.71-171.24-297.411-157.715-478.773.729-9.394-6.356-17.613-15.75-18.301-9.394-.73-17.614 6.356-18.303 15.75-11.014 147.753 25.145 288.14 95.803 406.375l-178.77 112.85-.082.122c-7.936 5.021-10.325 15.548-5.304 23.485 76.65 121.353 181.079 224.08 305.064 298.625 119.532 71.873 257.122 117.548 405.524 128.642 44.743 3.361 89.163 3.403 132.287.528 44.46-2.997 87.38-9.07 127.832-17.938 7.896-1.7 13.686-8.868 13.402-17.25l-12.916-336.203c19.72-4.252 37.737-13.443 52.598-26.238 23.161-19.922 38.71-48.711 41.18-81.631a119.618 119.618 0 0 0-3.151-37.564c100.452-49.58 181.187-133.13 227.137-235.672a19.4 19.4 0 0 0-17.457-27.588 19.4 19.4 0 0 0-17.946 11.722c-41.983 93.692-115.474 170.173-207.056 215.877a119.772 119.772 0 0 0-10.155-13.63c-19.921-23.162-48.71-38.71-81.63-41.18-32.88-2.43-63.695 8.666-86.856 28.629-20.887 17.966-35.578 43.145-40.074 72.06-235.178-11.031-422.084-204.816-422.084-442.752 0-212.608 149.468-389.837 348.877-433.088a19.4 19.4 0 0 0-3.028-38.4zm-30.046 156.266a19.4 19.4 0 0 0-6.938 1.652c-124.903 53.519-206.103 176.175-206.775 311.959a19.4 19.4 0 0 0-.059 1.543v.058a19.4 19.4 0 0 0 0 .016 19.4 19.4 0 0 0 0 .03c0 .058.008.091.008.15a19.4 19.4 0 0 0 .096 1.97c.173 39.606 2.323 59.84 13.605 106.713a19.4 19.4 0 1 0 37.713-9.08c-11.242-46.71-12.532-59.592-12.623-99.787v-.047c.049-120.995 72.096-230.206 183.314-277.861a19.4 19.4 0 0 0-8.326-37.316 19.4 19.4 0 0 0-.002 0 19.4 19.4 0 0 0-.013 0zm1085.783 129.37c9.193.013 18.499 2.474 26.906 7.596 12.188 7.45 20.245 19.154 23.363 32.07a51.713 51.713 0 0 1-6.113 39.278l.041-.04v.04c-7.45 12.229-19.153 20.245-32.07 23.363-12.917 3.159-27.049 1.336-39.278-6.115h-.039c-12.228-7.45-20.247-19.151-23.365-32.068a51.718 51.718 0 0 1 6.115-39.278c7.45-12.188 19.152-20.245 32.069-23.363a51.809 51.809 0 0 1 12.37-1.482zM1240.39 918.06c80.41 0 145.18 64.769 145.18 145.18 0 80.41-64.77 145.179-145.18 145.179-80.41 0-145.188-64.77-145.188-145.18 0-1.256.015-2.509.047-3.758 1.98-78.66 65.986-141.421 145.14-141.421zm-634.116 42.795c-13.922-.312-26.852 4.668-36.722 13.171-10.569 9.111-17.615 22.188-18.748 37.17-1.094 14.982 3.969 28.992 13.039 39.52 5.061 5.871 11.378 10.69 18.586 13.97-5.264 105.805 17.978 206.831 63.086 295.467 48.833 95.925 123.296 177.192 215.05 234.082 8.018 4.98 18.506 2.512 23.446-5.464 4.98-8.018 2.51-18.506-5.467-23.446l-.041-.04c-86.49-53.652-156.662-130.22-202.66-220.557-42.152-82.765-63.978-177.234-59.403-276.358a54.445 54.445 0 0 0 24.053-11.984c10.568-9.07 17.614-22.15 18.748-37.131 1.093-14.982-3.969-28.992-13.039-39.52-9.07-10.568-22.149-17.614-37.13-18.748a55.474 55.474 0 0 0-2.798-.132zm-.668 34.136a20.074 20.074 0 0 1 14.844 7.014 20.295 20.295 0 0 1 4.819 14.7 20.069 20.069 0 0 1-6.965 13.806 20.385 20.385 0 0 1-11.094 4.78c-1.66-.73-3.523-1.175-5.467-1.337a14.858 14.858 0 0 0-3.807.121c-3.198-1.215-5.952-3.198-8.138-5.709a20.295 20.295 0 0 1-4.819-14.699 20.073 20.073 0 0 1 6.965-13.809 20.286 20.286 0 0 1 13.662-4.867zm-335.365 48.996c.885.02 1.775.063 2.668.13 14.294 1.052 26.767 7.815 35.432 17.857 8.665 10.082 13.482 23.403 12.43 37.697-1.053 14.293-7.814 26.764-17.856 35.43-10.082 8.665-23.406 13.484-37.7 12.431-14.293-1.052-26.764-7.815-35.429-17.857-8.665-10.083-13.484-23.404-12.432-37.697 1.053-14.294 7.816-26.765 17.858-35.43 9.452-8.124 21.751-12.867 35.03-12.56zm1281.197 1.944c.886.02 1.775.063 2.668.129 14.294 1.052 26.765 7.815 35.43 17.857 8.665 10.082 13.484 23.404 12.432 37.697-1.053 14.294-7.816 26.765-17.858 35.43-10.082 8.665-23.403 13.484-37.697 12.432-14.293-1.053-26.764-7.816-35.43-17.858-8.665-10.082-13.484-23.403-12.431-37.697 1.052-14.294 7.815-26.765 17.857-35.43 9.452-8.123 21.751-12.867 35.03-12.56zm642.954 14.216a70.865 70.865 0 0 0-16.834 1.989c-17.614 4.292-33.609 15.265-43.813 31.988-10.163 16.723-12.634 35.956-8.383 53.53 4.292 17.613 15.268 33.608 31.99 43.812 16.724 10.163 35.956 12.632 53.53 8.38 17.614-4.291 33.608-15.264 43.812-31.988 10.164-16.723 12.633-35.956 8.381-53.529-4.292-17.614-15.265-33.609-31.988-43.812-11.497-6.988-24.18-10.34-36.695-10.37zm-644.723 10.3c-6.457.15-12.4 2.603-17.063 6.59l-.082.081a27.018 27.018 0 0 0-9.394 18.545c-.567 7.491 1.984 14.456 6.52 19.76v.08a27.205 27.205 0 0 0 18.626 9.395c7.491.566 14.497-1.985 19.801-6.52a27.2 27.2 0 0 0 9.393-18.625c.567-7.491-1.983-14.496-6.518-19.8h-.082a27.019 27.019 0 0 0-18.545-9.395l.041-.041a27.55 27.55 0 0 0-2.697-.07zm-1281.266.046c-6.038.144-11.594 2.438-15.9 6.139-4.94 4.211-8.22 10.324-8.746 17.289-.486 6.924 1.861 13.443 6.113 18.383l-.04.04c4.21 4.94 10.326 8.22 17.29 8.747 6.884.526 13.402-1.863 18.342-6.074l.082-.08c4.94-4.293 8.22-10.367 8.746-17.25.526-7.005-1.863-13.525-6.074-18.424l-.041.04c-4.252-4.94-10.324-8.219-17.248-8.745a25.694 25.694 0 0 0-2.524-.065zm1282.383 20.756c.85.688 3.443 1.984 4.455 2.227l-4.941 4.252-4.94 4.251.041-.04c-.12-1-.989-3.726-1.517-4.69l-.102-.008c.689-.85 1.984-3.44 2.227-4.453l4.168 4.889.123.01-4.25-4.899c1.053-.121 3.805-1.013 4.736-1.539zm-.61 6.428-6.314-.477c.007.012.015.037.022.049l6.336.479-.043-.051zm644.147-3.469a36.43 36.43 0 0 1 19.069 5.383c8.665 5.264 14.335 13.564 16.562 22.715 2.227 9.191.97 19.194-4.334 27.86-5.264 8.664-13.564 14.333-22.715 16.56-9.19 2.227-19.194.972-27.86-4.332-8.664-5.264-14.333-13.566-16.56-22.717-2.227-9.192-.972-19.192 4.332-27.858 5.264-8.665 13.566-14.335 22.717-16.562a37.25 37.25 0 0 1 8.79-1.049zm-1925.26 1.656-.607 8.262c-1.04-.88-4.242-2.503-5.607-2.893l6.214-5.369zm1281.198 1.905.017.02.022-.02v.044l4.172 4.854c-1.001.08-3.691.988-4.653 1.518l-.004.062c-.85-.688-3.401-1.983-4.414-2.226l4.858-4.215.002-.037zm-.002.037-.485 6.4.045-.021.48-6.371-.02-.026-.02.018zm-46.883 130.757a19.4 19.4 0 0 0-15.975 8.483c-56.534 80.503-148.635 128.455-247.005 128.615-66.256-.201-109.725-10.866-168.026-48.588a19.4 19.4 0 0 0-21.076 32.576c63.269 40.937 118.219 54.601 189.035 54.811h.083c110.962-.167 214.964-54.314 278.735-145.121a19.4 19.4 0 0 0-15.77-30.775zm-1196.424 17.096c-6.039.144-11.596 2.438-15.902 6.139-4.94 4.211-8.22 10.326-8.746 17.29-.486 6.925 1.863 13.444 6.115 18.384l-.041.04c4.211 4.94 10.324 8.22 17.289 8.747 6.884.526 13.404-1.863 18.344-6.074l.08-.082c4.94-4.293 8.22-10.365 8.746-17.249.526-7.005-1.861-13.524-6.072-18.423l-.041.039c-4.252-4.94-10.326-8.22-17.25-8.746a25.62 25.62 0 0 0-2.522-.065zm.66 25.373-.607 8.26c-1.04-.88-4.242-2.502-5.608-2.893l6.215-5.367zm1847.989 2.705a57.544 57.544 0 0 0-13.717 1.627c-14.334 3.442-27.373 12.432-35.674 26.037l-2.227 3.604-.04.404c-6.398 12.593-7.734 26.644-4.616 39.56 3.442 14.334 12.43 27.374 26.035 35.675l3.606 2.226.404.041c12.593 6.398 26.644 7.733 39.56 4.615 14.335-3.441 27.372-12.432 35.673-26.037 8.3-13.605 10.325-29.234 6.843-43.568l.041-.041c-3.442-14.334-12.432-27.371-26.037-35.672-9.354-5.707-19.663-8.447-29.851-8.47zm-.153 34.084a23.61 23.61 0 0 1 12.27 3.46c5.547 3.4 9.192 8.745 10.61 14.617a23.66 23.66 0 0 1-2.796 17.898h.082c-3.401 5.547-8.748 9.19-14.619 10.607a23.655 23.655 0 0 1-17.896-2.793h-.041c-5.548-3.36-9.19-8.707-10.608-14.578a23.655 23.655 0 0 1 2.793-17.896v-.041c3.36-5.548 8.705-9.19 14.576-10.608a23.84 23.84 0 0 1 5.63-.666zm-1814.605 45.748c-6.039.144-11.594 2.438-15.9 6.139-4.94 4.211-8.22 10.326-8.747 17.291-.486 6.924 1.862 13.443 6.114 18.383l-.041.04c4.21 4.94 10.326 8.22 17.29 8.747 6.884.526 13.402-1.863 18.342-6.074l.082-.082c4.94-4.292 8.22-10.365 8.746-17.248.527-7.005-1.863-13.525-6.074-18.424l-.04.04c-4.293-4.94-10.366-8.22-17.29-8.747h.041a25.58 25.58 0 0 0-2.523-.065zm.619 25.373-.608 8.26c-1.04-.88-4.24-2.502-5.605-2.892l6.213-5.368zm995.566 60.055a86.73 86.73 0 0 1 6.563.236c23.485 1.742 44.055 12.838 58.308 29.399v.039c14.253 16.561 22.189 38.548 20.448 62.033-1.741 23.485-12.836 44.056-29.397 58.309-12.674 10.933-28.546 18.14-45.836 20.125a15.078 15.078 0 0 0-2.713-.121 16.56 16.56 0 0 0-4.01.607c-3.117.08-6.275.04-9.474-.203-23.485-1.741-44.056-12.836-58.309-29.397-14.253-16.56-22.188-38.548-20.447-62.033 1.741-23.485 12.835-44.055 29.397-58.308 15.008-12.917 34.473-20.646 55.47-20.686zm-954.64 17.584c-6.04.144-11.596 2.438-15.903 6.139-4.94 4.21-8.22 10.324-8.746 17.289-.486 6.924 1.864 13.443 6.115 18.383l-.04.04c4.21 4.94 10.326 8.22 17.29 8.747 6.884.526 13.402-1.863 18.342-6.075l.082-.08c4.94-4.292 8.22-10.366 8.746-17.25.527-7.005-1.863-13.524-6.074-18.423l-.04.04c-4.252-4.94-10.327-8.22-17.25-8.745a25.619 25.619 0 0 0-2.522-.065zm.66 25.371-.608 8.262c-1.04-.88-4.241-2.502-5.607-2.893l6.215-5.369zM659.02 1661.42a16.99 16.99 0 0 0-13.304 5.822c-6.195 7.086-5.465 17.817 1.62 24.012 63.654 55.797 136.458 101.713 216.145 135.119 74.343 31.138 154.558 51.426 238.82 58.674a54.44 54.44 0 0 0 11.985 24.05c9.07 10.569 22.15 17.615 37.131 18.749 14.982 1.093 28.992-3.967 39.52-13.037 10.568-9.07 17.614-22.15 18.747-37.131 1.094-14.982-3.968-28.994-13.038-39.522-9.111-10.568-22.188-17.612-37.17-18.746h.08c-14.982-1.093-28.992 3.967-39.52 13.037a53.997 53.997 0 0 0-14.01 18.627c-81.145-6.883-158.202-26.28-229.345-56.082-76.327-31.988-146.014-75.962-206.953-129.37a16.935 16.935 0 0 0-10.708-4.202zm-258.925 63.703c-17.361.413-33.382 6.964-45.838 17.676-14.172 12.188-23.688 29.803-25.186 49.887-1.498 20.124 5.304 38.911 17.492 53.084 12.188 14.172 29.803 23.687 49.887 25.185 15.185 1.134 29.6-2.43 41.87-9.515 85.72 81.874 185.37 149.697 295.386 199.38 110.097 49.765 230.56 81.39 357.865 90.905 1.013.08 2.025.04 2.996-.041 2.43 12.673 8.178 24.255 16.358 33.73 12.188 14.172 29.803 23.687 49.887 25.186 20.124 1.498 38.911-5.305 53.083-17.493 14.173-12.188 23.688-29.762 25.186-49.886 1.498-20.125-5.304-38.912-17.492-53.084-12.188-14.172-29.76-23.688-49.885-25.186-20.124-1.498-38.914 5.304-53.086 17.492a72.806 72.806 0 0 0-22.635 35.43 13.696 13.696 0 0 0-1.861-.242c-123.418-9.232-239.995-39.804-346.447-87.908-106.007-47.861-201.972-113.053-284.615-191.688 6.56-10.001 10.728-21.702 11.66-34.457 1.498-20.124-5.304-38.914-17.492-53.086-12.188-14.172-29.76-23.687-49.885-25.185a74.344 74.344 0 0 0-7.248-.184zm.847 34.135a38.702 38.702 0 0 1 3.85.101 38.746 38.746 0 0 1 26.562 13.405c6.48 7.531 10.123 17.533 9.313 28.222a38.745 38.745 0 0 1-13.402 26.563c-7.532 6.478-17.533 10.122-28.223 9.312a38.745 38.745 0 0 1-26.563-13.402c-6.478-7.531-10.124-17.533-9.314-28.223a38.747 38.747 0 0 1 13.404-26.562c6.62-5.694 15.148-9.2 24.373-9.416zm754.946 94.156a20.069 20.069 0 0 1 14.844 7.014 20.29 20.29 0 0 1 4.818 14.697 20.073 20.073 0 0 1-6.965 13.809 20.29 20.29 0 0 1-14.697 4.818 20.073 20.073 0 0 1-13.809-6.965 20.29 20.29 0 0 1-4.818-14.697 20.074 20.074 0 0 1 6.965-13.809 20.287 20.287 0 0 1 13.662-4.867zm638.906 32.434c.885.02 1.774.065 2.668.13 14.293 1.053 26.764 7.814 35.43 17.856 8.665 10.082 13.484 23.406 12.431 37.7-1.053 14.293-7.815 26.764-17.857 35.429-10.083 8.665-23.404 13.482-37.697 12.43-14.294-1.053-26.765-7.814-35.43-17.856-8.665-10.082-13.485-23.404-12.432-37.697 1.053-14.294 7.816-26.766 17.858-35.432 9.452-8.123 21.75-12.867 35.029-12.56zm-629.49 213.013a38.833 38.833 0 0 1 3.85.104 38.745 38.745 0 0 1 26.562 13.402c6.478 7.532 10.122 17.533 9.312 28.223a38.744 38.744 0 0 1-13.402 26.562c-7.532 6.479-17.533 10.123-28.223 9.313a38.745 38.745 0 0 1-26.562-13.403c-6.479-7.531-10.125-17.532-9.315-28.222a38.747 38.747 0 0 1 13.405-26.563c6.62-5.694 15.147-9.2 24.373-9.416zM.709 2320.631v.056a.028.028 0 0 0-.012-.013.038.038 0 0 0-.05.01c-.008.01-.01.023-.01.04 0 .018.003.03.01.04.006.01.016.015.029.015.017 0 .027-.006.033-.02l.002.01v.008h.027v-.146H.71zm.113 0v.121l-.002.025h.028l.002-.008v-.01a.03.03 0 0 0 .013.014.038.038 0 0 0 .02.006.034.034 0 0 0 .03-.015.069.069 0 0 0 .01-.041.064.064 0 0 0-.01-.04c-.008-.009-.016-.015-.028-.015-.017 0-.03.008-.035.021v-.058H.822zm.45 0v.146h.027v-.146H1.27zm.292 0v.146h.028v-.04l.012-.008.029.048h.031l-.041-.066.037-.041h-.03l-.038.045v-.084h-.028zm1.229 0v.146h.027v-.04l.012-.008.03.048h.029l-.04-.066.038-.041h-.032l-.037.045v-.084h-.027zm-2.719.006c-.022 0-.039.005-.05.017-.012.013-.018.03-.018.053s.005.04.017.053c.013.012.03.02.053.02a.067.067 0 0 0 .037-.01.061.061 0 0 0 .026-.03l-.026-.01a.037.037 0 0 1-.037.026c-.013 0-.024-.003-.031-.012-.007-.008-.01-.021-.01-.037 0-.016.003-.027.01-.035a.036.036 0 0 1 .03-.014c.008 0 .016.002.023.006a.03.03 0 0 1 .013.018l.026-.008a.048.048 0 0 0-.022-.028.077.077 0 0 0-.04-.01zm1.106 0c-.022 0-.04.005-.053.017a.074.074 0 0 0-.018.053c0 .022.006.04.018.053a.07.07 0 0 0 .053.02.076.076 0 0 0 .037-.01.057.057 0 0 0 .023-.026.077.077 0 0 0 .01-.037.073.073 0 0 0-.02-.053c-.012-.012-.028-.017-.05-.017zm.666.002v.138h.029v-.048h.035c.01 0 .018-.002.026-.006a.045.045 0 0 0 .017-.018.046.046 0 0 0 .008-.023.038.038 0 0 0-.014-.032.06.06 0 0 0-.039-.011h-.062zm-1.371.005-.01.026H.449v.02h.014v.062c0 .009.003.015.008.02.004.004.01.007.017.007a.076.076 0 0 0 .024-.004v-.017l-.008.002a.013.013 0 0 1-.01-.004.02.02 0 0 1-.004-.012v-.055h.022v-.02H.49v-.024H.475zm.705.014c.013 0 .022.005.029.014.007.008.01.02.01.035 0 .016-.003.029-.01.037-.007.009-.016.012-.03.012a.04.04 0 0 1-.03-.014c-.008-.009-.01-.02-.01-.035 0-.015.002-.027.01-.035a.04.04 0 0 1 .03-.014zm.695.002h.03c.017 0 .027.007.027.022a.024.024 0 0 1-.008.017.026.026 0 0 1-.018.006h-.031v-.045zm-1.664.008c-.004 0-.009 0-.012.002a.024.024 0 0 0-.008.008l-.005.015c0-.002-.002-.005-.002-.011v-.012H.156l.002.01v.097h.028v-.052a.06.06 0 0 1 .005-.026.02.02 0 0 1 .016-.008l.012.002v-.023a.017.017 0 0 0-.008-.002zm.07 0c-.016 0-.028.004-.037.014a.059.059 0 0 0-.014.04.07.07 0 0 0 .012.044c.009.01.021.013.037.013.023 0 .04-.01.047-.029l-.025-.002c-.003.008-.01.012-.02.012a.018.018 0 0 1-.015-.008.04.04 0 0 1-.006-.023h.068c0-.02-.003-.035-.012-.045a.042.042 0 0 0-.035-.016zm.112 0a.06.06 0 0 0-.034.008.033.033 0 0 0-.013.023l.029.002c0-.005.002-.01.004-.012a.017.017 0 0 1 .012-.003c.005 0 .009.002.011.005a.027.027 0 0 1 .004.016v.006H.383c-.014 0-.024.002-.031.008-.008.006-.01.014-.01.025 0 .01.002.02.008.025.005.006.013.008.023.008a.038.038 0 0 0 .035-.021H.41a.02.02 0 0 0 .006.015.021.021 0 0 0 .016.006l.004-.002h.009l.004-.002v-.015l-.006.002a.008.008 0 0 1-.007-.004c-.002-.002-.002-.006-.002-.012v-.039c0-.012-.003-.023-.01-.03a.048.048 0 0 0-.031-.009zm.181 0c-.016 0-.028.004-.037.014a.059.059 0 0 0-.014.04.07.07 0 0 0 .012.044c.009.01.021.013.037.013.023 0 .04-.01.047-.029l-.025-.002c-.003.008-.01.012-.02.012a.018.018 0 0 1-.015-.008.04.04 0 0 1-.006-.023H.62c0-.02-.004-.035-.012-.045a.042.042 0 0 0-.035-.016zm.799 0c-.016 0-.028.004-.037.014a.059.059 0 0 0-.014.04c0 .019.003.034.012.044.009.01.021.013.037.013.023 0 .04-.01.047-.029l-.025-.002c-.003.008-.01.012-.02.012a.018.018 0 0 1-.016-.008.04.04 0 0 1-.005-.023h.068c0-.02-.004-.035-.012-.045a.042.042 0 0 0-.035-.016zm.129 0a.034.034 0 0 0-.02.006.04.04 0 0 0-.013.017l-.002-.011v-.01h-.028l.002.01v.097h.028v-.056c0-.01.002-.018.006-.024a.017.017 0 0 1 .015-.008c.013 0 .02.009.02.028v.06h.027v-.068c0-.014-.002-.024-.008-.031-.006-.007-.016-.01-.027-.01zm.219 0a.06.06 0 0 0-.034.008.033.033 0 0 0-.013.023l.03.002c0-.005 0-.01.003-.012a.017.017 0 0 1 .012-.003c.005 0 .009.002.011.005a.027.027 0 0 1 .004.016v.006h-.023c-.014 0-.024.002-.031.008-.007.006-.01.014-.01.025 0 .01.002.02.008.025.006.006.013.008.023.008a.038.038 0 0 0 .035-.021h.002a.02.02 0 0 0 .006.015.021.021 0 0 0 .016.006l.004-.002h.009l.004-.002v-.015l-.006.002a.008.008 0 0 1-.007-.004c-.002-.002-.002-.006-.002-.012v-.039c0-.012-.003-.023-.01-.03a.048.048 0 0 0-.031-.009zm.302 0a.053.053 0 0 0-.03.008.033.033 0 0 0-.014.023l.029.002c0-.005.001-.01.004-.012a.017.017 0 0 1 .011-.003c.006 0 .01.002.012.005a.027.027 0 0 1 .004.016v.006h-.023c-.014 0-.024.002-.032.008a.031.031 0 0 0-.011.025c0 .01.004.02.01.025.005.006.013.008.023.008a.038.038 0 0 0 .035-.021.02.02 0 0 0 .006.015.021.021 0 0 0 .015.006l.006-.002h.008l.006-.002v-.015l-.008.002c-.003 0-.004-.002-.006-.004l-.002-.012v-.039a.04.04 0 0 0-.011-.03.05.05 0 0 0-.032-.009zm.133 0a.04.04 0 0 0-.021.006.04.04 0 0 0-.014.017v-.011c0-.006-.002-.009-.002-.01h-.025v.107h.027v-.056c0-.01.004-.018.008-.024a.017.017 0 0 1 .016-.008c.012 0 .02.009.02.028v.06h.026v-.068a.047.047 0 0 0-.01-.031c-.005-.007-.013-.01-.025-.01zm.104 0a.053.053 0 0 0-.031.008.033.033 0 0 0-.014.023l.03.002c0-.005 0-.01.003-.012a.017.017 0 0 1 .012-.003c.005 0 .009.002.011.005a.027.027 0 0 1 .004.016v.006h-.023c-.014 0-.024.002-.031.008a.031.031 0 0 0-.012.025c0 .01.004.02.01.025.006.006.013.008.023.008a.038.038 0 0 0 .035-.021h.002c.001.007.003.012.006.015a.017.017 0 0 0 .014.006l.006-.002h.007l.006-.002v-.015l-.007.002c-.004 0-.005-.002-.006-.004-.002-.002-.002-.006-.002-.012v-.039a.04.04 0 0 0-.012-.03.048.048 0 0 0-.031-.009zm.113 0c-.014 0-.025.002-.033.008a.03.03 0 0 0-.012.025c0 .006.001.012.004.016a.028.028 0 0 0 .012.01l.033.007.014.006a.01.01 0 0 1 .004.008c0 .004 0 .008-.004.01s-.01.002-.018.002c-.008 0-.014 0-.018-.002a.02.02 0 0 1-.007-.012l-.024.004c.003.01.008.017.016.021a.064.064 0 0 0 .033.008.06.06 0 0 0 .035-.01c.009-.005.012-.013.012-.023 0-.006 0-.012-.002-.015a.03.03 0 0 0-.01-.01.348.348 0 0 0-.05-.016.01.01 0 0 1-.004-.008c0-.004 0-.006.003-.008a.037.037 0 0 1 .016-.001l.016.001a.014.014 0 0 1 .006.01l.023-.002a.03.03 0 0 0-.014-.021.058.058 0 0 0-.031-.008zm.117 0a.051.051 0 0 0-.039.016c-.01.01-.014.021-.014.039 0 .017.005.03.014.04.01.01.023.016.04.016a.057.057 0 0 0 .04-.015c.01-.01.014-.024.014-.041 0-.018-.005-.032-.014-.041-.009-.01-.023-.014-.04-.014zm.233 0c-.015 0-.026.002-.034.008a.03.03 0 0 0-.011.025c0 .006 0 .012.004.016a.028.028 0 0 0 .011.01.165.165 0 0 0 .032.007.046.046 0 0 1 .015.006.01.01 0 0 1 .004.008.011.011 0 0 1-.006.01c-.003.002-.008.002-.015.002-.009 0-.014 0-.018-.002a.02.02 0 0 1-.008-.012l-.025.004a.03.03 0 0 0 .015.021.071.071 0 0 0 .036.008.06.06 0 0 0 .035-.01.026.026 0 0 0 .012-.023.03.03 0 0 0-.004-.015c-.003-.005-.004-.008-.008-.01a.348.348 0 0 0-.05-.016.01.01 0 0 1-.005-.008c0-.004 0-.006.004-.008a.037.037 0 0 1 .016-.001l.013.001a.014.014 0 0 1 .006.01l.026-.002a.033.033 0 0 0-.016-.021.05.05 0 0 0-.03-.008zm.224 0a.053.053 0 0 0-.031.008.033.033 0 0 0-.014.023l.03.002c0-.005.001-.01.004-.012a.017.017 0 0 1 .011-.003c.006 0 .01.002.012.005a.027.027 0 0 1 .004.016v.006h-.024c-.013 0-.024.002-.03.008a.031.031 0 0 0-.013.025c0 .01.004.02.01.025.006.006.013.008.024.008a.038.038 0 0 0 .035-.021c0 .007.002.012.006.015a.021.021 0 0 0 .015.006l.006-.002H3l.004-.002v-.015l-.006.002c-.003 0-.004-.002-.006-.004l-.002-.012v-.039a.04.04 0 0 0-.011-.03.05.05 0 0 0-.032-.009zm-2.013.002.04.105c-.002.007-.003.013-.005.016a.02.02 0 0 1-.008.006.023.023 0 0 1-.01.002h-.01v.02H.96c.01 0 .017-.003.023-.008a.07.07 0 0 0 .018-.028l.043-.113h-.03l-.015.05-.006.024-.002.01-.011-.033-.016-.051h-.03zm1.619 0 .039.107h.033l.04-.107h-.03l-.022.07a.31.31 0 0 0-.004.014l-.007-.023-.018-.061h-.031zm-2.274.015c.006 0 .012.002.016.006.004.005.005.011.006.02H.26c0-.008.002-.013.006-.018.003-.004.007-.008.013-.008zm.293 0c.006 0 .012.002.016.006.004.005.005.011.006.02H.553c0-.008.002-.013.006-.018.003-.004.007-.008.013-.008zm.8 0c.005 0 .011.002.015.006a.047.047 0 0 1 .006.02h-.041c0-.008.002-.013.005-.018.004-.004.008-.008.014-.008zm-.685.003a.02.02 0 0 1 .018.01.046.046 0 0 1 .006.025.05.05 0 0 1-.008.027c-.004.006-.008.01-.015.01-.015 0-.022-.011-.022-.035 0-.013 0-.024.004-.03.004-.006.01-.008.017-.008zm.186 0c.007 0 .012.001.016.007a.054.054 0 0 1 .006.028c0 .024-.007.037-.022.037a.02.02 0 0 1-.018-.01.047.047 0 0 1-.005-.025.07.07 0 0 1 .005-.028.02.02 0 0 1 .018-.01zm1.62 0c.007 0 .013.002.017.007a.05.05 0 0 1 .006.028c0 .024-.009.037-.026.037a.02.02 0 0 1-.017-.01.05.05 0 0 1-.006-.027c0-.024.008-.035.025-.035zm-2.1.04h.013v.004c0 .005-.002.01-.004.014a.023.023 0 0 1-.007.01.021.021 0 0 1-.012.004.014.014 0 0 1-.01-.004.018.018 0 0 1-.004-.012c0-.004 0-.007.002-.01.002-.002.005-.002.008-.003a.043.043 0 0 1 .014-.003zm1.328 0h.013v.004c0 .005-.001.01-.004.014a.023.023 0 0 1-.007.01.021.021 0 0 1-.012.004.014.014 0 0 1-.01-.004.018.018 0 0 1-.004-.012c0-.004 0-.007.002-.01.002-.002.005-.002.008-.003a.043.043 0 0 1 .014-.003zm.302 0h.016v.004c0 .005-.002.01-.004.014a.023.023 0 0 1-.008.01.021.021 0 0 1-.011.004.014.014 0 0 1-.01-.004.018.018 0 0 1-.004-.012c0-.004 0-.007.002-.01.001-.002.003-.002.006-.003a.043.043 0 0 1 .013-.003zm.237 0h.015v.004c0 .005-.001.01-.004.014a.023.023 0 0 1-.007.01.021.021 0 0 1-.012.004.014.014 0 0 1-.01-.004.018.018 0 0 1-.004-.012c0-.004 0-.007.002-.01l.006-.003a.043.043 0 0 1 .014-.003zm.687 0h.016v.004c0 .005-.002.01-.004.014a.023.023 0 0 1-.008.01.021.021 0 0 1-.012.004.014.014 0 0 1-.01-.004.018.018 0 0 1-.003-.012c0-.004 0-.007.002-.01.001-.002.003-.002.006-.003a.043.043 0 0 1 .013-.003zm-2.9.104a.034.034 0 0 0-.024.008c-.005.005-.007.012-.007.021v.012H0v.018h.016v.09h.029v-.09h.02v-.018h-.02v-.008c0-.005 0-.01.002-.011.002-.002.005-.002.01-.002h.007v-.018a.11.11 0 0 0-.017-.002zm.539 0v.149h.027v-.06c0-.008.002-.015.006-.02.004-.006.009-.01.016-.01.012 0 .02.01.02.029v.06h.027v-.068c0-.013-.002-.024-.008-.031-.006-.007-.016-.01-.028-.01a.034.034 0 0 0-.019.006.039.039 0 0 0-.014.017H.611l.002-.021v-.041H.586zm1.203 0v.022h.027v-.022H1.79zm-.912.008v.14h.025v-.082c0-.006 0-.015-.002-.025l.063.108h.033v-.141H.971v.082c0 .008 0 .017.002.027l-.063-.11H.877zm.574 0v.14h.03v-.05h.035c.01 0 .017 0 .025-.004a.044.044 0 0 0 .018-.018.046.046 0 0 0 .007-.023.042.042 0 0 0-.013-.033.06.06 0 0 0-.04-.012h-.062zm-.922.008-.008.025H.506v.018H.52v.064c0 .01.001.015.005.02a.028.028 0 0 0 .02.007.073.073 0 0 0 .023-.003v-.018l-.01.002c-.004 0-.005-.002-.007-.004a.019.019 0 0 1-.004-.012v-.056h.02v-.018h-.02v-.025H.529zm1.553 0-.008.025H2.06v.018h.013v.064c0 .01.004.015.008.02.004.004.01.007.018.007a.073.073 0 0 0 .023-.003v-.018l-.01.002c-.004 0-.006-.002-.007-.004a.019.019 0 0 1-.004-.012v-.056h.021v-.018H2.1v-.025h-.018zm-.602.015h.03c.017 0 .025.007.025.022 0 .007-.001.013-.006.017a.024.024 0 0 1-.017.006H1.48v-.045zm-1.347.008c-.005 0-.009 0-.012.002a.016.016 0 0 0-.008.006.094.094 0 0 0-.008.017v-.023H.078v.107h.03v-.052c0-.011.001-.02.005-.026a.02.02 0 0 1 .016-.008H.14v-.021l-.008-.002zm.072 0c-.017 0-.03.004-.039.014a.054.054 0 0 0-.014.04.06.06 0 0 0 .014.042c.01.01.022.015.04.015a.049.049 0 0 0 .038-.015.057.057 0 0 0 .016-.041c0-.018-.005-.032-.014-.041-.01-.01-.023-.014-.04-.014zm.135 0a.028.028 0 0 0-.018.006.04.04 0 0 0-.013.017v-.011c0-.006-.002-.009-.002-.01H.28v.108h.03v-.06a.04.04 0 0 1 .005-.02c.004-.006.009-.01.014-.01.01 0 .016.01.016.029v.06H.37v-.058a.05.05 0 0 1 .006-.024.016.016 0 0 1 .014-.007c.01 0 .015.01.015.029v.06h.03v-.068a.051.051 0 0 0-.01-.031c-.006-.007-.013-.01-.024-.01a.033.033 0 0 0-.02.006.055.055 0 0 0-.01.017H.368c-.003-.015-.013-.023-.03-.023zm.414 0a.054.054 0 0 0-.04.014c-.008.01-.01.023-.01.04 0 .019.002.032.01.042a.05.05 0 0 0 .038.015c.023 0 .04-.01.047-.029l-.026-.002c-.002.009-.01.012-.02.012a.018.018 0 0 1-.015-.008.04.04 0 0 1-.006-.023h.069c0-.02-.004-.035-.012-.045a.042.042 0 0 0-.035-.016zm.318 0c-.017 0-.031.004-.04.014a.054.054 0 0 0-.014.04c0 .018.004.032.013.042.01.01.025.015.041.015.017 0 .03-.005.04-.015a.06.06 0 0 0 .013-.041c0-.018-.004-.032-.014-.041-.009-.01-.021-.014-.039-.014zm.262 0a.04.04 0 0 0-.022.006.039.039 0 0 0-.013.017v-.011c0-.006-.002-.009-.002-.01H1.27v.108h.03v-.06c0-.008.002-.015.006-.02a.023.023 0 0 1 .017-.01c.013 0 .02.01.02.029v.06h.027v-.068a.047.047 0 0 0-.01-.031c-.006-.007-.014-.01-.025-.01zm.307 0c-.005 0-.01 0-.012.002a.016.016 0 0 0-.008.006.094.094 0 0 0-.008.017v-.023h-.027v.107h.03v-.052c0-.011.001-.02.005-.026a.02.02 0 0 1 .016-.008h.011v-.021l-.007-.002zm.072 0c-.017 0-.03.004-.04.014a.058.058 0 0 0-.013.04c0 .018.004.032.014.042.01.01.022.015.039.015s.03-.005.039-.015a.057.057 0 0 0 .016-.041c0-.018-.005-.032-.014-.041-.01-.01-.024-.014-.041-.014zm.176 0c-.016 0-.029.004-.037.014-.01.01-.012.023-.012.04 0 .019.003.032.012.042.008.01.02.015.037.015.023 0 .039-.01.047-.029l-.028-.002c-.002.009-.008.012-.017.012a.023.023 0 0 1-.018-.008c-.004-.005-.004-.013-.004-.023h.069a.071.071 0 0 0-.014-.045.042.042 0 0 0-.035-.016zm.115 0a.054.054 0 0 0-.04.014.064.064 0 0 0-.013.043c0 .017.005.03.014.039.009.01.02.015.037.015a.057.057 0 0 0 .041-.02.04.04 0 0 0 .008-.019h-.028c0 .007-.004.01-.007.014a.02.02 0 0 1-.014.006c-.015 0-.022-.013-.022-.037s.008-.035.022-.035c.006 0 .01 0 .014.003a.025.025 0 0 1 .005.014l.028-.002a.04.04 0 0 0-.014-.025.05.05 0 0 0-.031-.01zm-.858.002v.068c0 .014.004.023.01.03a.032.032 0 0 0 .026.011.034.034 0 0 0 .02-.005.042.042 0 0 0 .015-.018v.022h.027v-.108h-.03v.057a.041.041 0 0 1-.005.023c-.004.006-.009.008-.016.008-.012 0-.02-.009-.02-.027v-.061h-.027zm.643 0v.113c0 .007 0 .01-.002.012s-.005.004-.01.004h-.006v.02h.018a.03.03 0 0 0 .022-.008c.004-.005.005-.012.005-.022v-.119H1.79zm-1.037.016c.006 0 .012.001.016.005a.037.037 0 0 1 .005.02h-.04a.04.04 0 0 1 .005-.02c.004-.004.007-.005.014-.005zm1.137 0c.006 0 .012.001.015.005a.03.03 0 0 1 .006.02h-.04c0-.008 0-.015.003-.02.004-.004.01-.005.016-.005zm-1.684.002c.008 0 .015.002.02.007.004.006.005.015.005.028 0 .024-.008.037-.025.037a.02.02 0 0 1-.017-.01.05.05 0 0 1-.008-.027c0-.024.008-.035.025-.035zm.867 0c.008 0 .014.002.018.007a.05.05 0 0 1 .006.028c0 .024-.009.037-.026.037a.02.02 0 0 1-.017-.01.05.05 0 0 1-.006-.027c0-.024.008-.035.025-.035zm.64 0c.009 0 .016.002.02.007.005.006.006.015.006.028 0 .024-.008.037-.025.037a.02.02 0 0 1-.018-.01.05.05 0 0 1-.008-.027c0-.024.009-.035.026-.035z" style="clip-rule:evenodd;fill:#000;fill-rule:nonzero;stroke-width:.04049167;image-rendering:optimizeQuality;shape-rendering:geometricPrecision;text-rendering:geometricPrecision" transform="scale(.26458)"/></svg>