<svg xmlns="http://www.w3.org/2000/svg" width="216" height="217" fill="none"><g fill="#000" fill-rule="evenodd" clip-path="url(#a)" clip-rule="evenodd"><path d="M175.323 154.586a3.427 3.427 0 0 1-3.417 3.432H44.095a3.427 3.427 0 0 1-3.417-3.432v-6.23h49.496l4.105 4.123c.45.452 1.063.708 1.7.708h24.043a2.4 2.4 0 0 0 1.7-.708l4.105-4.123h49.496v6.23ZM47.891 61.891c0-1.604 1.092-2.909 2.434-2.909h115.352c1.341 0 2.433 1.305 2.433 2.909v81.634h-43.279c-.637 0-1.25.254-1.7.708l-4.104 4.123H96.974l-4.104-4.123a2.393 2.393 0 0 0-1.7-.708H47.89V61.891Zm129.836 81.634h-4.808V61.891c0-4.269-3.249-7.74-7.242-7.74H50.325c-3.994 0-7.242 3.471-7.242 7.74v81.634h-4.81a2.41 2.41 0 0 0-2.404 2.415v8.646c0 4.558 3.691 8.263 8.226 8.263h127.811c4.535 0 8.226-3.708 8.226-8.263v-8.646a2.41 2.41 0 0 0-2.405-2.415Z"/><path d="M55.104 68.644H74.34a2.41 2.41 0 0 0 2.405-2.415 2.41 2.41 0 0 0-2.405-2.416H55.104A2.41 2.41 0 0 0 52.7 66.23a2.41 2.41 0 0 0 2.404 2.415Zm12.022 4.831H55.104a2.41 2.41 0 0 0-2.404 2.416 2.41 2.41 0 0 0 2.404 2.415h12.022a2.41 2.41 0 0 0 2.405-2.415 2.41 2.41 0 0 0-2.405-2.416Zm33.66 19.325a2.41 2.41 0 0 0 2.405-2.416v-7.31l5.778-2.558a2.418 2.418 0 0 0 1.231-3.183 2.4 2.4 0 0 0-3.169-1.237l-7.214 3.19a2.416 2.416 0 0 0-1.435 2.211v8.887a2.41 2.41 0 0 0 2.404 2.415Z"/><path d="M76.744 122.8v-16.522l14.427-8.28 8.655 4.968 5.771 3.312V122.8l-14.426 8.28-14.427-8.28Zm31.257-53.789 14.426 8.28v16.523l-5.77 3.311-8.656 4.969-8.656-4.969-5.77-3.311V77.292L108 69.011Zm31.257 53.789-14.426 8.28-14.426-8.28v-16.522l5.77-3.312 8.656-4.969 14.426 8.281V122.8Zm-46.895 13.159 15.638-8.976 15.638 8.976a2.39 2.39 0 0 0 2.385 0l16.831-9.662a2.41 2.41 0 0 0 1.212-2.096v-19.324c0-.868-.462-1.667-1.212-2.097l-15.619-8.966V75.89c0-.868-.462-1.667-1.212-2.097l-16.83-9.662a2.39 2.39 0 0 0-2.385 0l-16.831 9.662a2.414 2.414 0 0 0-1.212 2.097v17.922l-15.619 8.967a2.414 2.414 0 0 0-1.212 2.097V124.2a2.41 2.41 0 0 0 1.212 2.096l16.831 9.662a2.388 2.388 0 0 0 2.385 0Z"/><path d="M93.37 106.319a2.397 2.397 0 0 0-3.17-1.236l-7.213 3.191a2.415 2.415 0 0 0-1.435 2.21v8.886a2.41 2.41 0 0 0 2.404 2.416 2.41 2.41 0 0 0 2.404-2.416v-7.311l5.778-2.556a2.418 2.418 0 0 0 1.231-3.184Zm30.493-1.237-7.213 3.191a2.417 2.417 0 0 0-1.436 2.21v8.887a2.412 2.412 0 0 0 2.405 2.416 2.411 2.411 0 0 0 2.404-2.416v-7.309l5.778-2.558a2.418 2.418 0 0 0 1.231-3.184 2.398 2.398 0 0 0-3.169-1.237Z"/></g><defs><clipPath id="a"><path fill="#fff" d="M0 0h216v217H0z"/></clipPath></defs></svg>