<svg xmlns="http://www.w3.org/2000/svg" xml:space="preserve" width="79.935" height="80.002"><path d="m20.321 21.599 4.199 3.029v6.688a1 1 0 0 0 .402.802l14.499 10.811a1 1 0 0 0 1.196 0l8.457-6.306v2.08a2.848 2.848 0 0 0-1.852 2.661v3.896a1 1 0 0 0 1 1h3.702a1 1 0 0 0 1-1v-3.896a2.848 2.848 0 0 0-1.851-2.661v-3.571l4.042-3.014a1 1 0 0 0 .402-.802v-6.688l4.199-3.029a1 1 0 0 0 0-1.622L40.604 6.192a1 1 0 0 0-1.17 0L20.321 19.977a1 1 0 0 0 0 1.622zm30.603 22.66h-1.702v-2.896a.852.852 0 0 1 1.703 0v2.896zm-10.905-3.38L26.52 30.814v-4.743l12.914 9.314a1 1 0 0 0 1.17 0l8.47-6.108v4.852zm13.499-10.065-2.444 1.823v-4.803l2.444-1.763zM40.019 8.236l17.403 12.552-6.869 4.954-9.987-6.524a1.001 1.001 0 0 0-1.094 1.675l9.343 6.103-8.796 6.344-17.403-12.552z"/><path d="M79.935 57.579V5.923A5.93 5.93 0 0 0 74.011 0H5.923A5.93 5.93 0 0 0 0 5.923v51.656a4.996 4.996 0 0 0 4.99 4.991h24.443c-.316 5.227-4.059 8.179-4.859 8.749h-8.183a5.745 5.745 0 0 0-5.738 5.739v1.944a1 1 0 0 0 1 1h56.63a1 1 0 0 0 1-1v-1.944a5.745 5.745 0 0 0-5.738-5.739h-8.184c-.8-.57-4.544-3.522-4.859-8.749h24.443a4.997 4.997 0 0 0 4.99-4.991zM5.923 2h68.088a3.928 3.928 0 0 1 3.924 3.923v43.496H2V5.923A3.928 3.928 0 0 1 5.923 2ZM2 57.579v-6.16h75.935v6.16a2.995 2.995 0 0 1-2.991 2.991H4.991A2.995 2.995 0 0 1 2 57.579Zm65.283 19.478v.944h-54.63v-.944a3.743 3.743 0 0 1 3.738-3.739h47.153a3.743 3.743 0 0 1 3.739 3.739zm-14.929-5.739H27.58c1.63-1.705 3.642-4.632 3.853-8.749H48.5c.212 4.118 2.224 7.045 3.854 8.749z"/></svg>