<svg xmlns="http://www.w3.org/2000/svg" width="216" height="216" fill="none"><g fill="#000" clip-path="url(#a)"><path d="M41.84 46.129a6.187 6.187 0 0 0-6.186 6.186v90.744a2.058 2.058 0 0 0 1.272 1.906c.25.104.519.158.79.158h46.981l-3.3 16.498H76.9a2.06 2.06 0 0 0-2.061 2.061v6.189h-4.125v4.125h61.87v-4.125h-4.125v-6.189a2.053 2.053 0 0 0-.604-1.458 2.071 2.071 0 0 0-1.459-.603h-4.494l-3.301-16.498h19.656a25.876 25.876 0 0 1-1.711-4.125H39.777v-18.562h97.831a25.92 25.92 0 0 1 2.33-4.125H50.091V60.565h37.12V56.44H48.027a2.06 2.06 0 0 0-2.061 2.064v59.807h-6.189V52.315a2.06 2.06 0 0 1 2.064-2.061h39.184v-4.125H41.841Zm80.433 0v4.125h39.184a2.064 2.064 0 0 1 2.062 2.061v55.043c1.393.136 2.772.385 4.125.744V52.315a6.187 6.187 0 0 0-6.187-6.186h-39.184Zm-6.189 10.311v4.125h37.123v47.953a25.837 25.837 0 0 1 4.125-.973V58.504a2.058 2.058 0 0 0-2.063-2.064h-39.185Zm-27.18 88.683h25.49l3.299 16.498h-32.09l3.3-16.498Zm-9.94 20.623h45.37v4.125h-45.37v-4.125Z" style="fill:#fff;fill-opacity:1"/><path d="M101.648 136.873a6.189 6.189 0 0 0 6.069-7.394 6.18 6.18 0 0 0-4.862-4.861 6.187 6.187 0 1 0-1.207 12.255Zm0-8.25a2.06 2.06 0 0 1 1.906 1.273 2.061 2.061 0 0 1-1.503 2.812 2.061 2.061 0 0 1-1.192-3.928c.25-.103.519-.157.789-.157ZM93.399 56.44c0 8.415-10.312 10.313-10.642 10.313a2.061 2.061 0 0 0-1.423 3.093l16.664 27.842H95.46a2.063 2.063 0 0 0-2.06 2.062v1.671a38.584 38.584 0 0 1-10.312-3.857A22.192 22.192 0 0 1 71.064 81.19h3.774a2.061 2.061 0 0 0 2.062-2.062V66.753a2.062 2.062 0 0 0-2.062-2.063H62.464a2.062 2.062 0 0 0-2.063 2.063v12.374a2.061 2.061 0 0 0 2.063 2.062h4.413a25.222 25.222 0 0 0 9.198 16.499H68.65a2.061 2.061 0 0 0-2.062 2.062v12.374a2.064 2.064 0 0 0 2.063 2.063h12.374a2.065 2.065 0 0 0 2.062-2.063V108h10.312v4.124a2.065 2.065 0 0 0 2.062 2.063h12.374a2.063 2.063 0 0 0 2.063-2.063V108h10.311v4.124c0 .547.218 1.072.604 1.459.387.386.912.604 1.459.604h12.374a2.065 2.065 0 0 0 2.062-2.063V99.75a2.056 2.056 0 0 0-.604-1.458 2.06 2.06 0 0 0-1.458-.604h-7.404a25.223 25.223 0 0 0 9.198-16.499h4.393a2.059 2.059 0 0 0 1.905-1.273c.104-.25.157-.518.157-.79V66.754a2.062 2.062 0 0 0-2.062-2.063h-12.374a2.065 2.065 0 0 0-2.063 2.063v12.374a2.075 2.075 0 0 0 .604 1.458 2.068 2.068 0 0 0 1.459.604h3.774a22.17 22.17 0 0 1-11.879 16.313 38.682 38.682 0 0 1-10.456 3.898v-1.65a2.074 2.074 0 0 0-.604-1.458 2.064 2.064 0 0 0-1.459-.604h-2.536l16.684-27.821a2.065 2.065 0 0 0-1.423-3.094c-.351-.022-10.662-1.918-10.662-10.332V46.129h6.187v-4.125H87.212v4.125h6.187v10.312Zm-26.81 20.624h-2.063v-8.249h8.25v8.25h-6.188Zm12.373 32.998h-8.25v-8.249h8.25v8.249Zm4.125-6.187v-1.732a42.718 42.718 0 0 0 4.125 1.732h-4.125Zm47.434-26.81v-8.25h8.249v8.25h-8.249Zm-6.187 24.748h8.249v8.249h-8.249v-8.249Zm-4.125.329v1.733h-4.124a42.432 42.432 0 0 0 4.124-1.733Zm-14.436-.329v8.249h-8.25v-8.249h8.25Zm-8.25-55.684h8.25v8.25h-8.25v-8.25Zm-.144 12.374h8.559c.99 6.558 6.599 10.106 11.095 11.611l-13.322 22.191V75.002h-4.125v17.303l-13.302-22.19c4.475-1.506 10.105-5.053 11.095-11.612Z" style="fill:#fff;fill-opacity:1"/><path d="M103.711 66.753h-4.124v4.124h4.124v-4.124Z" style="fill:#fff;fill-opacity:1"/><path stroke="#000" stroke-width="20" d="M177.24 124.574c-1.267-2.414-3.048-4.551-5.264-6.174-.316-.237-.791-.158-1.029.159-.237.316-.158.791.159 1.029a16.602 16.602 0 0 1 4.828 5.659c1.187 2.335 1.82 4.828 1.82 7.479 0 9.023-7.321 16.344-16.344 16.344-9.023 0-16.344-7.321-16.344-16.344 0-9.023 7.321-16.344 16.344-16.344a.71.71 0 0 0 .712-.712c0-.396-.316-.752-.712-.752-9.814 0-17.808 7.994-17.808 17.808 0 9.815 7.994 17.809 17.808 17.809s17.808-7.994 17.808-17.809c0-2.849-.673-5.659-1.978-8.152Z" style="fill:#fff;stroke-width:2;stroke-miterlimit:4;stroke-dasharray:none;fill-opacity:1;stroke:#fff;stroke-opacity:1"/><path stroke="#000" stroke-width="20" d="M156.859 124.455c-.237.119-.356.356-.356.633v15.909a.71.71 0 0 0 .713.712.71.71 0 0 0 .712-.712v-14.642l10.724 6.371-7.875 5.105c-.356.198-.435.673-.198.989.198.357.673.436.99.198l8.864-5.698a.645.645 0 0 0 .317-.634.653.653 0 0 0-.356-.593l-12.822-7.638c-.198-.119-.475-.119-.713 0Z" style="fill:none;stroke-width:2;stroke-miterlimit:4;stroke-dasharray:none;stroke:#fff;stroke-opacity:1"/></g><defs><clipPath id="a"><path fill="#fff" d="M0 0h216v216H0z"/></clipPath></defs></svg>