<svg xmlns="http://www.w3.org/2000/svg" width="1189.44" height="1191.36"><path d="M952.96 1190.343c-2.268-1.057-2.292-1.064-35.36-9.859-42.414-11.28-89.922-23.773-109.68-28.84l-1.2-.309.005-51.267c.005-51.042-.496-117.6-.908-120.775l-.217-1.667-4.791 5.987c-2.635 3.293-13.49 17.003-24.124 30.467-23.601 29.887-24.495 30.98-25.528 31.24-1.146.287-3.833-.036-10.966-1.322-3.416-.615-6.6-1.118-7.077-1.118-.757 0-2.636 2.167-14.905 17.2-33.223 40.705-38.83 47.549-47.77 58.301-11.297 13.585-14.275 17.005-15.287 17.552-.9.487-5.44-.378-25.063-4.775l-11.949-2.678.21-32.8c.115-18.04.21-72.217.21-120.393v-87.592l41.949-36.36 41.948-36.36 3.572.497c1.964.273 4.29.54 5.17.592l1.6.096.216-2.24c.372-3.862 1.74-37.958 2.036-50.72l.19-8.16-2.415 2.498c-2.234 2.312-10.33 11.675-47.644 55.102-7.712 8.976-14.377 16.603-14.81 16.948-.61.486-1.204.612-2.62.556-4.524-.181-23.489-3.215-96.552-15.446-47.339-7.925-59.308-10.06-59.94-10.69-.274-.275.738-21.798 3.305-70.248 2.703-51.017 4.018-76.5 4.938-95.68.35-7.304.73-15.116.843-17.36.138-2.746.096-4.08-.128-4.08-.183 0-10.387 6.357-22.676 14.127-42.872 27.11-50.492 31.79-53.761 33.025-6.026 2.276-10.239 2.933-18.661 2.907-8.38-.026-12.756-.672-21.633-3.198-.654-.186-.678-.066-.897 4.554-.49 10.314-2.05 17.306-5.7 25.545a135.98 135.98 0 0 0-2.525 6.227c-1.928 5.17-2.973 6.69-7.584 11.03-.922.867-1.564 1.687-1.428 1.823.136.135 2.839 1.734 6.007 3.552 6.73 3.864 9.44 5.59 13.6 8.663 12.863 9.503 22.833 21.526 29.403 35.458 2.316 4.911 2.44 5.656 2.421 14.687-.02 10.7-.833 15.227-3.067 17.107-2.81 2.364-4.688-.94-3.865-6.799.201-1.438.223-2.7.054-3.145-.63-1.654-7.125-4.022-16.56-6.036-2.165-.462-4.705-1.134-5.645-1.494-2.059-.788-4.021-2.333-4.021-3.165 0-1.015 1.796-2.725 3.814-3.63 3.547-1.593 6.92-2.153 13.946-2.318 3.52-.082 6.724-.218 7.12-.301 1.826-.384.073-1.816-3.45-2.818-5.11-1.454-20.992-4.068-28.385-4.673-2.428-.198-4.091-.513-5.12-.967-1.73-.764-3.605-2.431-3.605-3.204 0-2.782 12.655-6.923 24.564-8.038 2.33-.218 4.236-.52 4.236-.67 0-.545-5.699-6.174-9.377-9.26-7.018-5.888-14.587-11.122-24.223-16.75-10.014-5.85-14.08-8.781-14.08-10.153 0-.644.099-.654 4.3-.436 4.031.209 4.387.18 5.68-.477.759-.385 2.636-1.953 4.17-3.484 2.18-2.173 3.04-3.31 3.928-5.177 1.84-3.873 2.115-9.216.685-13.27-2.878-8.157-10.796-13.562-19.867-13.562-3.7 0-5.96.572-9.776 2.472-2.432 1.211-3.558 2.027-5.63 4.08-3.281 3.254-4.343 5.304-4.538 8.764-.373 6.592 3.253 12.287 8.768 13.772.724.195 1.695.652 2.158 1.016.7.551.842.92.842 2.2 0 .948-.177 1.684-.46 1.92-.565.468-5.347.956-9.493.967-1.69.005-3.944.1-5.008.211l-1.934.202-.207 2.118c-.798 8.14-1.637 12.937-2.58 14.762-.924 1.786-3.953 2.184-5.446.716-.942-.927-3.885-6.796-6.379-12.72-.814-1.936-1.767-3.763-2.117-4.06-.985-.835-3.845-1.323-5.362-.915-.697.188-1.346.545-1.442.793-.257.672.75 5.231 2.94 13.302 2.489 9.17 3.248 12.9 3.248 15.964 0 2.64-.506 3.876-1.587 3.876-1.423 0-5.572-4.264-16.658-17.12-7.69-8.919-10.668-11.872-12.273-12.173-.618-.116-2.18.016-3.566.303-1.355.28-2.537.51-2.625.51-.356 0 .457 2.226 4.584 12.555 4.18 10.46 4.938 12.953 4.486 14.754-.264 1.054-1.648 2.675-2.786 3.264-.881.455-.962.425-2.761-1.024-2.996-2.413-7.378-6.471-16.188-14.989-4.551-4.4-8.402-8.046-8.558-8.103-.55-.199-12.06 4.543-18.07 7.444-9.415 4.546-14.094 7.325-26.398 15.679-6.32 4.291-8.96 5.49-8.96 4.07 0-.974 2.372-4.34 4.988-7.078l2.457-2.572h-16.128l.207.72c.113.396.275.965.358 1.264.083.3-.006 1.128-.198 1.84-.305 1.132-.465 1.296-1.267 1.296-1.05 0-3.159-1.628-6.402-4.94-3.876-3.96-9.897-7.423-15.375-8.845-3.722-.966-8.085-.963-10.634.008-5.241 1.996-11.556 9.575-13.08 15.697-.727 2.925-.532 7.75.423 10.456 1.719 4.87 6.18 9.914 10.795 12.202l2.384 1.182 4.496-.027c5.068-.03 9.733-.734 11.795-1.779.737-.373 2.443-1.506 3.79-2.518 3.876-2.911 6.33-3.552 6.601-1.723.104.703-1.88 4.925-3.518 7.487-4.519 7.063-8.39 18.74-10.655 32.134-.73 4.325-1.674 12.621-2.236 19.675l-.214 2.689 1.547-1.108c9.262-6.64 13.635-9.288 20.567-12.457 5.103-2.333 13.347-5.45 16.8-6.35 3.592-.938 4.809-.882 5.963.273.515.514.936 1.17.936 1.455 0 1.427-1.982 3.579-8.223 8.929-8.155 6.991-23.298 24.022-30.39 34.18-1.682 2.41-3.747 5.235-4.588 6.279l-1.53 1.898.686.832c.376.458 1.83 1.834 3.231 3.057l2.546 2.225 6.1-5.975c6.138-6.012 12.96-11.937 18.888-16.407 8.197-6.181 10.719-7.309 12.757-5.706.586.462.843.965.843 1.654 0 1.07-2.142 5.31-4.658 9.224-4.46 6.938-9.41 15.577-14.506 25.32-2.381 4.552-2.573 5.049-2.051 5.325.316.168 4.461 1.991 9.211 4.052 4.75 2.061 9.034 4.03 9.52 4.376 1.197.853 1.413 1.938.7 3.52-.785 1.74-1.728 2.293-4 2.347-1.355.032-2.073.216-2.577.662-1.193 1.056-3.092 4.238-6.018 10.086-6.686 13.364-11.78 29.58-14.717 46.856-.82 4.82-1.947 14.292-1.74 14.625.084.138 2.716.25 5.847.25 6.571 0 7.479.205 8.315 1.875.996 1.99 1.067 2.828.373 4.396-1.388 3.138-9.312 9.265-12.976 10.033-1.511.317-1.753 1.21-1.758 6.494l-.005 4.718 5.743-.208c5.023-.182 5.926-.138 7.207.351 3.145 1.202 3.253 4.144.363 9.888-2.898 5.76-6.637 11.093-7.776 11.093-2.575 0 6.176 22.121 12.848 32.48 4.023 6.246 8.927 11.582 12.738 13.86 2.154 1.288 5.78 2.604 7.197 2.613 1.292.01 1.309-.26.24-3.833-1.202-4.013-1.044-8.32.304-8.32 1.002 0 5.154 6.86 6.562 10.841.929 2.628 1.698 3.902 4.947 8.2 6.284 8.309 15.13 17.169 21.147 21.176 6.736 4.488 13.425 6.586 22.45 7.041 4.631.234 6.966-.144 10.253-1.659 4.276-1.971 7.127-5.524 7.133-8.892.008-3.868-3.924-8.087-9.191-9.86-1.623-.546-2.927-.734-5.205-.748-3.357-.021-2.382-.389-9.7 3.661-1.022.566-1.93.957-2.017.87-.183-.182 2.561-6.091 9.395-20.23 7.033-14.552 9.667-21.21 11.33-28.642.644-2.877.75-4.206.74-9.278-.007-4.237-.161-6.648-.541-8.48-2.934-14.141-5.452-19.884-11.016-25.128-3.904-3.68-7.252-5.541-12.24-6.803-2.45-.62-3.61-.697-10.591-.703-8.237-.006-11.037.26-16.8 1.602-8.074 1.878-14.793 5.356-21.586 11.173-2.705 2.316-5.376 5.177-9.132 9.78-4.553 5.577-7.325 8.32-8.412 8.32-.832 0-.264-3.262 1.05-6.034 2.094-4.42 4.057-7.252 9.99-14.418l.711-.86-.504-4.944c-1.02-9.974-.635-27.98.816-38.225.15-1.056.219-2.01.154-2.121-.065-.11-.732-.153-1.482-.093-7.852.624-13.642.82-14.271.483-2.753-1.473 2.878-5.532 9.112-6.568 4.977-.828 11.782-1.196 41.874-2.268 27.987-.997 36.798-1.945 45.92-4.94 4.478-1.47 11.25-4.503 14.841-6.646 3.225-1.925 6.545-5.01 7.554-7.019 1.019-2.028 1.24-5.055.509-6.968-.698-1.829-3.306-4.269-5.944-5.562-4.422-2.168-12.53-3.495-19.013-3.11-9.027.534-18.616 1.836-22.804 3.097-7.245 2.181-15.917 3.805-23.783 4.455-9.452.78-20.2-.353-24.895-2.625-2.025-.98-5.012-3.882-5.964-5.793-1.14-2.285-1.134-4.928.013-7.231 1.343-2.695 4.058-4.03 5.723-2.812.53.388.592.84.533 3.954-.078 4.12.129 4.543 2.693 5.51l1.624.612 1.227-2.778c6.712-15.192 16.617-30.84 27.387-43.263 7.435-8.576 15.692-16.73 23.064-22.777 2.17-1.78 3.088-2.739 3.095-3.234.01-.742.985-8.22 1.844-14.143.818-5.645 1.628-9.21 3.526-15.52 3.874-12.88 7.884-21.196 13.406-27.803 2.988-3.576 9.03-9.401 11.801-11.379 3.606-2.573 9.806-4.943 17.642-6.746 13.919-3.202 30.272.84 46.08 11.388 9.261 6.18 14.618 11.341 24.432 23.54l3.632 4.513 2.608.213c3.558.29 10.704 1.342 15.728 2.314 3.519.682 4.309.945 5.12 1.71.528.497 1.464 1.01 2.08 1.138 2.086.436 7.453 2.431 10.053 3.738 3.464 1.741 5.952 3.465 7.962 5.52 1.533 1.565 4 5.17 3.71 5.418-.068.058-1.853-.536-3.965-1.322-8.619-3.205-20.416-6.434-28.8-7.882-19.963-3.45-38.142-3.553-57.44-.328-31.076 5.193-60.045 18.979-83.73 39.847-13.635 12.015-25.626 26.709-34.683 42.503-2.79 4.865-8.471 16.28-8.225 16.526.08.08 2.65.232 5.711.34 11.675.408 26.322-1.188 40.127-4.375 8.314-1.919 11.697-2.36 18.08-2.36 6.608 0 10.161.548 14.511 2.232 1.611.623 3.145 1.194 3.41 1.268.324.091 1.14-.901 2.512-3.057 8.47-13.3 22.067-27.21 35.247-36.056 18.2-12.213 38.653-19.265 60.198-20.757 3.864-.267 4.443-.106 4.44 1.239-.002 1.406-2.792 15.154-3.28 16.167-.366.756-.806.903-5.518 1.844-16.147 3.225-27.595 7.798-39.68 15.85-6.902 4.6-11.266 8.159-16.804 13.705-12.807 12.826-21.502 27.01-27.364 44.638-6.8 20.451-7.795 42.033-2.922 63.374 4.952 21.686 17.5 43.282 33.577 57.79 8.446 7.622 18.853 14.46 28.636 18.817 24.666 10.983 54.115 11.634 78.957 1.744 19.72-7.85 35.274-20.097 48.628-38.285l1.576-2.146h4.69c2.58 0 5.802.094 7.16.209 2.427.205 2.468.223 2.274.996-.5 1.992-7.474 12.535-12.15 18.369-5.13 6.398-13.725 14.824-20.818 20.408-3.56 2.803-11.764 8.18-16.16 10.593-13.811 7.582-27.918 12.18-43.68 14.238-6.18.808-22.491.835-28.16.047-9.931-1.379-20.02-3.81-27.606-6.652-9.258-3.468-16.479-7.127-24.234-12.278-9.05-6.012-13.372-9.577-20.689-17.064-17.02-17.419-28.126-37.421-34.03-61.295-3.107-12.567-4.511-27.195-3.705-38.611.439-6.21 1.949-17.15 3.218-23.316.494-2.4.853-4.413.798-4.472-.056-.06-1.372.393-2.926 1.006-3.082 1.215-6.33 2.207-9.045 2.764-1.629.334-18.112 1.968-24.5 2.429-1.585.114-3.889.406-5.12.648-2.977.585-9.894.99-24.8 1.448-6.777.208-12.448.494-12.603.635-.434.392-1.389 8.562-1.822 15.59-.375 6.101-.242 19.863.219 22.533l.204 1.185 1.801-1.213c8.04-5.418 20.116-9.32 31.87-10.3 7.292-.607 13.546.37 20.465 3.196 9.062 3.702 12.189 6.81 17.104 16.995 3.817 7.91 5.58 13.442 6.61 20.727.797 5.652.524 14.39-.619 19.797-1.64 7.752-4.945 16.43-11.241 29.511-2.978 6.187-3.11 6.546-2.543 6.96.328.24 1.354.437 2.28.437 8.855 0 16.082 7.845 16.109 17.486.02 7.144-5.438 12.837-14.517 15.143l-2.207.56 3.218 2.437c6.48 4.908 15.04 10.092 24.391 14.774 10.318 5.165 20.267 8.969 30.56 11.682 8.969 2.364 11.822 2.973 19.42 4.146 8.167 1.26 11.802 1.585 20.42 1.825 21.713.603 43.77-3.106 63.958-10.754 28.366-10.748 53.145-28.788 72.187-52.555 17.442-21.77 29.646-48.822 34.404-76.264 5.33-30.738 2.045-62.041-9.566-91.145-11.457-28.715-30.68-53.742-55.691-72.503-2.37-1.778-4.386-3.223-4.48-3.212-.094.01-.892 1.026-1.772 2.257-.88 1.23-2.979 3.562-4.664 5.18-4.807 4.617-8.1 6.274-12.502 6.292-5.896.026-11.677-3.558-15.689-9.725-1.858-2.857-2.215-4.425-2.207-9.694.008-5.114.43-8.43 1.256-9.845.812-1.393 3.116-3.045 4.248-3.045.796 0 1.033.195 1.454 1.2.425 1.013.469 2.076.28 6.823-.25 6.271.034 8.748 1.285 11.217 1.037 2.046 2.718 3.611 5.181 4.824 2.717 1.337 4.877 1.52 6.873.582 3.138-1.474 8.758-7.03 11.19-11.063 1.63-2.7 2.27-4.75 2.292-7.343.042-4.887-2.894-7.774-13.039-12.82-8.309-4.132-18.967-7.976-29.638-10.688-5.96-1.515-8.746-2.691-8.9-3.759-.138-.965 1.497-1.37 5.54-1.37 4.017 0 8.072.608 13.6 2.037 10.891 2.814 22.896 7.8 29.628 12.305 7.02 4.697 10.473 10.785 9.499 16.743-.183 1.117-.313 2.043-.29 2.056.875.495 8.443 6.322 11.243 8.657 13.561 11.303 24.366 23.478 34.526 38.903 15.201 23.077 24.466 47.122 28.333 73.536 2.256 15.406 2.256 34.194 0 49.6-5.518 37.686-22.755 72.238-49.419 99.061-13.422 13.503-28.251 24.283-45.28 32.916-20.706 10.498-42.973 16.713-66.24 18.488-6.525.497-21.034.484-27.04-.025-15.93-1.35-33.325-5.265-47.52-10.695-18.902-7.23-33.845-15.823-49.65-28.553-2.435-1.96-2.471-1.976-5.44-2.38-5.959-.808-9.945-2.357-15.47-6.01-9.37-6.197-18.08-14.523-25.188-24.075-1.635-2.197-3.422-4.252-3.973-4.568-.551-.315-2.685-.923-4.741-1.35-6.585-1.365-10.128-3.648-19.273-12.417-3.022-2.898-5.994-5.578-6.604-5.955-.61-.377-2.24-.971-3.625-1.321-6.935-1.753-18.971-7.749-27.052-13.477-26.143-18.531-48.934-52.397-55.857-83-.821-3.627-.869-4.282-.863-11.84.007-8.944.393-12.089 2.14-17.402 1.903-5.796 5.84-10.347 11.264-13.025 3.909-1.929 6.67-2.475 11.533-2.28 4.441.178 7.524 1.024 11.206 3.076 7.684 4.282 10.293 10.894 15.029 38.084 3.2 18.374 5.503 27.517 9.496 37.705 2.9 7.397 9.955 21.203 10.836 21.203.403 0 .399-1.144-.009-2.562-1.105-3.846-2.059-20.733-1.815-32.158.396-18.586 2.998-34.528 8.278-50.72 3.031-9.296 5.975-16.113 11.497-26.63 1.915-3.646 3.482-6.705 3.482-6.797 0-.091-1.188-.763-2.64-1.493-10.09-5.07-18.88-11.278-25.998-18.36-5.898-5.87-7.134-8.07-7.822-13.92-2.692-22.9.725-57.948 7.466-76.57.616-1.701 1.017-3.157.89-3.235-.126-.078-1.45.217-2.943.657-4.864 1.432-10.688.96-15.73-1.272-6.674-2.956-12.397-9.76-14.417-17.137-1.005-3.67-.99-11.308.028-15.068.403-1.488.862-2.947 1.02-3.244.27-.503-2.04-.55-34.983-.699-23.54-.106-35.963-.276-37.351-.512-13.626-2.315-23.385-6.419-33.377-14.036-13.39-10.209-23.265-26.077-26.978-43.35-.745-3.465-.864-4.868-1-11.774-.092-4.698-.004-9.61.221-12.254.653-7.675 2.83-15.077 6.889-23.426 8.015-16.488 21.431-28.903 38.403-35.54 4.091-1.6 11.001-3.45 15.103-4.043l2.621-.38.195-2.098c1.33-14.298 5.165-25.782 12.193-36.522 9.537-14.572 24.614-25.517 41.192-29.9 9.313-2.464 22.388-2.718 32.717-.636 9.334 1.882 19.617 6.743 27.981 13.23 5.327 4.131 11.408 10.488 14.948 15.627l1.567 2.275 2.363-1.095c9.546-4.421 16.791-6.1 27.682-6.416 9.681-.28 16.202.644 24.431 3.46 4.573 1.565 11.707 5.026 15.569 7.553 10.612 6.945 19.523 16.91 25.21 28.193l1.99 3.948.075-2.348c.041-1.291.295-13.148.564-26.348 1.148-56.363 2.257-99.903 2.597-101.945.187-1.126.248-1.167 3.437-2.317 1.786-.644 14.335-4.612 27.887-8.818 64.051-19.878 83.921-25.96 84.804-25.96 1.58 0 20.98 2.512 22.876 2.96l1.76.416v4.152c0 2.284-.13 7.86-.286 12.392-.157 4.532-.208 8.24-.113 8.24.265 0 13.353-4.543 27.92-9.691 19.329-6.831 25.596-8.763 30.372-9.36.98-.122 1.712-.334 1.627-.47-.084-.137-2.062-1.55-4.396-3.143-6.902-4.708-12.482-9.39-19.314-16.203-12.251-12.218-19.725-22.439-27.035-36.973-10.686-21.245-16.596-45.177-16.611-67.261 0-2.234-.134-4.142-.295-4.242-.479-.296-6.988-.74-30.748-2.095a33549.677 33549.677 0 0 1-74.72-4.325c-33.892-1.986-48.01-2.823-64.8-3.843-4.312-.262-10.432-.624-13.6-.804-3.168-.18-7.865-.556-10.439-.837l-4.678-.511-.2-1.91c-.365-3.486-.544-17.677-1.18-93.372-.347-41.272-.774-85.408-.95-98.08-.174-12.672-.412-39.04-.528-58.595l-.21-35.554 2.852-.208c1.568-.114 8.108-.57 14.532-1.014 6.424-.444 13.264-.92 15.2-1.058l3.52-.25 7.2 2.152c11.892 3.555 113.608 33.874 149.12 44.45 32.3 9.618 47.087 13.98 49.835 14.703.805.212 1.518.643 1.76 1.065.314.55.428 6.02.51 24.389.106 24.155-.418 95.3-.799 108.313l-.21 7.194 1.722-1.434c.947-.788 3.383-2.93 5.412-4.759 21.29-19.188 44.388-30.661 73.45-36.483 12.22-2.447 19.262-3.026 34.24-2.811 14.117.202 21.487.87 32.8 2.974 18.797 3.496 35.583 9.354 59.68 20.828 14.824 7.058 18.95 9.559 19.49 11.812.328 1.37 4.994 16.014 10.05 31.541l4.446 13.655-1.95 19.242c-1.83 18.074-1.985 19.233-2.542 19.088-.56-.147-.562-.122-.052.442.61.675.4 1.278-.445 1.278-.311 0-3.433-1.89-6.939-4.198-20.874-13.751-35.254-20.646-51.667-24.775-17.966-4.52-36.566-4.803-52.431-.797-8.498 2.145-17.238 5.877-24.286 10.368-10.707 6.823-20.646 16.916-26.738 27.154-9.671 16.25-13.89 36.745-11.711 56.888 1.677 15.504 7.957 30.55 17.498 41.92 8.998 10.722 19.995 18.613 33.393 23.961 10.083 4.025 13.173 4.481 23.004 3.396 16.29-1.798 35.548-6.868 50.96-13.416l1.2-.51.003-4.555c.006-9.916.838-19.227 2.243-25.097 8.076-33.759 31.492-60.214 63.514-71.759l3.2-1.153.09-1.594c.445-7.824 5.573-120.965 5.722-126.233l.194-6.88-6.843-2.048c-9.089-2.72-23.047-6.865-57.723-17.144-36.71-10.882-36.575-10.838-36.848-11.925-.38-1.513.352-26.193 1.165-39.283.355-5.716.37-5.74 3.91-6.041 5.674-.484 88.707-1.462 206.173-2.43 21.472-.176 42.104-.386 45.849-.466l6.81-.145 41.35 23.62c47.867 27.342 48.496 27.71 48.95 28.707.241.53.226 3.18-.053 9.151-.51 10.897-1.745 29.909-1.957 30.121-.09.091-10.674.035-23.517-.125-12.844-.16-33.016-.296-44.828-.302l-21.475-.01-.175 1.52c-.096.836-.58 8.133-1.075 16.216-.716 11.683-.818 14.725-.496 14.832.223.074 2.739 1.687 5.591 3.585 10.97 7.299 21.116 17.195 27.895 27.207 1.013 1.496 1.884 2.766 1.936 2.823.051.056 2.015-.787 4.364-1.875 5.59-2.587 8.197-3.61 12.534-4.919 8.729-2.632 15.323-3.645 25.497-3.917 13.12-.351 21.676.832 32.822 4.537 14.173 4.711 26.653 12.36 37.534 23.007 10.458 10.233 17.951 21.378 23.25 34.584.848 2.112 1.64 3.955 1.76 4.096.12.14 2.219-.18 4.665-.713 12.136-2.641 21.845-3.162 33.066-1.773 36.215 4.484 66.114 27.982 79.79 62.71 2.682 6.81 4.502 13.393 5.884 21.28.834 4.759.842 24.51.012 31.235-2.622 21.265-14.607 43.994-31.264 59.293-13.996 12.856-26.955 19.568-47.36 24.53l-4.96 1.207-105.28.294c-67.636.19-131.94.181-179.84-.024-71.993-.307-74.692-.34-78.4-.952-21.452-3.54-39.272-12.599-54.248-27.575-5.534-5.533-9.907-11.013-14.26-17.867-.035-.055-1.987.409-4.338 1.03-10.668 2.818-23.335 4.7-53.074 7.888-8.086.866-21.116 1.118-34.24.66-11.05-.385-13.984-.683-25.527-2.593-9.62-1.592-9.35-1.585-9.36-.246-.004.572-.139 2.768-.3 4.88-.16 2.112-.531 7.944-.823 12.96-.291 5.016-.564 9.156-.606 9.2-.042.043-7.408 3.445-16.37 7.558-17.815 8.177-26.145 12.044-26.34 12.228-.27.255.903 1.253 7.545 6.423 8.636 6.723 12.35 9.822 17.292 14.432l3.91 3.647 46.978-22.272 46.978-22.272 10.072 1.134c10.931 1.231 22.076 2.63 23.204 2.914 1.3.326 1.43 1.258 1.097 7.881-.635 12.598-2.165 35.308-7.186 106.647-4.856 69.015-5.284 75.275-5.284 77.422v1.694l1.2.2c2.458.41 39.165 5.706 53.63 7.738 8.246 1.158 15.347 2.24 15.782 2.406.434.165.853.3.93.3.076 0 .138-1.404.139-3.12 0-1.716.286-10.32.636-19.12.35-8.8 1.14-29.464 1.757-45.92 1.73-46.185 2.117-54.209 2.705-56.233.487-1.675 2.561-3.494 5.141-4.507 3.695-1.452 20.427-6.903 47.68-15.535l24.8-7.854 16.64.779c9.152.428 17.491.781 18.531.784l1.89.006-.214 6.96c-.238 7.719-.68 18.358-3.256 78.48-4.889 114.12-6.707 151.448-7.53 154.6-.227.867-3.69 5.008-13.647 16.32-30.773 34.965-29.38 33.334-28.71 33.609.339.138 8.104 1.343 17.256 2.677 17.357 2.53 23.822 3.55 24.072 3.8.081.08-.076 7.448-.35 16.372-.394 12.836-.59 16.333-.942 16.744-.245.285-9.07 10.168-19.612 21.963-23.37 26.146-24.94 27.955-24.575 28.3.364.346 23.603 4.495 25.172 4.495.4 0 .5-2.168.699-14.96.127-8.228.327-15.051.444-15.164.117-.112 20.228-14.93 44.692-32.929a63861.305 63861.305 0 0 0 48.023-35.352l3.543-2.626 58.857 9.2c62.523 9.772 75.724 11.857 80.245 12.676l2.829.512-.187 3.242c-.102 1.783-.344 9.721-.537 17.641l-.35 14.4-1.816 1.76c-.999.968-7.502 7.223-14.451 13.9-24.847 23.87-44.555 43.088-44.374 43.269.192.191 13.272 2.737 34.078 6.632 11.671 2.185 21.263 4.024 21.314 4.086.052.062-.124 7.89-.39 17.393l-.485 17.28-1.31 1.456c-.72.8-7 7.713-13.955 15.36-15.984 17.573-35.804 39.498-36.96 40.884-.508.609-.762 1.175-.598 1.333.301.29 10.487 2.564 40.37 9.013l18.325 3.954-.162.8c-.498 2.475-.809 10.442-.809 20.77v11.716l-19.72 24.957c-56.038 70.923-61.188 77.229-64.251 78.682-1.577.749-3.27.598-5.629-.501zm3.028-9.303c.115-1.804.165-7.951.11-13.66L956 1157l-3.36-.855-31.36-7.964c-79.695-20.234-78.602-19.947-79.434-20.89-.509-.576-.513-.705-.054-1.593.684-1.323.776-5.214 1.061-44.898.136-18.87.367-33.582.533-33.977.162-.383.856-1.078 1.543-1.543 1.097-.744 1.446-.82 2.88-.632 3.978.523 18.446 3.672 53.791 11.71a7079.68 7079.68 0 0 0 34.08 7.665c7.128 1.574 13.198 2.916 13.488 2.981.757.171.854-1.198 1.1-15.528l.213-12.364-2.86-.671c-1.573-.37-14.01-3.127-27.64-6.128-48.479-10.674-65.838-14.55-72.621-16.217-1.144-.281-2.625-.784-3.292-1.116l-1.212-.605.092-39.908c.098-42.584.036-40.99 1.631-41.682a8.157 8.157 0 0 0 1.243-.691c1.021-.731 9.135.66 53.538 9.183 38.597 7.408 55.803 10.547 56.115 10.235.091-.091.23-6.627.307-14.525l.14-14.358-.92-.186c-.508-.102-6.826-1.267-14.042-2.588-57.168-10.464-73.357-13.422-92-16.81-36.622-6.658-36.376-6.616-36.682-6.31-.454.454-.503 39.4-.154 122.305.434 103.233.649 127.541 1.129 127.683 2.328.687 68.569 18.37 98.747 26.36 38.334 10.148 42.341 11.191 43.09 11.215.648.021.7-.169.898-3.258zm21.374-20.72c27.02-34.08 43.3-54.832 53.39-68.062l5.66-7.421.234-4.7c.13-2.583.109-6.994-.046-9.801l-.28-5.103-11.2 13.691c-56.727 69.345-60.36 73.877-62.152 77.522l-.848 1.726-.115 10.754-.115 10.754.822-.96c.452-.528 7.044-8.808 14.65-18.4zm-17.3-11.6c5.81-6.446 20.399-24.041 46.365-55.92 21.927-26.92 27.789-34.405 27.298-34.865-.157-.147-1.005-.42-1.885-.609-.88-.188-7.432-1.647-14.56-3.242-18.475-4.135-36.284-8.004-36.843-8.004-.564 0-4.543 4.046-11.802 12-11.447 12.544-14.522 15.52-16.034 15.52-.538 0-9.065-1.793-18.95-3.984-9.884-2.19-19.309-4.236-20.944-4.544l-2.973-.561-8.336 8.304c-18.803 18.733-50.086 50.924-49.782 51.227.363.364 12.798 3.652 45.184 11.949 30.27 7.754 59.114 15.042 60.68 15.332.111.02 1.272-1.151 2.581-2.603zm-308.43-20.48c.112-.924.219-13.776.239-28.56.02-14.784.136-37.464.259-50.4.237-24.992.238-25.011 1.759-25.47.369-.112.996-.5 1.393-.864.686-.629.86-.642 3.552-.284 4.066.541 18.881 3.277 42.766 7.898 26.268 5.082 44.29 8.48 44.97 8.48.466 0 .553-.743.74-6.292.28-8.361.267-18.988-.022-18.988-.674 0-59.477-11.175-75.128-14.278-13.015-2.58-15.547-3.153-17.68-4.005l-1.68-.671v-68.761l1.804-.827c2.975-1.362 2.209-1.466 54.516 7.428 20.152 3.426 37.36 6.267 38.24 6.312l1.6.082.213-2.56c.29-3.498.477-22.774.222-23.03-.355-.358-35.695-6.347-92.595-15.69l-21.504-3.534c-5.844-.96-10.704-1.746-10.8-1.746-.097 0-.176 52.097-.176 115.772v115.771l12.88 2.819c7.084 1.55 13.024 2.865 13.2 2.923.847.277 1.046.032 1.233-1.525zm12.923-11.52c30.513-37.17 61.052-75.06 60.746-75.366-.296-.296-24.964-5.229-48.981-9.794-13.521-2.57-17.676-3.27-17.927-3.02-.297.297-.9 87.41-.638 91.97.126 2.184.274 3.97.33 3.97.054 0 2.966-3.492 6.47-7.76zm189.966-4.313c3.014-3.12 12.996-13.416 22.184-22.88 16.152-16.634 25.375-26.37 25.375-26.787 0-.271-5.597-1.637-24.48-5.973-8.8-2.02-18.791-4.33-22.202-5.13-4.445-1.045-6.267-1.354-6.43-1.092-.29.471-.648 17.598-.648 31.055 0 12.893.37 36.48.573 36.48.082 0 2.615-2.553 5.628-5.673zm107.582-55.769c8.932-9.717 22.368-24.523 47.284-52.104l22.933-25.387v-7.924c0-4.359.09-9.279.2-10.934l.2-3.009-1.513 1.44c-2.128 2.024-25.835 26.976-52.083 54.817l-22.265 23.618-.196 1.822c-.662 6.189-1.083 24.222-.56 24.01.145-.06 2.845-2.916 6-6.349zm-778.234-17.717c.191-.5-2.82-8.032-4.75-11.881-1.791-3.57-3.22-5.726-5.14-7.757-2.568-2.715-2.77-2.776-8.206-2.452-9.576.57-11.664 0-11.612-3.152.032-1.879.948-4.145 3.754-9.28 1.323-2.422 2.405-4.582 2.405-4.8 0-.22-.838-2.415-1.863-4.879l-1.862-4.48-8.137-.16c-7.064-.139-8.279-.237-9.203-.741-1.291-.705-2.108-2.448-1.834-3.913.408-2.175 5.445-7.694 9.78-10.719 1.185-.826 2.194-1.799 2.362-2.276.202-.574.104-1.853-.315-4.117l-.608-3.284-2.56 2.328c-7.711 7.011-10.89 8.285-21.36 8.558-3.476.091-6.32.203-6.32.248 0 .17 4.132 7.458 5.435 9.588 8.69 14.197 22.63 30.546 33.312 39.07 4.381 3.495 13.777 9.18 20.933 12.665 3.824 1.862 5.468 2.27 5.789 1.433zm579.11-16.681c3.89-4.928 15.178-19.218 25.086-31.757l18.015-22.796v-9.284c0-5.105-.108-9.275-.24-9.265-.132.01-.96.898-1.84 1.973l-25.808 31.535-24.209 29.58-.185 4.527c-.101 2.49-.262 7.407-.356 10.927l-.172 6.4 1.32-1.44c.726-.792 4.501-5.472 8.39-10.4zm197.36 2.481c8.094-8.153 18.679-19.253 41.428-43.442 21.163-22.503 27.54-29.55 27.112-29.954-.2-.189-37.968-7.353-48.142-9.132l-3.103-.543-3.116 2.855c-1.713 1.57-5.37 5.025-8.127 7.678-2.756 2.653-5.54 5.15-6.187 5.55l-1.175.726-3.915-.662c-2.153-.364-10.754-1.98-19.114-3.59-8.36-1.612-15.788-2.947-16.506-2.968-1.292-.039-1.52.155-21.112 17.881-26.921 24.358-42.506 38.407-44.706 40.301-1.01.87-1.836 1.673-1.836 1.785 0 .265-2.652-.334 43.36 9.792 54.312 11.951 55.613 12.235 56.16 12.261.264.012 4.304-3.83 8.979-8.538zm-206.984-21.006c4.535-5.351 22.318-26.909 39.883-48.349l12.842-15.674-.004-5.766c-.003-3.171-.082-6.056-.177-6.41-.158-.585-1.531-.869-15.198-3.142l-15.026-2.499-.936.743c-.515.408-3.5 3.55-6.634 6.982-8.13 8.903-14.833 15.67-15.751 15.9-.443.111-9.489-1.262-20.596-3.127l-19.806-3.325-5.984 6.076c-3.292 3.342-12.677 13.056-20.856 21.586-8.18 8.531-17.066 17.709-19.749 20.395-4.273 4.279-4.788 4.904-4.16 5.047.395.09 2.95.528 5.677.976 8.532 1.399 32.164 5.759 57.12 10.538 13.2 2.528 24.358 4.573 24.795 4.545.6-.039 1.718-1.142 4.56-4.496zm125.29-24.48c16.497-14.94 30.56-27.751 31.25-28.469.893-.93 1.123-1.346.8-1.448-.25-.078-3.263-.666-6.695-1.306-7.963-1.484-54.004-10.381-54.96-10.62l-.72-.181v34.594c0 19.027.074 34.595.164 34.595.091 0 13.663-12.224 30.16-27.165zm-214.426.845c14.32-14.569 40.219-41.829 39.974-42.073-.558-.558-40.303-7.396-43.82-7.54l-1.653-.067-.278 14.72c-.227 12.01-.035 40.48.273 40.48.043 0 2.52-2.484 5.504-5.52zm342.98-75.118 30.72-29.537.205-4.033c.509-10.077.671-19.63.33-19.512-.624.217-7.16 6.12-42.054 37.979l-34.48 31.481v27.216l7.28-7.028a47046.18 47046.18 0 0 1 38-36.566zm-229.404 4.957c10.227-11.44 23.78-26.618 30.116-33.73l11.522-12.93.233-9.893c.129-5.44.184-9.94.124-9.996-.175-.165-58.503 62.003-63.014 67.163l-1.096 1.254-.216 7.706c-.119 4.239-.285 9.507-.37 11.706l-.153 4 2.13-2.241c1.17-1.232 10.497-11.6 20.724-23.04zm181.926 5.65c.945-.854 4.815-4.34 8.599-7.747 29.255-26.341 66.336-60.782 65.909-61.217-.667-.678-125.437-20.045-129.142-20.045-.784 0-8.183 5.213-33.087 23.312-30.37 22.07-55.854 40.94-55.614 41.18.139.14 21.21 4.067 71.934 13.407 19.624 3.614 43.024 7.925 52 9.581 8.976 1.656 16.626 3.026 17 3.045.399.02 1.396-.61 2.4-1.517zM753.373 905.04c1.336-1.188 4.566-4.392 7.178-7.12 12.634-13.198 52.01-55.541 55.266-59.43l.861-1.028-.739-.178c-1.178-.283-35.174-5.284-35.919-5.284-.873 0-4.382 3.587-12.678 12.96-7.741 8.747-10.229 11.268-11.417 11.57-.487.125-5.493-.228-11.125-.782a4481.237 4481.237 0 0 0-21.568-2.058l-11.328-1.05.206-7.04c.113-3.872.301-10.718.417-15.214l.211-8.174-3.654-.546c-2.01-.3-3.974-.546-4.364-.546-.663 0-15.9 13.045-49.68 42.53-21.441 18.716-26.347 23.19-25.71 23.452.965.398 48.831 8.467 93.39 15.744a47436.13 47436.13 0 0 1 22.4 3.662c5.8.953 5.461 1.013 8.253-1.468zm-.733-54.88c0-.22.142-2.992.316-6.16.591-10.8 6.59-162.034 9.918-250.08.356-9.416.807-19.252 1.002-21.858.195-2.606.275-4.818.178-4.915-.343-.342-35.27-2.31-35.522-2.001-.128.156-.683 14.21-3.732 94.534-2.65 69.84-5.537 148.22-6.238 169.44-.277 8.36-.617 15.863-.757 16.673l-.254 1.473 3.384.373c2.962.327 23.267 2.372 26.745 2.695 3.108.288 4.96.223 4.96-.174zm37.13-39.33c16.803-19.034 30.793-34.982 31.091-35.44 1.217-1.87 1.35-4.432 7.285-140.03 1.58-36.08 3.018-69.488 3.198-74.24.18-4.752.406-10.476.503-12.72.15-3.448.104-4.08-.292-4.08-.853 0-19.296 6.476-52.675 18.496l-8.8 3.168-.235 1.408c-.226 1.35-1.038 21.188-4.884 119.328-1.7 43.372-4.932 128.28-5.597 147.04-.18 5.104-.401 9.82-.49 10.48-.089.66-.047 1.2.093 1.2s14.002-15.574 30.804-34.61zm-508.81 13.31c19.555-14.098 44.55-24.648 68.96-29.105 11.278-2.06 20.88-2.82 33.653-2.667 6.187.074 9.252.004 9.093-.208-3.524-4.692-10.69-12.984-13.997-16.198-8.898-8.644-22.04-16.4-33.045-19.502-4.262-1.201-4.315-1.2-3.535.124 1.872 3.172.389 9.653-3.126 13.656-.695.792-1.43 1.754-1.634 2.139-.99 1.874.102 3.379 3.483 4.799 2.76 1.16 5.051 1.117 10.228-.186 4.703-1.185 7.68-1.584 7.68-1.031 0 .666-1.48 2.735-2.823 3.95-3.555 3.211-9.628 4.57-14.63 3.275-1.049-.272-2.868-1.064-4.043-1.76-1.175-.696-2.203-1.266-2.285-1.266-.081 0-.876 1.49-1.766 3.311-1.274 2.61-1.994 3.656-3.396 4.937-4.064 3.715-9.41 4.639-12.517 2.163-1.193-.952-.863-1.373 2.019-2.576 6.213-2.594 7.815-3.804 9.51-7.182 1.466-2.92 1.654-3.97.855-4.77-.822-.821-1.91-.939-10.604-1.145-8.62-.204-10.53-.554-14.938-2.732-3.512-1.735-4.573-2.726-4.597-4.29-.015-.963-.121-.886-3.237 2.364-6.838 7.13-11.491 16.206-15.75 30.72-2.088 7.113-2.767 10.62-4.027 20.79-.832 6.717-.86 6.326.389 5.374a292.46 292.46 0 0 1 4.08-2.984zm364.284-.06c.523-1.758 1.79-18.565 1.793-23.815l.003-3.414-.88-.184c-1.875-.393-19.17-3.279-50.96-8.504-29.772-4.894-54.644-9.12-58.56-9.95-.792-.167-2.7-.685-4.24-1.15l-2.8-.844v-1.175c0-1.324 1.946-36.242 4.798-86.084 2.927-51.158 6.308-111.39 7.033-125.28.358-6.864.772-13.848.919-15.52.147-1.672.228-3.09.18-3.152-.235-.302-28.706-3.889-30.867-3.888h-1.137l-.869 15.92c-2.219 40.686-6.658 125.384-11.87 226.48-.426 8.272-.864 15.328-.973 15.68-.19.612.7.79 20.534 4.11a380187.59 380187.59 0 0 0 127.51 21.292c.12.02.294-.214.386-.522zm11.602-10.8c12.018-13.789 45.769-53.026 55.189-64.16 1.861-2.2 3.472-4.36 3.58-4.8.299-1.228.935-17.318.693-17.553-.117-.114-.738.386-1.38 1.111-.643.725-7.508 8.213-15.258 16.64-23.202 25.23-44.534 48.792-45.475 50.227-.67 1.022-1.013 3.447-1.712 12.12-.69 8.57-.808 12.327-.371 11.839.15-.167 2.28-2.608 4.734-5.424zm-4.036-26.24c6.606-7.026 22.01-23.8 37.905-41.28 23.944-26.329 25.423-28.009 25.764-29.277.606-2.252 1.36-23.363.834-23.363-.07 0-2.266-.354-4.88-.787-20.631-3.419-63.754-9.453-67.551-9.453h-1.732l-5.655 4.873a33920.27 33920.27 0 0 0-31.895 27.595c-26.805 23.211-56.74 48.944-63.75 54.8l-3.91 3.267 1.03.177c.566.097 4.054.613 7.75 1.147 10.88 1.57 67.304 10.56 96.96 15.447 2.64.435 4.962.769 5.16.742.197-.026 1.984-1.776 3.97-3.888zm-108.477-26.1c4.129-3.618 21.69-18.874 39.027-33.902 47.115-40.843 54.617-47.506 56.157-49.879.713-1.099.812-1.95 1.9-16.359 4.13-54.673 11.97-169.119 11.61-169.479-.474-.475-102.52 51.573-104.131 53.112-.406.388-.818 6.846-4.73 74.287-3.55 61.22-8.486 148.035-8.486 149.28 0 .51.249.307 8.653-7.06zm-404.242-32.248c3.56-3.605 6.22-5.312 10.517-6.75 3.846-1.289 6.276-1.493 10.032-.843 7.964 1.376 14.46 4.46 18.869 8.957l1.75 1.784h27.352l3.134-2.034c19.56-12.69 44.812-21.7 74.495-26.578 10.21-1.678 17.16-2.319 29.473-2.715 4.595-.148 8.592-.403 8.884-.566.467-.261.372-.558-.814-2.522-2.1-3.479-2.576-5.004-2.589-8.305-.026-6.69 2.98-12.606 8.754-17.226 7.247-5.798 16.687-7.885 25.484-5.636 1.337.342 3.188.969 4.113 1.392 5.333 2.442 12.222 9.077 14.485 13.95l.817 1.76.592-1.92c.965-3.127 1.517-7.614 1.733-14.08l.203-6.08-1.248-.431c-3.032-1.049-10.811-5.192-15.115-8.05-4.883-3.245-12.265-9.221-13.9-11.255a5.076 5.076 0 0 1-1.112-2.658c-.135-1.194-.267-1.443-.684-1.287-.284.107-5.412 2.769-11.396 5.915-5.984 3.146-12.104 6.26-13.6 6.917l-2.72 1.198-4.475-.558c-5.15-.642-16.278-2.478-19.61-3.236l-2.268-.516-.23-2.14c-.127-1.176-.06-12.001.147-24.055.308-17.826.301-21.942-.033-22.052-1.04-.342-2.453-2.325-3.444-4.832-7.495-18.982-22.674-33.493-41.479-39.654-7.202-2.36-9.982-2.747-19.648-2.74-9.06.006-10.703.193-17.254 1.953-3.696.994-6.494 2.093-12.264 4.82-2.462 1.164-4.562 1.977-4.703 1.822-.14-.155-1.306-1.865-2.59-3.801-3.177-4.789-5.337-7.373-9.627-11.521-10.766-10.41-23.423-16.563-37.15-18.06-3.915-.427-12.317-.434-16.092-.013-13.76 1.536-27.477 8.321-37.767 18.682-7.567 7.62-12.775 16.085-16.28 26.461-2.192 6.49-3.261 12.475-3.897 21.81l-.212 3.12h-1.859c-2.802 0-6.373.574-11.344 1.821-21.198 5.32-38.063 20.581-45.951 41.58-3.052 8.125-3.877 13.445-3.889 25.08-.007 6.497.088 7.993.696 11.004 3.838 19.008 13.992 34.486 29.242 44.574 8.562 5.665 19.62 9.576 29.181 10.321 1.76.137 18.721.27 37.691.295l34.491.046 3.11-3.148zm272.136-67.925c5.448-.583 11.6-2.89 16.401-6.148 2.708-1.838 6.988-6.023 9.212-9.006 3.619-4.855 6.772-12.417 7.56-18.129.58-4.204.774-11.778.396-15.484-.81-7.964-4.352-17.611-9.214-25.102-5.882-9.063-14.195-16.896-34.822-32.811-17.444-13.46-24.671-21.394-27.308-29.982-3.211-10.458-1.786-17.751 4.742-24.265 3.875-3.866 7.93-6.079 12.44-6.787 3.014-.473 16.534-.103 19.328.529 5.25 1.188 13.377 4.861 18.97 8.575 3.885 2.58 6.698 4.822 10.76 8.58l3.094 2.861.186-2.319c.24-3 .828-16.32.828-18.79v-1.904l-2.48-1.835c-11.245-8.322-21.597-12.842-33.71-14.719-4.343-.673-14.636-.75-18.812-.14-6.372.93-12.868 3.22-17.158 6.052-2.713 1.79-7.969 6.809-10.113 9.657-3.075 4.083-5.284 9.283-6.764 15.917-.955 4.283-1.036 15.415-.143 19.603 2.11 9.9 6.783 18.325 15.073 27.178 5.938 6.341 11.11 10.937 29.467 26.18 4.224 3.508 9.14 7.768 10.924 9.468 9.098 8.667 14.495 17.53 16.12 26.468.526 2.899.444 8.7-.157 11.026-1.17 4.524-3.797 8.364-7.813 11.414-2.986 2.269-8.618 4.95-11.384 5.418-2.86.485-11.411.197-15.53-.523-12.75-2.229-25.551-10.404-37.194-23.753-1.422-1.63-2.624-2.925-2.671-2.878-.047.048-.242 4.19-.433 9.204-.19 5.015-.397 10.176-.458 11.47l-.112 2.35 2.914 2.427c18.363 15.296 38.386 22.285 57.861 20.198zm-97.21-18.607c.374-6.178 2.398-81.697 4.349-162.285.183-7.55.41-13.85.503-14.003.256-.413-.178-.507-6.269-1.357-7.34-1.025-12.759-1.623-12.951-1.43-.331.33-2.24 77.564-4.012 162.355-.184 8.8-.406 16.233-.494 16.517-.126.412.249.599 1.85.92 3.434.692 14.755 2.506 15.816 2.535l1.01.028zm19.703-5.591c5.72-3.072 10.572-5.752 10.783-5.957.507-.493 1.056-8.988 1.059-16.367.003-6.409.343-9.305 1.192-10.115.794-.759 6.216-3.653 21.206-11.32 14.936-7.64 24-12.42 23.985-12.65-.006-.088-2.12-1.888-4.698-4-7.54-6.177-13.285-11.164-17.253-14.979-12.843-12.346-19.244-23.651-21.416-37.821-.74-4.829-.487-14.562.498-19.2 1.754-8.248 5.064-15.337 9.504-20.355 4.02-4.543 10.527-9.543 14.66-11.265 4.245-1.77 14.018-5.43 31.52-11.805 10.12-3.686 19.434-7.083 20.697-7.549 2.752-1.014 2.516-.256 2.97-9.506.18-3.696.4-7.98.487-9.52.088-1.54.076-2.8-.026-2.8-.436 0-79.015 25.403-98.048 31.698l-5.92 1.957-.083 3.093c-.046 1.7-.225 7.124-.398 12.052-.88 25.028-4.479 153.193-4.479 159.481v4.21l1.68-.849c.924-.467 6.36-3.362 12.08-6.433zm124.385-.925c26.62-16.699 41.1-25.94 41.411-26.431.493-.776 1.365-14.146 3.168-48.558.715-13.632 1.33-24.806 1.368-24.832.037-.025 4.414-2.176 9.727-4.779l9.658-4.732-.518-.79c-1.133-1.73-12.931-11.503-23.439-19.416-4.04-3.042-5.113-3.707-5.784-3.58-.873.165-15.417 6.663-35.805 15.998-6.77 3.1-12.447 5.636-12.615 5.636-.168 0-2.837-2.488-5.93-5.53-3.095-3.041-6.74-6.433-8.1-7.536-7.76-6.291-16.11-10.425-24.48-12.119-3.516-.712-13.06-.787-15.766-.124-6.533 1.6-11.836 6.647-13.077 12.445-1.643 7.675 2.55 17.23 11.195 25.513 3.466 3.321 8.955 7.879 15.962 13.256 12.84 9.853 20.566 16.38 25.44 21.491 9.611 10.08 15.345 19.798 18.229 30.894 1.429 5.498 1.893 9.616 1.905 16.91.015 8.969-.924 13.736-4.147 21.06-.855 1.942-1.217 3.088-.943 2.983.245-.094 5.888-3.586 12.54-7.759zm-50.849.483c5.5-1.387 9.765-4.73 12.202-9.567l1.37-2.72-.172-4.48c-.206-5.38-.91-8.381-2.93-12.48-.78-1.584-2.174-3.888-3.098-5.12-1.759-2.345-14.753-15.556-16.447-16.723l-.98-.674-21.9 11.163c-12.046 6.14-21.94 11.35-21.988 11.578-.16.768 5.15 7.42 9.036 11.32 7.285 7.311 14.57 12.422 21.788 15.288 7.804 3.098 16.715 4.029 23.12 2.415zm358.356-75.647c1.38-.264 3.804-.86 5.388-1.323 2.7-.79 47.79-16.92 48.063-17.193.19-.19-3.778-.49-11.378-.86l-6.836-.332-10.764 3.397c-29.949 9.45-48.254 15.293-48.685 15.538-.34.193-.151.284.64.309.616.019 3.64.22 6.72.446 7.97.585 13.855.591 16.852.018zM549.44 536.644c4.695-2.142 36.052-17.871 58.24-29.213 9.416-4.814 21.99-11.241 27.94-14.284 5.951-3.043 10.74-5.613 10.643-5.71-.097-.098-4.75-.708-10.34-1.356l-10.163-1.18-26.88 12.71c-61.455 29.055-80.06 37.966-79.793 38.216.276.26 19.593 2.868 23.153 3.126 1.592.116 2.58-.2 7.2-2.31zm-89.142-25.26c10.69-4.793 30.139-13.657 60.057-27.374l18.755-8.598.2-3.386c.537-9.066.895-17.048.77-17.172-.127-.128-9.944 3.807-26 10.42-23.435 9.654-62.755 26.022-62.928 26.196-.179.18-.625 6.724-1.428 20.93-.152 2.695-.105 3.44.219 3.44.227 0 4.886-2.006 10.355-4.457zm647.542-26.064c17.647-4.155 29.5-9.781 41.323-19.615 11.893-9.892 20.953-21.882 26.96-35.681 3.398-7.802 5.862-16.157 6.742-22.858.712-5.416 1.214-16.787.973-22.046-1.04-22.768-11.458-45.793-28.304-62.56-7.025-6.993-14.626-12.42-23.534-16.802-8.024-3.948-14.99-6.33-23.351-7.987-6.498-1.287-10.151-1.612-17.93-1.594-7.87.018-11.918.438-18.533 1.923-9.897 2.223-10.704 1.922-13.442-5.008-12.056-30.514-37.73-52.41-68.824-58.694-5.196-1.05-9.741-1.437-16.863-1.438-7.476 0-13.028.45-18.177 1.474-8.626 1.716-12.881 3.16-22.582 7.665-3.531 1.64-6.58 3.027-6.774 3.081-.195.055-1.45-1.61-2.791-3.7-6.356-9.909-14.782-18.86-24.493-26.015-3.474-2.56-6.587-4.585-7.046-4.585-.173 0-.314.451-.314 1.003 0 1.76-6.741 115.29-9.28 156.277-1.386 22.396-1.569 25.004-1.956 27.922-.305 2.295-.441 2.663-1.037 2.798-2.632.595-4.593.913-12.693 2.055-14.617 2.063-54.485 7.51-69.114 9.444-27.59 3.647-32.998 3.926-53.036 2.743-13.063-.771-18.745-1.226-20.273-1.622-2.301-.596-2.246-.218-1.693-11.511 1.131-23.127 4.503-98.719 4.408-98.83-.147-.175-3.892 1.249-7.835 2.978-16.828 7.381-31.89 20.724-41.744 36.983-5.815 9.593-11.085 23.454-12.44 32.715-.941 6.436-1.545 21.365-.864 21.365.155 0 3.046-1.304 6.424-2.899l6.142-2.899 6.775 2.937c10.416 4.515 12.59 5.584 13.03 6.408.287.535.345 1.9.212 4.917-.172 3.883-2.579 30.73-2.963 33.058-.158.952-.425 1.161-3.118 2.437-1.62.768-4.89 2.084-7.265 2.926-2.376.841-4.373 1.573-4.438 1.627-.064.053.716 1.292 1.735 2.752 14.696 21.065 35.702 34.442 61.294 39.033 3.829.686 4.928.719 31.169.912 14.96.11 95.456.173 178.88.14l151.68-.062zm-642.129-6.28c51.242-21.21 71.33-29.633 71.351-29.92.014-.176-3.568-1.558-7.959-3.072-8.967-3.09-13.38-4.816-17.105-6.689-4.306-2.165-7.054-2.939-11.087-3.123-8.195-.373-12.864 1.085-74.51 23.277-11.793 4.245-21.56 7.837-21.705 7.983-.145.145.863.366 2.24.49 6.19.561 13.81 2.627 20.898 5.665 6.556 2.811 11.069 5.431 17.766 10.316 1.584 1.155 2.93 2.103 2.991 2.107.061.004 7.765-3.162 17.12-7.034zM331.84 456.587c17.452-5.364 51.987-16.438 82.322-26.396 2.421-.795 4.336-1.553 4.254-1.685-.081-.131-1.774-.418-3.762-.637l-3.614-.398-49.28 15.225c-27.104 8.374-49.496 15.32-49.76 15.436-.512.225 3.07.893 7.04 1.313 2.688.285 2.278.377 12.8-2.858zm268.64-7.314c16.054-.505 20.466-.998 32.96-3.68 11.037-2.37 28.003-7.603 33.44-10.315l1.76-.878.383-3.52c.691-6.339 2.641-26.809 2.86-30.008.203-2.983.184-3.118-.395-2.909-.335.121-3.416 1.476-6.848 3.011-8.06 3.606-12.558 5.387-19.491 7.72-34.892 11.74-70.715 12.573-101.303 2.354-10.734-3.586-22.602-9.467-30.463-15.095-6.274-4.49-16.993-14.69-21.977-20.913-17.824-22.25-25.488-54.207-20.67-86.19 1.69-11.22 5.106-22.401 9.913-32.446 5.374-11.228 11.81-20.253 20.94-29.366 24.571-24.523 57.565-35.246 96.49-31.358 26.83 2.68 53.1 12.75 81.08 31.083 3.322 2.176 6.142 3.957 6.268 3.957.306 0 3.851-33.352 3.853-36.244 0-.84-.464-1.112-9.36-5.488-36.07-17.747-57.882-24.377-85.988-26.137-7.819-.49-24.594-.212-30.572.506-49.322 5.925-88.828 31.895-111.431 73.25-8.998 16.463-14.47 34.413-17.373 56.993-3.678 28.6 4.405 62.136 21.554 89.422 20.993 33.401 54.437 55.065 97.81 63.358 15.827 3.026 24.74 3.58 46.56 2.893zm84.61-15.678c.809-.003 1.636-.11 1.838-.24.22-.14.768-3.794 1.358-9.035.871-7.74 2.274-21.377 2.274-22.107 0-.306-1.148-.83-7.326-3.342-2.491-1.013-4.605-1.766-4.697-1.674-.321.32-.793 4.348-2.37 20.209-.874 8.781-1.499 16.11-1.39 16.287.128.206 1.748.247 4.522.114 2.377-.114 4.983-.21 5.792-.212zm-109.41-21.684c0-.137-1.26-.873-2.8-1.636-8.885-4.403-16.383-9.926-23.78-17.518-11.155-11.447-17.559-23.076-21.424-38.905-1.702-6.97-2.077-11.11-2.067-22.812.008-9.57.078-10.962.75-14.85 3.108-17.992 9.281-31.756 19.961-44.51 14.394-17.189 33.489-27.796 56.137-31.183 17.368-2.597 39.18-.235 57.34 6.21 10.55 3.745 19.958 8.337 31.665 15.459 2.872 1.747 5.28 3.12 5.349 3.05.138-.139-2.434-6.547-7.602-18.942l-3.322-7.965-7.503-4.938c-10.935-7.195-17.674-11.14-26.864-15.727-24.83-12.394-47.01-17.564-72.48-16.893-11.017.29-18.482 1.33-27.73 3.865-13.056 3.578-26.71 10.504-37.236 18.888-4.22 3.36-12.504 11.653-15.841 15.856-11.17 14.07-18.714 31.133-21.718 49.12-1.26 7.548-1.475 10.419-1.46 19.52.016 9.897.436 14.457 2.08 22.56 6.785 33.46 29.629 59.94 63.025 73.06 8.135 3.195 17.567 5.643 28.489 7.394 4.765.764 6.276 1.009 6.79 1.102.133.024.24-.068.24-.205zM764.8 406.8c0-2.266 2.758-58.695 8.807-180.24 1.95-39.185 4.274-85.376 4.708-93.6l.085-1.6-19.253-.083-19.252-.082-.178 2.322c-.098 1.278-.405 7.795-.682 14.483-.277 6.688-2.149 48.088-4.16 92-4.043 88.236-5.58 122.733-6.54 146.72-.352 8.8-.715 16.742-.807 17.649l-.166 1.648 1.839.199c2.624.283 13.297 1.05 20.239 1.455 3.256.19 6.496.389 7.2.443.704.054 2.828.123 4.72.152l3.44.054v-1.52zm14.08.25c3.784-.528 22.345-3.056 41.246-5.617 46.22-6.26 52.625-7.212 53.641-7.962.378-.28.637-2.767 1.267-12.191 2.388-35.682 8.854-143.912 11.193-187.36.44-8.184.893-16.555 1.006-18.601.188-3.418.154-3.772-.42-4.346-.348-.348-11.737-4.774-25.719-9.996-29.74-11.107-70.472-26.426-73.982-27.825-1.369-.546-2.546-.992-2.615-.992-.228 0-.496 3.831-1.14 16.32-1.782 34.514-9.68 192.133-11.992 239.306-.443 9.035-.805 17.354-.805 18.487 0 1.97.031 2.052.72 1.9.396-.088 3.816-.593 7.6-1.122zm-350.4-112.18c0-1.163 2.228-14.681 3.07-18.626 5.051-23.67 15.302-46.2 28.535-62.715l2.877-3.591.209-3.93c.523-9.842 1.828-138.875 1.41-139.294-.168-.167-12.16-3.75-137.701-41.147-33.088-9.856-60.578-18.057-61.088-18.224-.51-.167-1.074-.303-1.252-.303-.507 0 .33 154.37 1.356 250.36.162 15.113.232 27.64.156 27.84-.09.237.49.38 1.705.42 1.014.034 14.587.86 30.163 1.835 37.323 2.339 88.274 5.4 116.96 7.027 8.428.478 13.6.61 13.6.349zm-168.463-29.83c-.112-11.22-.413-54.456-.668-96.08-.405-65.827-.945-136.774-1.192-156.399l-.077-6.159h-1.365c-2.279-.003-17.58.976-21.675 1.386-2.361.237-3.816.516-3.777.727.103.562.411 34.822.754 83.805.3 42.908.96 119.264 1.468 169.868.24 23.943.101 22.58 2.298 22.65.647.02 3.121.14 5.497.265s7.61.252 11.63.282l7.311.055zm443.979 11.04c-.004-.407-1.976-1.84-2.533-1.84-.846 0-.513.665.698 1.396 1.551.935 1.84 1.005 1.835.444zm-.509-27.08 1.084-10.361-4.276-13.16c-5.678-17.479-6.002-18.439-6.208-18.439-.098 0-.826 6.504-1.618 14.454l-1.44 14.455 3.765 8.985c2.07 4.942 4.518 10.705 5.438 12.806 1.638 3.738 1.679 3.796 1.922 2.72.137-.605.737-5.762 1.333-11.46zm259.073-84.408c-8.39-4.056-16.765-8-43.735-20.591l-27.255-12.725-45.961.17c-25.279.094-45.846.277-45.705.408.14.13 20.776 7.921 45.856 17.312l45.6 17.074 20.96.165c11.528.09 28.52.19 37.76.22l16.8.056zm15.97-4.272c.582-6.599 1.31-18.497 1.31-21.424v-2.74l-1.52-.92c-5.324-3.224-61.99-35.538-77.408-44.143-3.218-1.797-3.952-2.08-3.952-1.527 0 .157-.14 1.705-.311 3.44-.383 3.882-1.19 18.58-1.482 27.004l-.217 6.25 4.125 1.953c29.683 14.055 76.497 36.002 78.045 36.587.384.145.723.098.848-.119.114-.199.367-2.161.561-4.361zm-245.126-13.6c.183-3.696.424-8.7.537-11.12l.205-4.4h-15.953c-24.362 0-61.543.397-61.384.654.078.126.468.298.866.382.399.084 10.3 2.994 22.005 6.465 36.761 10.905 52.721 15.391 53.176 14.95.12-.116.366-3.235.548-6.931zm144.579-21.482 10.622-.191.167-.844c.423-2.135 1.69-21.703 1.997-30.838l.212-6.315-16.61.162c-9.136.089-37.203.307-62.371.485-54.51.385-138.156 1.154-158.664 1.458-10.981.163-14.762.317-15.06.614-.38.381-.548 3.929-1.37 29.031-.113 3.476-.148 6.347-.076 6.38.827.388 219.988.44 241.153.058zM415.2 1076.461c-8.649-.487-19.049-2.492-26.56-5.12a102.911 102.911 0 0 1-30.384-16.804c-4.084-3.26-11.9-10.79-12.209-11.76-.148-.466-.03-.787.39-1.059.332-.214 7.167-3.663 15.19-7.662 11.333-5.65 14.758-7.227 15.36-7.068.425.112 1.781 1.076 3.013 2.143 5.303 4.593 13.747 9.584 21.28 12.579 11.674 4.64 25.88 5.885 38.56 3.38 9.604-1.898 17.626-5.35 27.607-11.882l3.928-2.57 10.472 1.16c5.76.637 12.201 1.306 14.313 1.486 4.846.414 5.28.514 5.28 1.22 0 1.326-8.354 10.828-14.06 15.992-16.505 14.935-38.832 24.642-59.38 25.814-6.592.376-8.433.398-12.8.152zm-75.28-41.021c-1.307-1.404-10.89-18.15-14.574-25.47l-1.666-3.31.76-.53c.419-.291 4.45-2.524 8.96-4.961 11.458-6.192 29.314-16.095 31.3-17.359 2.387-1.52 2.455-1.739 1.835-5.96-.418-2.852-.493-5.144-.365-11.121.14-6.54.272-8.054 1.01-11.529 5.456-25.665 24.19-44.869 49.032-50.258 4.55-.988 15.669-1.247 20.295-.473 11.367 1.9 20.608 6.096 29.801 13.528l2.148 1.736 3.848-2.628c2.116-1.446 4.016-2.832 4.222-3.081.482-.58-.926-2.074-5.249-5.568-8.141-6.58-15.365-10.378-25.271-13.29-2.16-.634-5.114-1.502-6.566-1.93-2.336-.687-2.64-.863-2.64-1.528 0-.413.565-4.332 1.256-8.71.691-4.377 1.57-10.118 1.952-12.758.462-3.184.856-4.926 1.172-5.175.617-.488 1.925-.275 6.66 1.085 4.82 1.384 11.695 4.092 16.48 6.494 25.13 12.611 44.051 34.986 52.901 62.556 5.237 16.315 6.624 32.804 4.2 49.92-.685 4.829-1.87 10.811-2.688 13.555-.63 2.114-.746 2.285-1.56 2.285-.999 0-11.344-1.812-17.297-3.03-2.18-.445-4.016-.81-4.08-.81-.374 0 .037-2.425 1.15-6.786 1.998-7.833 2.66-12.996 2.681-20.894.013-4.742-.147-7.897-.541-10.72-.589-4.21-1.365-8.306-1.624-8.564-.145-.146-6.008 3.863-7.987 5.46l-.924.747.39 2.058c.578 3.056.81 14.001.377 17.76-2.017 17.477-9.819 32.205-22.918 43.264-7.705 6.504-16.803 10.922-27.033 13.123-3.717.8-4.551.862-11.527.856-6.577-.01-7.961-.098-11.04-.738-10.327-2.146-20.174-6.947-28.053-13.677-1.526-1.303-2.904-2.369-3.062-2.369-.16 0-3.231 1.381-6.827 3.07-15.96 7.491-36.454 16.45-37.634 16.45-.348 0-.934-.324-1.303-.72zm98.543-34.747c13.162-3.52 22.803-15.746 23.517-29.823.416-8.196-1.43-15.124-5.75-21.59-1.951-2.918-6.735-7.44-9.688-9.159-12.101-7.04-26.569-5.619-36.418 3.58-5.129 4.79-8.452 10.488-10.025 17.19-.816 3.48-.811 12.758.008 15.749 3.562 12.995 12.357 21.648 24.89 24.485 2.96.67 10.216.438 13.467-.432zm-116.676-2.57c-.271-.438-2.026-9.463-2.56-13.163-.75-5.203-1.246-14.413-1.042-19.36.192-4.662 1.013-11.454 2.147-17.76 3.142-17.483 12.003-36.028 23.854-49.92 2.608-3.058 9.54-9.94 12.454-12.367 12.958-10.787 28.788-18.362 45.338-21.695 2.993-.602 3.462-.467 3.462 1 0 .61-1.36 6.463-3.023 13.006-3.64 14.325-5.114 19.61-5.652 20.258-.222.268-1.781 1.284-3.465 2.259-7.523 4.355-11.979 7.682-17.118 12.784-8.072 8.013-13.599 16.397-17.727 26.89-2.021 5.137-3.244 9.481-4.397 15.625-.82 4.373-.903 5.47-.92 12.32-.01 4.136.098 9.032.24 10.88l.258 3.36-2.658 1.486c-3.508 1.962-16.75 8.984-22.92 12.155-4.707 2.419-5.899 2.845-6.271 2.242zm-75.26-221.596c-2.954-.971-5.592-3.566-6.52-6.413-.552-1.691-.26-4.843.604-6.538 1.846-3.617 4.89-5.513 9.237-5.752 4.465-.245 7.394 1.274 9.118 4.73.875 1.754 1.033 2.418 1.025 4.32-.01 2.802-.81 4.681-2.863 6.734-.815.816-2.26 1.84-3.212 2.275-2.125.973-5.494 1.266-7.39.644zm-86.242-16.64c-3.84-1.58-6.273-3.861-8.018-7.519-1.444-3.024-1.622-6.017-.49-8.224.93-1.815 4.11-5.067 5.444-5.566 1.99-.746 8.965-.142 11.319.98 2.462 1.175 5.106 4.862 4.237 5.91-.562.677-2.778.554-6.248-.348-3.53-.917-6.369-1.037-7.405-.31-1.466 1.026-1.182 4.367.538 6.314.503.57 1.757 1.526 2.786 2.125 5.422 3.153 6.139 3.936 5.204 5.683-.98 1.833-4.213 2.252-7.367.955zm191.686-17.344c-.808-.249-2.13-1.035-2.94-1.747-1.897-1.67-2.463-3.736-1.908-6.972.477-2.789 1.634-4.416 4-5.626 3.535-1.808 6.761-1.445 9.245 1.039 4.096 4.096 2.744 10.485-2.761 13.049-1.814.844-3.483.92-5.636.257zm.909-42.284c-.772-.201-.724-.567.61-4.665 1.437-4.41 1.548-6.243.45-7.411-1.691-1.802-5.071-1.73-7.685.163-1.584 1.147-2.421 2.769-2.699 5.224-.51 4.515-2.91 6.074-4.588 2.98-.43-.792-.56-1.805-.563-4.39-.004-2.962.095-3.572.834-5.148 2.124-4.532 6.777-6.688 12.984-6.018 3.918.423 6.509 1.999 8.033 4.888.773 1.466.864 1.974.86 4.838-.004 2.77-.116 3.44-.836 4.981-1.642 3.52-4.54 5.306-7.4 4.558z" style="fill:#fff;stroke-width:.31999999;fill-opacity:1"/><path d="m64.897 71.595 2.575 1.913s3.52-3.284 8.08-5.268c4.558-1.984 8.574-4.465 15.685-5.008 7.11-.544 11.221-.425 11.221-.425l-2.197-3.45 1.678-3.992 4.205-1.559s4.063 1.465 4.18 1.512c.119.047 2.245 2.976 2.245 2.976s-.378 3.591-.449 3.686c-.07.094-2.646 3.165-2.551 3.165.094 0 6.52 4.158 6.52 4.158l4.772 5.41 1.866 3.472s-.165 6.26.071 6.332c.236.07 5.693 1.204 5.693 1.204s6.733 2.056 6.828 2.08c.094.023 3.52 2.763 3.52 2.763l-.119 3.567s-2.953 2.977-2.976 3.142c-.024.166-1.82.614-2.268.425-.449-.189-3-2.197-2.977-2.362.024-.165-5.764-6.331-8.693-6.803-2.93-.473-40.69 20.443-41.09 21.913-.402 1.47 1.737 2.806 1.737 2.806s7.015-1.203 7.35-1.203c.334 0 5.612.602 5.612.602l2.005 2.138-1.704 4.41-6.548 2.272-7.083.835-7.216.735s-1.47 1.971-1.67 2.64c-.201.667-.268 3.875-.134 4.777.133.902 1.203 2.706 1.203 2.706l8.251-1.437s4.678 1.838 4.811 1.904c.134.067 3.542 7.384 3.575 7.517.033.134-.902 7.818-.902 7.818s-2.806 7.016-2.572 7.116c.233.1 2.873.936 2.873.936l2.472 2.405s-2.238 3.174-2.439 3.34c-.2.168-5.713.903-5.913.77-.2-.134-7.851-6.382-7.851-6.382l-4.21-3.24-8.686-5.413-8.52-4.877-6.982-8.954-2.205-7.016 9.655-.267 4.577 11.259 2.34 1.87-.502-8.752 1.503-11.426 3.742-10.954-2.338-2.443-5.68-4.31-.969-6.982.869-9.923 1.87-6.414-3.774.4-3.308-1.703-1.704-4.41 2.239-4.944 2.773-.802 4.643 1.37z" style="fill:#ffa000;fill-opacity:1;stroke:none;stroke-width:.264583px;stroke-linecap:butt;stroke-linejoin:miter;stroke-opacity:1" transform="translate(-72.132 455.549) scale(3.95969)"/><path d="M87.687 94.44c.067-.134.393-4.037.935-5.98.718-2.574 1.539-5.207 3.04-7.417 1.147-1.688 3.375-3.742 4.41-4.243 1.036-.501 3.613-1.385 5.513-1.47 1.829-.082 3.696.296 5.412.935 2.388.89 4.6 2.3 6.548 3.942 2.191 1.849 5.613 6.515 5.613 6.515s-25.925 9.588-26.226 9.622c-.3.033-5.245-1.904-5.245-1.904z" style="fill:#fff;stroke:none;stroke-width:.264583px;stroke-linecap:butt;stroke-linejoin:miter;stroke-opacity:1" transform="translate(-72.132 455.549) scale(3.95969)"/><path d="M112.382 172.82c-2.01-.102-2.051-.106-4.363-.458-1.618-.245-2.26-.378-4.07-.844-1.182-.304-2.383-.639-2.67-.744-3.156-1.16-3.462-1.287-5.483-2.28-1.566-.77-2.49-1.275-3.647-1.992-1.812-1.123-1.744-1.076-3.763-2.63-3.203-2.465-6.148-5.53-8.587-8.938-3.04-4.25-5.425-9.42-6.646-14.41-.563-2.302-.585-2.412-.88-4.525-1.488-10.652 1.17-21.573 7.401-30.414.637-.904 1.364-1.88 1.616-2.17l1.44-1.668c1.368-1.586 3.57-3.662 5.402-5.09 1.914-1.493 1.845-1.445 3.753-2.647a42.737 42.737 0 0 1 7.767-3.84 41.143 41.143 0 0 1 8.179-2.165c1.83-.293 2.283-.341 4.323-.46 2.204-.13 2.352-.13 4.46-.028 1.97.096 2.391.138 4.331.43 1.897.286 2.401.39 4.298.88 3.074.797 5.245 1.602 8.13 3.017 1.714.84 2.412 1.226 3.852 2.129a42.78 42.78 0 0 1 18.854 26.105c2.598 10.603 1.014 21.74-4.454 31.31-2.724 4.768-6.431 9.053-10.721 12.389-1.858 1.444-1.709 1.34-3.81 2.665a41.632 41.632 0 0 1-11.395 4.948 421.68 421.68 0 0 0-2.117.56c-.125.033-1.15.208-2.279.388-1.825.291-2.295.341-4.265.454-2.47.143-2.435.142-4.656.029z" style="fill:#f48128;fill-opacity:1;stroke:#000;stroke-width:3.8;stroke-miterlimit:4;stroke-dasharray:none;stroke-opacity:1" transform="translate(-72.132 455.549) scale(3.95969)"/><g transform="translate(25.836 1031.504) scale(.7309)"><circle cx="486.724" cy="-82.787" r="221.839" style="opacity:1;fill:#fff;fill-opacity:1;stroke:none;stroke-width:4.92743;stroke-linecap:round;stroke-linejoin:round;stroke-miterlimit:4;stroke-dasharray:none;stroke-opacity:1;paint-order:stroke fill markers"/><path d="M474.795 148.256c-10.891-.557-11.113-.58-23.636-2.482-8.769-1.332-12.24-2.052-22.048-4.575-6.403-1.647-12.912-3.461-14.464-4.031-17.1-6.283-18.76-6.974-29.708-12.355-8.482-4.17-13.492-6.905-19.756-10.788-9.817-6.086-9.448-5.827-20.386-14.245-17.354-13.356-33.306-29.962-46.519-48.428-16.476-23.026-29.391-51.027-36.006-78.061-3.053-12.477-3.168-13.07-4.767-24.518-8.06-57.707 6.338-116.874 40.096-164.768 3.45-4.895 7.39-10.187 8.754-11.76 1.364-1.573 4.876-5.638 7.803-9.033 7.407-8.593 19.34-19.839 29.263-27.579 10.366-8.085 9.997-7.824 20.332-14.337 13.071-8.238 27.462-15.354 42.074-20.805 15.022-5.605 28.726-9.231 44.311-11.726 9.912-1.587 12.372-1.85 23.423-2.494 11.936-.698 12.74-.703 24.165-.149 10.67.518 12.95.744 23.46 2.33 10.274 1.55 13.007 2.11 23.283 4.77 16.652 4.312 28.415 8.676 44.046 16.339 9.285 4.552 13.066 6.643 20.865 11.536 51.253 32.155 87.765 82.705 102.146 141.421 14.071 57.446 5.489 117.775-24.129 169.624-14.758 25.835-34.843 49.044-58.085 67.12-10.062 7.825-9.256 7.26-20.638 14.437-18.69 11.785-40.25 21.147-61.736 26.806a4020.546 4020.546 0 0 0-11.465 3.03c-.68.185-6.235 1.133-12.347 2.107-9.889 1.575-12.434 1.846-23.107 2.46-13.38.771-13.194.77-25.224.154zm74.613-52.534c20.318-2.45 37.39-7.475 55.114-16.224 15.625-7.713 28.256-16.424 41.16-28.386 5.499-5.098 13.077-13.24 17.497-18.8 6.06-7.623 15.635-22.28 16.111-24.663.138-.686.047-1.059-.282-1.163-.266-.084-4.724-.25-9.908-.37l-9.424-.218-4.547 6.098c-14.61 19.589-32.149 34.247-53.73 44.903-17.51 8.646-35.624 13.294-55.872 14.335-8.928.46-15.925.017-28.751-1.818-22.394-3.203-43.995-12.515-63.897-27.543-15.062-11.374-27.71-25.65-38.337-43.269-10.861-18.01-18.122-39.23-20.852-60.944-3.87-30.784 1.083-61.4 14.539-89.85 10.37-21.93 27.762-42.922 47.163-56.93 19.701-14.224 38.425-21.968 63.862-26.412 1.848-.323 3.571-.718 3.83-.877.54-.334.874-1.696 3.245-13.225.955-4.64 1.736-9.105 1.736-9.923 0-2.4-.166-2.444-7.331-1.965-21.733 1.453-42.896 7.305-62.696 17.336-17.326 8.778-30.508 18.328-44.29 32.087-19.462 19.43-33.41 41.708-42.74 68.267-3.55 10.104-5.594 18.53-7.489 30.869-1.814 11.815-2.323 16.6-2.848 26.81-.185 3.615.32 15.864.901 21.873 2.846 29.365 13.049 58.434 29.144 83.031 8.216 12.557 19.113 25.195 30.986 35.938 6.662 6.028 19.58 15.254 28.575 20.407 8.496 4.867 21.114 10.408 30.777 13.515 11.599 3.73 26.621 6.652 39.073 7.603 6.133.468 23.772.172 29.28-.492zm4.41-31.619c34.288-3.017 67.33-19.99 90.937-46.715 4.576-5.18 7.976-9.518 8.326-10.622.365-1.15-.367-1.464-4.014-1.718-5.616-.391-20.52-1.934-29.22-3.026-6.1-.765-8.413-.935-8.932-.657-.385.206-2.237 1.446-4.116 2.756-11.2 7.81-22.48 13.073-33.985 15.858-11.388 2.756-20.498 3.432-31.728 2.356-6.285-.603-10.401-1.278-15.192-2.492-14.685-3.72-29.813-11.765-41.362-21.995-1.416-1.255-2.759-2.156-3.213-2.156-.429 0-3.382 1.367-6.562 3.038-6.893 3.622-25.547 12.925-31.624 15.77-5.88 2.755-5.948 2.337 1.588 9.772 15.919 15.706 33.93 26.773 55.02 33.804 7.438 2.479 14.667 4.043 25.528 5.521 8.859 1.206 18.623 1.38 28.548.506zM435.31 8.18c13.157-5.333 35.673-15.381 52.428-23.398l6.065-2.901 3.273 2.888C508.892-4.804 523.342 2.05 539.114 4.71c4.545.766 15.397 1.055 20.363.542 19.256-1.989 36.149-9.973 50.315-23.778 16.226-15.812 25.414-36.17 26.93-59.67.356-5.51-.051-14.394-.89-19.428l-.529-3.169.973-.783c2.713-2.186 10.751-7.9 10.901-7.75.7.698 2.431 11.673 2.989 18.94.927 12.072-.798 27.232-4.485 39.42-1.364 4.508-1.5 5.957-.582 6.213 3.653 1.02 26.451 5.265 28.486 5.303l2.117.04.761-2.292c2.306-6.948 4.8-22.485 5.442-33.905 1.613-28.66-5.739-58.879-20.504-84.28-18.882-32.484-49.2-56.055-84.65-65.811-5.308-1.461-6.935-1.553-7.396-.419-.178.437-.813 4.366-1.412 8.731-.6 4.366-1.798 12.224-2.663 17.463-1.655 10.027-1.731 10.688-1.311 11.349.144.227 3.356 1.209 7.138 2.182 15.298 3.939 25.557 8.69 36.643 16.972 4.795 3.582 11.155 9.204 11.155 9.862 0 .251-2.566 2.2-5.701 4.33l-5.701 3.874-3.824-3.1c-12.296-9.967-25.01-15.485-41.924-18.197-1.673-.268-5.84-.447-10.23-.44-8.398.015-12.664.534-20.147 2.452-23.489 6.02-43.664 22.355-54.893 44.446-4.931 9.702-7.58 17.975-9.343 29.174-.914 5.811-.886 20.376.05 26.036 1.097 6.622 1.95 5.39-7.39 10.665-10.578 5.974-30.284 16.813-38.982 21.44-11.971 6.37-12.162 6.483-12.28 7.308-.194 1.339 19.76 37.049 22.279 39.874.911 1.022 1.718 1 4.493-.125zm117.095-46.932c-17.679-1.646-32.662-13.988-37.885-31.206-1.603-5.284-2.07-9.063-1.89-15.311.225-7.798 1.582-13.426 4.788-19.85 7.432-14.893 21.84-24.076 37.768-24.07 20.536.008 37.592 14.046 42.429 34.924.896 3.869 1.24 12.114.682 16.404-2.84 21.862-19.844 38.239-40.6 39.103-2.037.085-4.419.088-5.292.006zm-137.9-7.575c8.473-4.417 23.125-12.174 30.003-15.884 2.843-1.533 5.252-3.003 5.353-3.267.1-.263-.066-2.205-.37-4.314-.72-4.986-.815-20.743-.154-25.532 1.274-9.217 2.944-16.512 5.375-23.47 5.664-16.211 13.777-29.228 25.514-40.936 7.366-7.348 13.563-12.033 22.617-17.1 6.517-3.647 6.404-3.542 7.403-6.851 2.152-7.128 9.62-36.216 10.763-41.923.671-3.355.031-3.608-5.916-2.335-20.326 4.352-38.784 12.605-54.94 24.564-25.916 19.186-44.396 46.398-53.96 79.458-1.87 6.465-4.001 18.949-5.113 29.954-.772 7.638-.394 20.728.898 31.095.748 6.007 2.857 16.777 3.85 19.667.326.945 2.084.31 8.677-3.126z" style="fill:#f48128;fill-opacity:1;stroke-width:.352778"/></g><path d="m130.16 94.076 1.47 2.672s1.938.869 2.072.902c.133.034 1.603-.467 1.804-.534.2-.067 3.214-2.985 3.214-2.985s.594-2.528.56-2.661c-.033-.134-2.973-3.842-5.278-4.176-2.305-.334-7.534-2.269-7.534-2.269l-1.125-.095s-1.973.88-.703 1.683c3.797.984 5.447 2.518 5.988 4.187.34 1.049-.468 3.276-.468 3.276zm-59.434 41.827s.267-1.536 3.542-2.74c3.274-1.202 8.686-1.336 8.953-1.269.267.067 5.045 2.54 5.045 2.54l2.773 6.38-1.637 10.123-2.974 5.513 2.74.1 2.105 1.002.567 2.372s-1.67 2.305-1.804 2.439c-.133.134-3.942.735-3.942.735l-5.546-2.372-11.125-19.344zm.702-23.018c.467.1 2.906 1.603 7.951 1.035 5.045-.568 9.488-1.804 10.925-1.737 1.436.067 3.842-.468 5.111.468 1.27.935 2.072 3.007 2.072 3.007l-1.27 3.04s-5.446 3.307-6.247 3.04c-.802-.267-17.473 1.403-17.674 1.403-.2 0-3.54-.334-3.54-.334z" style="fill:#ffa000;fill-opacity:1;stroke:none;stroke-width:.264583px;stroke-linecap:butt;stroke-linejoin:miter;stroke-opacity:1" transform="translate(-72.132 455.549) scale(3.95969)"/><path d="M84.845 164.075c-.8-.112-1.872-.416-2.381-.675-2.672-1.361-6.059-4.394-7.874-7.05-.752-1.103-.96-1.239-2.135-1.394-1.527-.203-2.933-1.134-5.11-3.384-.82-.848-1.713-1.546-1.984-1.551-.99-.019-4.302-1.528-6.512-2.969-7.062-4.603-13.523-14.1-15.037-22.104-.384-2.026-.182-5.265.439-7.037 1.214-3.468 5.27-4.881 8.655-3.014 1.99 1.098 2.693 2.912 3.875 10.01.889 5.336 1.886 8.67 3.596 12.026 1.42 2.784 1.769 3.23 1.42 1.818-.14-.563-.325-2.699-.413-4.745-.35-8.103 1.191-15.607 4.508-21.958l1.393-2.667-1.87-.988c-2.194-1.16-4.848-3.25-6.271-4.939-.978-1.16-1.019-1.29-1.249-3.968-.505-5.893.539-14.566 2.252-18.713.106-.256-.025-.271-.564-.066-1.98.753-4.7-.025-6.246-1.785-1.292-1.47-1.818-2.868-1.818-4.828 0-3.537 2.424-6.5 5.752-7.033 1.243-.198 3.631.427 5.051 1.324 1.401.884 2.944 2.69 2.944 3.446 0 1.11-.539 1.05-1.68-.185-1.924-2.083-4.96-3.225-6.886-2.59-1.26.416-2.937 2.356-3.307 3.827-.5 1.983.07 3.725 1.678 5.137 1.192 1.047 1.874 1.214 4.044.991 1.406-.144 1.915-.33 2.633-.96 1.086-.953 2.058-1.07 1.786-.215-.099.312-.524 1.11-.945 1.773-1.486 2.344-2.657 6.73-3.043 11.396l-.184 2.226 1.736-1.24c1.875-1.337 4.307-2.527 7.155-3.5 1.819-.621 2.42-.617 2.663.018.175.455-.205.927-1.772 2.206-1.966 1.605-6.405 6.556-7.93 8.846-.75 1.127-1.46 2.05-1.576 2.05-.116 0 .2.361.703.802l.913.803 1.94-1.938c1.83-1.829 5.213-4.536 6.485-5.19.715-.368 1.408-.128 1.408.488 0 .255-.595 1.367-1.323 2.47-.728 1.104-1.98 3.247-2.781 4.762l-1.458 2.755 1.524.676c.838.372 1.956.853 2.484 1.069 1.182.484 1.399.806 1.019 1.516-.208.388-.502.527-.993.469-.634-.075-.813.135-1.956 2.298-2.105 3.989-3.723 9.609-4.284 14.883l-.12 1.125H64.9c1.55 0 1.727.057 1.997.65.236.52.21.784-.134 1.308-.513.782-2.61 2.275-3.198 2.275-.326 0-.416.305-.416 1.406v1.406l1.589-.115c1.784-.13 2.38.17 2.38 1.192 0 .819-2.054 4.313-2.536 4.313-.268 0-.151.59.457 2.315 1.767 5.008 4.42 8.863 6.697 9.733.668.255 1.275.404 1.349.33.073-.074.011-.456-.139-.85-.395-1.04-.344-2.268.094-2.268.298 0 1.751 2.548 1.751 3.069 0 .37 1.85 2.788 3.292 4.304 2.612 2.744 4.478 3.93 6.925 4.402 1.198.231 2.568.332 3.218.236 2.304-.34 3.765-2.052 2.96-3.47-.59-1.039-1.655-1.705-2.961-1.853-.965-.108-1.384-.004-2.305.578-.618.39-1.166.67-1.215.62-.05-.05.89-2.06 2.088-4.467 3.467-6.959 4.02-9.397 3.061-13.508-.693-2.973-1.203-4.046-2.539-5.344-1.64-1.593-3.395-2.106-6.703-1.959-4.878.217-8.07 1.854-11.084 5.685-1.78 2.262-2.618 2.795-2.288 1.455.455-1.85 3.11-5.186 5.302-6.663 2.52-1.698 6.927-2.836 9.983-2.58 1.891.158 4.148 1.018 5.616 2.14 1.156.882 2.97 4.615 3.487 7.169.887 4.396.11 7.857-3.25 14.46-.492.967-.47 1.018.462 1.018 2.134 0 3.938 1.974 3.986 4.362.06 3.013-3.347 4.775-7.98 4.127zm-20.197-16.493c-.08-.182-.463-1.104-.85-2.05-.387-.946-1.079-2.115-1.536-2.598-.826-.872-.845-.877-2.624-.7-2.79.277-3.187-.387-1.75-2.932l.823-1.459-.503-1.225-.502-1.225-2.059.06c-2.228.065-2.816-.178-2.816-1.165 0-.57 1.654-2.346 2.763-2.966.392-.22.45-.456.3-1.25l-.183-.978-1.073.968c-1.474 1.333-2.678 1.782-4.787 1.786l-1.79.004.833 1.482c2.236 3.984 6.176 8.684 9.292 11.086 1.504 1.159 5.664 3.482 6.248 3.49.198.001.294-.145.214-.327zm1.576-23.695c-.25-.404.471-1.008 1.75-1.467.857-.308 3.26-.471 9.992-.68 9.92-.308 11.816-.584 15.36-2.233 2.278-1.06 3.314-1.97 3.569-3.13.393-1.79-1.591-3.109-4.99-3.319-2.082-.128-6.871.47-7.847.98-.222.116-1.652.42-3.179.673-2.948.491-5.965.425-7.966-.175-1.262-.377-2.355-1.57-2.355-2.568 0-1.007.717-1.939 1.414-1.84.494.071.56.227.49 1.176-.075 1.012-.02 1.114.733 1.377 2.557.891 9.092.594 13.932-.634 5.145-1.305 9.385-.502 10.957 2.076.715 1.173.651 1.994-.266 3.44-1.343 2.117-6.075 4.74-9.136 5.064-1.785.188-4.435.427-5.714.514-.668.046-1.323.146-1.455.223-.132.077-3.038.22-6.457.317-3.42.098-6.768.246-7.44.328-.722.089-1.293.039-1.392-.122zm66.379-25.559c-1.048-.464-2.092-1.467-2.648-2.542-.336-.65-.424-1.337-.346-2.714.087-1.542.205-1.925.723-2.345 1.018-.824 1.375-.258 1.178 1.869-.193 2.077.243 3.211 1.48 3.851 1.147.593 1.733.498 2.824-.458 2.474-2.17 3.142-4.224 1.809-5.558-1.397-1.396-6.312-3.481-10.444-4.43-2.468-.567-2.781-1.323-.548-1.323 3.189 0 9.702 2.389 11.882 4.358 2.058 1.86 2.054 4.178-.012 6.791-2.06 2.608-3.899 3.387-5.898 2.501zm-10.605-13.51c-.096-.379-.101-1.05-.013-1.49.148-.74.077-.836-.961-1.295-.617-.272-1.955-.64-2.974-.818-1.036-.18-2.077-.534-2.364-.802-.494-.462-.496-.498-.037-1.005.593-.655 2.91-1.155 4.805-1.037 1.55.096 1.86-.159.719-.593-.978-.371-6.516-1.302-7.75-1.302-.588 0-1.257-.207-1.619-.5-.527-.426-.565-.56-.262-.924.475-.573 3.47-1.478 5.534-1.673l1.671-.158-1.407-1.429c-1.47-1.494-4.789-3.87-7.492-5.366-2.012-1.113-3.307-2.067-3.307-2.435 0-.189.413-.23 1.202-.123 1.094.15 1.285.089 2.143-.691 1.255-1.14 1.682-2.035 1.682-3.52 0-3.594-4.138-5.995-7.514-4.36-1.755.849-2.805 2.156-2.805 3.49 0 1.598.884 3 2.077 3.295.79.195.966.359.966.9 0 .645-.053.663-2.153.738l-2.153.076-.189 1.763c-.261 2.44-.503 2.98-1.336 2.98-.595 0-.801-.256-1.556-1.92-.479-1.054-.943-2.126-1.033-2.38-.17-.487-1.61-.667-1.877-.234-.077.126.28 1.688.793 3.473.975 3.388 1.077 4.835.35 4.972-.269.051-1.619-1.321-3.704-3.764-3.261-3.82-3.287-3.844-4.208-3.681-.509.09-.957.189-.994.22-.038.03.531 1.517 1.266 3.304 1.262 3.07 1.312 3.283.923 3.877-.227.347-.58.63-.784.63-.203 0-1.814-1.406-3.578-3.125l-3.207-3.125-1.8.7a41.713 41.713 0 0 0-8.896 4.826c-2.656 1.905-3.582 2.094-2.398.49 1.934-2.623 6.95-5.651 12.742-7.696 5.283-1.864 12.409-3.18 17.244-3.181 1.491 0 2.708-.09 2.703-.2-.005-.109-.174-.418-.378-.686-1.13-1.492-.663-4.165 1.023-5.851 2.027-2.027 5.025-2.733 7.715-1.817 1.674.57 3.92 2.759 4.323 4.212.69 2.484-.111 5.496-1.793 6.739l-.808.597 2.12 1.198c4.631 2.616 7.967 5.973 10.15 10.215 1.001 1.948 1.027 2.066 1.017 4.734-.01 2.888-.369 4.195-1.194 4.354-.303.058-.509-.14-.624-.602zm-23.466.017c-.424-.322-.33-.412.973-.941 1.095-.444 1.541-.796 1.857-1.462.735-1.549.678-1.59-2.163-1.591-2.099 0-2.815-.109-3.84-.582-1.552-.716-1.733-1.133-.951-2.19 1.984-2.684 9.7-3.948 10.545-1.728.33.87-.118 2.467-.933 3.318-.812.847-.7 1.211.529 1.725.721.302 1.074.298 2.282-.024.787-.21 1.641-.382 1.899-.383.435-.003.439.043.05.635-.914 1.397-3.506 1.91-5.014.995l-.792-.48-.45 1.005c-.753 1.681-2.844 2.573-3.992 1.702zM80.184 81.09c-1.487-.745-1.855-2.496-.786-3.74.53-.616 1.348-.94 2.125-.96.695-.016 1.452.27 1.94.765.39.395.588 1.35.588 1.557 0 1.883-2.18 3.223-3.867 2.378zm-22.045-4.304c-1.023-.549-1.869-1.924-1.869-3.039 0-.485.286-1.037.805-1.557.748-.748.911-.796 2.294-.682 1.216.101 1.605.259 2.123.861.854.993.463 1.398-.944.976-1.958-.587-2.621-.33-2.314.893.099.395.561.848 1.198 1.172 1.249.637 1.485.965 1.062 1.474-.431.52-1.268.485-2.355-.098zm48.799-4.33c-.725-.412-.917-.75-.922-1.62-.006-1.05.378-1.643 1.309-2.03 2.286-.946 3.86 2.113 1.82 3.542-.704.493-1.462.53-2.207.107zm.397-10.656c0-.067.186-.67.414-1.341.321-.948.344-1.303.1-1.597-.745-.897-2.628-.069-2.635 1.158-.009 1.545-1.147 1.869-1.365.388-.307-2.092.894-3.512 2.972-3.512 1.817 0 2.895.932 2.895 2.502 0 1.372-.794 2.526-1.739 2.526-.353 0-.642-.056-.642-.124z" style="fill:#000;stroke-width:.264583" transform="translate(-72.132 455.549) scale(3.95969)"/><path fill="#0038a8" d="m377.734 786.432 119.668 91.208-45.604 59.834-119.668-91.208z"/><path fill="#ce1126" d="M354.932 816.349 474.6 907.557l-22.802 29.917-119.668-91.208z"/><path fill="#fff" d="m406.75 855.843-74.62-9.577 45.604-59.834"/><path fill="#fcd116" d="m376.776 793.894.615 2.93 2.96.44-2.595 1.49.495 2.952-2.22-2.008-2.654 1.383 1.225-2.731-2.136-2.098 2.976.32Zm24.104 52.476-1.766 2.418 1.652 2.495-2.844-.932-1.862 2.343.008-2.993-2.804-1.048 2.849-.917.13-2.99 1.752 2.426zm-55.78-8.188-.63 2.926 2.525 1.607-2.978.305-.748 2.898-1.21-2.737-2.988.183 2.23-1.997-1.098-2.784 2.588 1.503Zm38.075-20.277-1.37.185-4.099 6.178a7.532 7.532 0 0 0-.418-.26l3.385-5.907-1.117.15-2.703 5.527a7.479 7.479 0 0 0-2.838-.75l.382-6.14-.897-.684.022 6.81c-.164 0-.328.008-.491.02l-.51-7.4-1.098-.837-.838 1.099 1.47 7.269c-.16.032-.32.07-.478.113l-1.784-6.573-.684.897 1.997 5.82a7.478 7.478 0 0 0-2.538 1.474l-4.072-4.612-1.117.15 4.83 4.8a7.535 7.535 0 0 0-.334.36l-5.59-4.87-1.37.185.185 1.37 6.178 4.099a7.595 7.595 0 0 0-.26.419l-5.907-3.386.15 1.117 5.527 2.703a7.478 7.478 0 0 0-.75 2.838l-6.14-.382-.683.897 6.81-.022c0 .164.007.328.018.491l-7.398.51-.838 1.098 1.1.838 7.268-1.47c.032.16.07.32.113.478l-6.573 1.784.897.684 5.82-1.997a7.47 7.47 0 0 0 1.474 2.539l-4.612 4.07.15 1.118 4.8-4.83c.116.114.236.226.36.334l-4.87 5.59.186 1.37 1.369-.185 4.099-6.178a7.6 7.6 0 0 0 .418.259l-3.385 5.908 1.117-.15 2.704-5.527c.903.443 1.868.69 2.838.75l-.383 6.14.897.683-.022-6.81c.164 0 .328-.007.491-.018l.51 7.398 1.098.838.838-1.1-1.47-7.268c.16-.032.32-.07.479-.113l1.783 6.573.684-.897-1.997-5.82a7.478 7.478 0 0 0 2.538-1.474l4.072 4.612 1.117-.15-4.83-4.8c.115-.116.226-.236.334-.36l5.59 4.87 1.37-.186-.185-1.369-6.178-4.099a7.62 7.62 0 0 0 .26-.418l5.907 3.385-.15-1.117-5.527-2.704c.443-.903.69-1.868.75-2.838l6.14.383.684-.897-6.81.022c0-.164-.008-.328-.019-.491l7.399-.51.837-1.098-1.099-.838-7.269 1.47c-.032-.16-.07-.32-.112-.479l6.572-1.783-.897-.684-5.82 1.997a7.478 7.478 0 0 0-1.474-2.538l4.612-4.072-.15-1.117-4.8 4.83a7.543 7.543 0 0 0-.36-.334l4.87-5.59z"/><path d="m377.734 786.432-77.9 111.209" style="fill:none;stroke:#1a1a1a;stroke-width:6;stroke-linecap:round;stroke-linejoin:round;stroke-miterlimit:4;stroke-dasharray:none;stroke-opacity:1"/></svg>