<svg xmlns="http://www.w3.org/2000/svg" xml:space="preserve" width="80" height="80"><g style="stroke-width:2;stroke-miterlimit:4;stroke-dasharray:none" transform="translate(-1.49 .037)"><g style="stroke-width:2.27857897;stroke-miterlimit:4;stroke-dasharray:none"><g style="fill:none;stroke:currentColor;stroke-width:1.62457485;stroke-linecap:round;stroke-linejoin:round;stroke-miterlimit:4;stroke-dasharray:none" transform="translate(22.724 21.927) scale(1.23109)"><path d="m23 7-7 5 7 5z" style="stroke-width:1.62457485;stroke-miterlimit:4;stroke-dasharray:none"/><rect width="15" height="14" x="1" y="5" rx="2" ry="2" style="stroke-width:1.62457485;stroke-miterlimit:4;stroke-dasharray:none"/></g><g style="fill:none;stroke:currentColor;stroke-width:1.62457485;stroke-linecap:round;stroke-linejoin:round;stroke-miterlimit:4;stroke-dasharray:none"><path d="M8 12h13M3 12h.01" style="stroke-width:1.62457485;stroke-miterlimit:4;stroke-dasharray:none" transform="translate(19.425 35.719) scale(1.23109)"/></g><path d="M-44.53 48.606v1.29c-.008 13.967-18.191 19.338-25.79 7.626-1.9-2.928-2.555-6.025-2.27-8.935" style="fill:none;stroke:#000;stroke-width:2.27857897;stroke-linecap:round;stroke-linejoin:round;stroke-miterlimit:4;stroke-dasharray:none" transform="translate(98.947 13.127) scale(.87774)"/><path d="M22 4 12 14.01l-3-3" style="fill:none;stroke:#000;stroke-width:1.62457485;stroke-linecap:round;stroke-linejoin:round;stroke-miterlimit:4;stroke-dasharray:none" transform="translate(32.777 42.15) scale(1.23109)"/></g><rect width="57.874" height="66.291" x="12.553" y="8.689" rx="7.482" ry="7.482" style="fill:none;stroke:#000;stroke-width:2;stroke-linecap:round;stroke-linejoin:round;stroke-miterlimit:4;stroke-dasharray:none;stroke-opacity:1"/><path d="M12.415 22.28h58.15" style="fill:none;stroke:#000;stroke-width:2;stroke-linecap:butt;stroke-linejoin:miter;stroke-miterlimit:4;stroke-dasharray:none;stroke-opacity:1"/><g style="stroke-width:2.27857897;stroke-miterlimit:4;stroke-dasharray:none"><path d="M-66.858-3.379V5.57m0-8.949V5.57" style="fill:none;stroke:#000;stroke-width:2.27857897;stroke-linecap:round;stroke-linejoin:round;stroke-miterlimit:4;stroke-dasharray:none;stroke-opacity:1" transform="translate(113.254 7.91) scale(.87774)"/></g><g style="stroke-width:2.27857897;stroke-miterlimit:4;stroke-dasharray:none"><path d="M-66.858-3.379V5.57m0-8.949V5.57" style="fill:none;stroke:#000;stroke-width:2.27857897;stroke-linecap:round;stroke-linejoin:round;stroke-miterlimit:4;stroke-dasharray:none;stroke-opacity:1" transform="translate(99.776 7.91) scale(.87774)"/></g><g style="stroke-width:2.27857897;stroke-miterlimit:4;stroke-dasharray:none"><path d="M-66.858-3.379V5.57m0-8.949V5.57" style="fill:none;stroke:#000;stroke-width:2.27857897;stroke-linecap:round;stroke-linejoin:round;stroke-miterlimit:4;stroke-dasharray:none;stroke-opacity:1" transform="translate(86.299 7.91) scale(.87774)"/></g></g></svg>