<svg xmlns="http://www.w3.org/2000/svg" width="216" height="216" fill="none"><g stroke-width="4" clip-path="url(#a)" style="stroke:#000;stroke-opacity:1"><path stroke-linecap="round" stroke-linejoin="round" d="M145.471 36.053H70.544v67.618h74.927V36.053Z" style="stroke:#000;stroke-opacity:1"/><path stroke-linecap="round" stroke-linejoin="round" d="M134.386 67.31H81.631v25.526h52.755V67.31Z" style="stroke:#000;stroke-opacity:1"/><path d="m70.544 56.039 74.927.14" style="stroke:#000;stroke-opacity:1"/><path stroke-linecap="round" stroke-linejoin="round" d="M116.784 103.671h-17.55v15.755h17.55v-15.755Z" style="stroke:#000;stroke-opacity:1"/><path d="M108.008 119.426v12.921m37.464-62.485h22.08v62.485M70.545 69.862h-22.08v62.485" style="stroke:#000;stroke-opacity:1"/><path stroke-linecap="round" stroke-linejoin="round" d="M39.674 132.347h17.55v13.634h-17.55v-13.634Z" style="stroke:#000;stroke-opacity:1"/><path stroke-linecap="round" stroke-linejoin="round" d="M31.285 145.977h34.329v34.12H31.285v-34.12Z" style="stroke:#000;stroke-opacity:1"/><path stroke-linecap="round" stroke-linejoin="round" d="M57.13 154.551H39.771v16.972h17.357v-16.972Zm42.102-22.204h17.55v13.634h-17.55v-13.634Z" style="stroke:#000;stroke-opacity:1"/><path stroke-linecap="round" stroke-linejoin="round" d="M90.843 145.977h34.328v34.12H90.843v-34.12Z" style="stroke:#000;stroke-opacity:1"/><path stroke-linecap="round" stroke-linejoin="round" d="M116.687 154.551H99.329v16.972h17.358v-16.972Zm42.09-22.204h17.551v13.634h-17.551v-13.634Z" style="stroke:#000;stroke-opacity:1"/><path stroke-linecap="round" stroke-linejoin="round" d="M150.388 145.977h34.328v34.12h-34.328v-34.12Z" style="stroke:#000;stroke-opacity:1"/><path stroke-linecap="round" stroke-linejoin="round" d="M176.23 154.551h-17.358v16.972h17.358v-16.972Z" style="stroke:#000;stroke-opacity:1"/></g><defs><clipPath id="a"><path fill="#fff" d="M0 0h216v216H0z"/></clipPath></defs></svg>