<svg xmlns="http://www.w3.org/2000/svg" width="216" height="217" fill="none"><path fill="#000" d="M72.54 128.156c1.344 2.39 3.099 4.902 4.954 7.564 3.926 5.621 8.295 11.951 8.77 17.446a6.169 6.169 0 0 0-1.935 2.255 6.198 6.198 0 0 0-.66 2.903 6.465 6.465 0 0 0 1.432 4.033 6.705 6.705 0 0 0-1.985 4.811 6.53 6.53 0 0 0 1.9 4.609 6.472 6.472 0 0 0 4.588 1.91h36.769a6.516 6.516 0 0 0 4.63-1.975 6.562 6.562 0 0 0 1.859-4.696 6.518 6.518 0 0 0-1.99-4.681 6.732 6.732 0 0 0 1.436-4.163 6.237 6.237 0 0 0-4.031-5.826 6.17 6.17 0 0 0-2.458-.388h-15.67v-41.361h4.326v6.518a2.178 2.178 0 0 0 1.335 2.008c.263.109.544.165.828.165h6.489v2.573a6.494 6.494 0 0 0-3.434 2.848 6.545 6.545 0 0 0-.799 4.4 6.527 6.527 0 0 0 2.213 3.882 6.474 6.474 0 0 0 4.183 1.535c1.53 0 3.012-.544 4.182-1.535a6.539 6.539 0 0 0 1.414-8.282 6.494 6.494 0 0 0-3.434-2.848v-4.746a2.175 2.175 0 0 0-1.335-2.007 2.153 2.153 0 0 0-.827-.165h-6.489v-4.346h8.651a2.152 2.152 0 0 0 1.999-1.342 2.19 2.19 0 0 0 .164-.831v-4.346h13.376a6.51 6.51 0 0 0 2.834 3.45 6.463 6.463 0 0 0 4.38.802 6.48 6.48 0 0 0 3.864-2.223 6.536 6.536 0 0 0 0-8.403 6.483 6.483 0 0 0-3.864-2.223 6.463 6.463 0 0 0-4.38.802 6.51 6.51 0 0 0-2.834 3.45h-13.376V91.04h8.652a2.15 2.15 0 0 0 1.529-.637 2.176 2.176 0 0 0 .634-1.536v-9.091a6.492 6.492 0 0 0 3.433-2.848 6.54 6.54 0 0 0-1.414-8.282 6.469 6.469 0 0 0-8.364 0 6.546 6.546 0 0 0-1.415 8.282 6.498 6.498 0 0 0 3.434 2.848v6.918h-6.489v-4.346a2.177 2.177 0 0 0-1.335-2.007 2.154 2.154 0 0 0-.828-.166h-4.325V68.912a6.498 6.498 0 0 0 3.434-2.847 6.546 6.546 0 0 0 .798-4.401 6.528 6.528 0 0 0-2.213-3.882 6.469 6.469 0 0 0-8.364 0 6.518 6.518 0 0 0-2.213 3.882 6.546 6.546 0 0 0 .798 4.4 6.498 6.498 0 0 0 3.434 2.848v11.264h-8.652v-34.69a2.175 2.175 0 0 0-1.335-2.007 2.15 2.15 0 0 0-.827-.166c-26.682 0-47.584 19.409-47.584 44.182 0 11.768 4.65 27.35 12.136 40.661Zm52.75-2.349c.427 0 .846.127 1.201.366a2.173 2.173 0 0 1 .92 2.231 2.164 2.164 0 0 1-1.699 1.707 2.167 2.167 0 0 1-2.585-2.131 2.186 2.186 0 0 1 .633-1.537 2.158 2.158 0 0 1 1.53-.636Zm23.791-26.075a2.165 2.165 0 0 1 1.998 1.342c.164.397.207.834.123 1.255a2.175 2.175 0 0 1-.591 1.113 2.154 2.154 0 0 1-2.358.471 2.176 2.176 0 0 1 .828-4.18Zm-10.814-28.247c.428 0 .846.127 1.201.366a2.171 2.171 0 0 1 .92 2.23 2.17 2.17 0 0 1-1.699 1.708 2.154 2.154 0 0 1-2.221-.924 2.185 2.185 0 0 1 .269-2.744 2.16 2.16 0 0 1 1.53-.636ZM120.964 60.62a2.171 2.171 0 0 1 2.121 2.597 2.168 2.168 0 0 1-1.699 1.707 2.155 2.155 0 0 1-2.221-.924 2.185 2.185 0 0 1 .269-2.743 2.16 2.16 0 0 1 1.53-.637Zm-10.815 23.902h15.141v21.729h-15.141V84.522Zm16.222 84.819H89.602a2.204 2.204 0 0 1-2.163-2.325c0-.576.228-1.129.634-1.537a2.16 2.16 0 0 1 1.53-.636h36.768a2.2 2.2 0 0 1 2.032 1.453c.102.279.146.575.131.872 0 .576-.228 1.129-.634 1.536a2.154 2.154 0 0 1-1.529.637Zm-.554-13.037a1.976 1.976 0 0 1 2.006 1.204c.109.258.163.536.157.816 0 .577-.228 1.129-.633 1.537a2.16 2.16 0 0 1-1.53.636H90.156a2.187 2.187 0 0 1-1.573-.701 2.216 2.216 0 0 1-.59-1.624 1.965 1.965 0 0 1 .676-1.408 1.946 1.946 0 0 1 1.487-.46h35.661Zm-33.204-42.696a23.88 23.88 0 0 1-2.769-2.781 2.161 2.161 0 0 0-2.322-.652l-2.858.943a27.917 27.917 0 0 1-1.912-3.272l2.27-2.043a2.171 2.171 0 0 0 .592-2.353 23.805 23.805 0 0 1-1.015-3.785 2.176 2.176 0 0 0-.578-1.127 2.16 2.16 0 0 0-1.106-.611l-2.968-.628a24.971 24.971 0 0 1-.078-1.906c0-.602.027-1.232.078-1.906l2.968-.627a2.16 2.16 0 0 0 1.106-.611c.3-.31.501-.703.578-1.128a23.916 23.916 0 0 1 1.015-3.787 2.183 2.183 0 0 0-.593-2.353l-2.269-2.04a28.514 28.514 0 0 1 1.912-3.273l2.857.943a2.168 2.168 0 0 0 2.326-.652 24.203 24.203 0 0 1 2.77-2.788 2.174 2.174 0 0 0 .649-2.331l-.937-2.87a28.117 28.117 0 0 1 3.245-1.921l2.033 2.279a2.161 2.161 0 0 0 2.342.595 23.192 23.192 0 0 1 3.768-1.019 2.166 2.166 0 0 0 1.73-1.692l.377-1.724v7.47a19.438 19.438 0 0 0-12.305 6.415 19.608 19.608 0 0 0-4.936 13.014c0 4.799 1.757 9.431 4.936 13.013a19.432 19.432 0 0 0 12.305 6.414v7.473l-.359-1.71a2.178 2.178 0 0 0-.608-1.113 2.154 2.154 0 0 0-1.123-.582 23.385 23.385 0 0 1-3.767-1.019 2.148 2.148 0 0 0-2.342.595l-2.034 2.28a28.013 28.013 0 0 1-3.257-1.921l.938-2.871a2.181 2.181 0 0 0-.66-2.338Zm13.211-33.258v30.073a15.104 15.104 0 0 1-9.277-5.088 15.231 15.231 0 0 1-3.694-9.948c0-3.655 1.311-7.187 3.694-9.95a15.102 15.102 0 0 1 9.277-5.087Zm0-32.643v15.18c-.574.043-1.16.095-1.787.171a2.154 2.154 0 0 0-1.2.555 2.18 2.18 0 0 0-.656 1.153l-.648 3.149c-.543.13-1.082.276-1.625.434l-2.163-2.416a2.16 2.16 0 0 0-2.459-.55 32.53 32.53 0 0 0-6.804 3.992 2.173 2.173 0 0 0-.753 2.414l.993 3.042c-.41.387-.807.786-1.192 1.197l-3.028-.997a2.167 2.167 0 0 0-2.4.754 32.653 32.653 0 0 0-3.963 6.842 2.182 2.182 0 0 0 .547 2.471l2.405 2.173a26.008 26.008 0 0 0-.432 1.632l-3.134.651a2.16 2.16 0 0 0-1.148.659 2.178 2.178 0 0 0-.552 1.206 29.964 29.964 0 0 0 0 7.935 2.175 2.175 0 0 0 1.7 1.865l3.134.652c.13.546.274 1.09.432 1.631l-2.405 2.173a2.176 2.176 0 0 0-.547 2.471 32.642 32.642 0 0 0 3.975 6.84 2.178 2.178 0 0 0 2.403.754l3.028-.997c.385.411.782.81 1.192 1.197l-.993 3.042a2.183 2.183 0 0 0 .75 2.414 32.464 32.464 0 0 0 6.807 3.996 2.15 2.15 0 0 0 2.46-.55l2.162-2.416c.539.165 1.082.311 1.625.435l.649 3.146a2.164 2.164 0 0 0 1.853 1.71c.627.076 1.213.13 1.789.172v24.069H90.53c-.885-6.402-5.433-12.918-9.493-18.735-1.795-2.573-3.49-4.998-4.73-7.205-7.036-12.505-11.578-27.626-11.578-38.523 0-21.66 17.88-38.784 41.095-39.788Z"/><path fill="#000" d="m126.826 146.884 4.021 1.601a32.74 32.74 0 0 1 1.787-3.743l-3.788-2.102a37.12 37.12 0 0 0-2.02 4.244Zm10.435-9.417-3.549-2.482c-.852 1.226-1.7 2.473-2.511 3.733l3.632 2.36a137.048 137.048 0 0 1 2.428-3.611Zm5.03-7.399-3.661-2.305a98.347 98.347 0 0 1-2.395 3.602l3.554 2.477a108.363 108.363 0 0 0 2.502-3.774Zm4.303-8.015-3.893-1.871a94.89 94.89 0 0 1-1.947 3.863l3.816 2.051a114.565 114.565 0 0 0 2.024-4.043Zm3.524-8.319-4.049-1.521a98.825 98.825 0 0 1-1.605 4.025l3.982 1.701a106.488 106.488 0 0 0 1.672-4.205Zm5.271-22.041c.121-1.445.181-2.855.181-4.19v-.434l-4.325.034v.398c0 1.212-.057 2.5-.169 3.824l4.313.368Zm-5.136-12.892c.317 1.361.558 2.74.72 4.129l4.298-.515a42.771 42.771 0 0 0-.805-4.594l-4.213.98Zm-2.785-7.868a37.31 37.31 0 0 1 1.613 3.857l4.075-1.454a41.783 41.783 0 0 0-1.799-4.304l-3.889 1.901Zm-4.444-7.066a39.234 39.234 0 0 1 2.418 3.416l3.653-2.317a44.514 44.514 0 0 0-2.686-3.798l-3.385 2.699Zm-5.854-5.987a40.508 40.508 0 0 1 3.082 2.842l3.085-3.042a45.31 45.31 0 0 0-3.409-3.144l-2.758 3.344Zm-.944-6.13a46.182 46.182 0 0 0-3.952-2.39l-2.057 3.825a45.842 45.842 0 0 1 3.595 2.173l2.414-3.607Zm-8.106-4.384a48.069 48.069 0 0 0-4.325-1.608l-1.317 4.133c1.347.434 2.673.919 3.94 1.46l1.702-3.985Zm-8.765-2.826a52.237 52.237 0 0 0-4.532-.797l-.553 4.314c1.395.18 2.79.423 4.148.727l.937-4.243Z"/></svg>