<svg xmlns="http://www.w3.org/2000/svg" width="467.915" height="467.915" viewBox="0 0 438.67 438.67"><g transform="translate(-145.068 -156.652)"><circle cx="364.403" cy="375.987" r="212.387" style="opacity:1;fill:#fff;fill-opacity:1;stroke:#f48128;stroke-width:4.89010811;stroke-linecap:round;stroke-linejoin:round;stroke-miterlimit:4;stroke-dasharray:none;stroke-dashoffset:0;stroke-opacity:1"/><circle cx="364.403" cy="375.987" r="158.929" style="opacity:1;fill:#f48128;fill-opacity:1;stroke:none;stroke-width:0;stroke-linecap:butt;stroke-linejoin:miter;stroke-miterlimit:4;stroke-dasharray:none;stroke-opacity:1"/><path d="m511.02 539.117-8.778 7.4-9.076 7.032-9.504 6.442-9.762 6.045-10.125 5.413-10.34 4.991-10.636 4.325-10.805 3.883-11.03 3.19-11.15 2.732-11.303 2.02-11.377 1.551-11.451.827-11.476.354-11.476-.374-11.45-.848-11.374-1.572-11.298-2.04-11.147-2.752-11.024-3.21-10.798-3.902-10.628-4.344-10.33-5.01-10.117-5.431-9.75-6.063-9.493-6.459-9.063-7.048-8.766-7.416-8.277-7.957-7.942-8.291-7.4-8.779-7.032-9.076-6.442-9.504-6.045-9.762-5.413-10.125-4.991-10.34-4.325-10.636-3.883-10.805-3.19-11.03-2.732-11.15-2.02-11.304-1.552-11.376-.826-11.451-.355-11.477.375-11.475.848-11.45 1.572-11.374 2.04-11.299 2.752-11.146 3.21-11.024 3.902-10.798 4.344-10.628 5.01-10.331 5.431-10.116 6.063-9.75 6.458-9.493 7.049-9.063 7.416-8.766 7.957-8.277 8.291-7.942 8.779-7.4 9.076-7.032 9.504-6.442 9.762-6.045 10.125-5.413 10.34-4.991 10.636-4.325 10.805-3.883 11.03-3.19 11.15-2.733 11.303-2.019 11.377-1.552 11.451-.826 11.476-.355 11.476.375 11.45.848 11.373 1.572 11.3 2.04 11.146 2.752 11.024 3.21 10.798 3.902 10.628 4.344 10.33 5.01 10.117 5.431 9.75 6.063 9.493 6.458 9.063 7.049 8.766 7.415 8.277 7.958 7.942 8.291 7.4 8.779 7.032 9.076 6.442 9.504 6.045 9.761 5.413 10.126 4.991 10.34 4.325 10.635 3.883 10.805 3.19 11.03 2.732 11.152 2.02 11.302 1.552 11.377.826 11.451.354 11.476-.374 11.476-.848 11.45-1.572 11.373-2.04 11.3-2.752 11.146-3.21 11.024-3.902 10.798-4.344 10.628-5.01 10.33-5.431 10.116-6.063 9.751-6.459 9.493-7.048 9.063-7.416 8.765-7.957 8.278z" style="opacity:1;fill:#f48128;fill-opacity:1;stroke:none;stroke-width:1;stroke-linecap:butt;stroke-linejoin:miter;stroke-miterlimit:4;stroke-dasharray:none;stroke-opacity:1"/><path d="M364.405 177.197c-109.53 0-198.792 89.262-198.792 198.792s89.262 198.79 198.792 198.79 198.79-89.26 198.79-198.79c0-109.53-89.26-198.792-198.79-198.792zm0 43.75c85.886 0 155.041 69.156 155.041 155.042 0 85.885-69.155 155.04-155.041 155.04s-155.041-69.155-155.041-155.04c0-85.886 69.155-155.042 155.041-155.042z" style="color:#000;font-style:normal;font-variant:normal;font-weight:400;font-stretch:normal;font-size:medium;line-height:normal;font-family:sans-serif;text-indent:0;text-align:start;text-decoration:none;text-decoration-line:none;text-decoration-style:solid;text-decoration-color:#000;letter-spacing:normal;word-spacing:normal;text-transform:none;direction:ltr;block-progression:tb;writing-mode:lr-tb;baseline-shift:baseline;text-anchor:start;white-space:normal;clip-rule:nonzero;display:inline;overflow:visible;visibility:visible;opacity:1;isolation:auto;mix-blend-mode:normal;color-interpolation:sRGB;color-interpolation-filters:linearRGB;solid-color:#000;solid-opacity:1;fill:#fff;fill-opacity:1;fill-rule:nonzero;stroke:none;stroke-width:1;stroke-linecap:round;stroke-linejoin:round;stroke-miterlimit:4;stroke-dasharray:none;stroke-dashoffset:0;stroke-opacity:1;color-rendering:auto;image-rendering:auto;shape-rendering:auto;text-rendering:auto;enable-background:accumulate"/><g style="opacity:1"><g transform="translate(-3625.718 2195.13) scale(1.22253)"><g style="opacity:1;fill:#4d4d4d;fill-opacity:1;stroke:none;stroke-opacity:1"><g style="fill:#4d4d4d;fill-opacity:1;stroke:none;stroke-opacity:1"><g style="font-style:normal;font-weight:400;font-size:23.66156006px;line-height:100%;font-family:sans-serif;letter-spacing:.59153903px;word-spacing:0;fill:#4d4d4d;fill-opacity:1;stroke:none;stroke-width:1px;stroke-linecap:butt;stroke-linejoin:miter;stroke-opacity:1"><path d="m375.465 215.384-2.199-.12q1.039-1 1.59-2.17.55-1.16.624-2.503.146-2.643-1.398-4.136-1.533-1.492-4.589-1.66-3.045-.168-4.743 1.147-1.688 1.316-1.833 3.958-.074 1.342.346 2.556.42 1.224 1.342 2.331l-2.178-.12q-.683-1.135-.987-2.383-.305-1.239-.23-2.602.192-3.5 2.44-5.395 2.258-1.895 5.964-1.691 3.716.204 5.743 2.335 2.036 2.13 1.844 5.63-.076 1.384-.515 2.582-.429 1.208-1.22 2.241zm-1.974 11.686q.402-2.239-1.03-3.861-1.433-1.612-4.313-2.129-2.87-.514-4.775.499-1.906 1.024-2.307 3.262-.402 2.24 1.033 3.841 1.434 1.612 4.304 2.127 2.88.517 4.784-.497 1.902-1.003 2.304-3.242zm1.669.3q-.573 3.195-3.064 4.723-2.48 1.53-6.082.884-3.592-.645-5.397-2.943-1.793-2.297-1.22-5.492.575-3.206 3.057-4.746 2.48-1.53 6.082-.883 3.603.646 5.397 2.942 1.802 2.309 1.227 5.514zm-3.011 12.376-.597 2.002-13.108-3.908-2.147 7.203-1.685-.502 2.744-9.204 14.793 4.41zm-4.228 13.164-.782 1.937-12.684-5.119-2.813 6.97-1.63-.657 3.595-8.907 14.314 5.776zm-5.461 12.802-4.536 8.642-1.556-.816 3.564-6.793-4.046-2.124-3.416 6.51-1.556-.818 3.416-6.509-4.953-2.599-3.651 6.958-1.557-.817 4.622-8.807 13.668 7.173zm-24.467 15.063 3.422 2.34 1.926-2.815 1.417.969-3.094 4.522-5.47-3.741q-.025-1.483.43-2.938.466-1.448 1.4-2.813 2.043-2.987 4.94-3.485 2.899-.485 6.013 1.646 3.123 2.137 3.714 5.008.593 2.887-1.45 5.873-.852 1.246-1.924 2.154-1.078.916-2.323 1.455l-1.835-1.256q1.465-.4 2.61-1.196 1.145-.795 1.957-1.98 1.6-2.339 1.1-4.41-.507-2.062-3.092-3.83-2.577-1.763-4.683-1.488-2.11.285-3.71 2.623-.625.913-.962 1.735-.328.827-.386 1.627zm5.866 14.034-6.408 7.362-1.326-1.154 5.037-5.787-3.447-3-4.826 5.545-1.326-1.154 4.826-5.545-4.22-3.672-5.158 5.927-1.326-1.154 6.53-7.502 11.644 10.134zm-22.321 20.175q1.765-1.435 1.738-3.599-.036-2.157-1.882-4.427-1.84-2.262-3.944-2.735-2.113-.468-3.877.967-1.765 1.436-1.722 3.586.036 2.157 1.875 4.419 1.846 2.27 3.951 2.744 2.097.48 3.861-.955zm1.07 1.315q-2.519 2.049-5.403 1.583-2.878-.458-5.187-3.298-2.303-2.831-2.172-5.75.138-2.91 2.657-4.959 2.527-2.055 5.412-1.604 2.878.458 5.188 3.298 2.309 2.84 2.171 5.75-.14 2.925-2.666 4.98zm-10.356 7.431-7.468 4.787-.949-1.48 5.71-3.66-2.455-3.83-5.153 3.304-.948-1.48 5.152-3.303-3.978-6.206 1.758-1.127 8.33 12.995zm-19.178 10.988-1.889.89-6.585-13.96 1.889-.89 6.585 13.96zm-7.443 3.447-2.639.971-10.883-9.754 4.46 12.118-1.902.7-5.331-14.485 2.639-.972 10.883 9.755-4.46-12.119 1.902-.7 5.331 14.486zm-17.174 5.833-8.613 2.124-.421-1.706 6.585-1.625-1.09-4.416-5.942 1.466-.421-1.707 5.942-1.466-1.765-7.157 2.027-.5 3.698 14.987zm-20.577 2.644q2.255-.291 3.37-2.145 1.106-1.852.732-4.754-.373-2.892-1.913-4.402-1.55-1.51-3.806-1.219-2.256.291-3.351 2.142-1.106 1.853-.733 4.744.375 2.902 1.915 4.413 1.53 1.512 3.785 1.221zm.216 1.682q-3.22.415-5.427-1.5-2.205-1.904-2.674-5.534-.467-3.62 1.181-6.032 1.65-2.402 4.87-2.817 3.23-.417 5.446 1.486 2.205 1.904 2.674 5.534.468 3.63-1.181 6.032-1.659 2.414-4.889 2.83zm-20.227-7.241q-.674-.222-1.31-.962-.646-.74-1.296-2.039l-2.148-4.203 2.243-.016 2.002 3.946q.776 1.546 1.503 2.048.717.501 1.957.493l2.275-.016-.045-6.524 2.089-.014.106 15.436-4.715.032q-2.646.018-3.957-1.08-1.31-1.096-1.325-3.33-.01-1.457.665-2.423.666-.967 1.956-1.348zm5.275 6.447-.037-5.48-2.626.018q-1.51.01-2.27.709-.77.708-.761 2.062.009 1.355.79 2.032.769.687 2.278.677l2.626-.018zm-15.187 1.51-3.09-.374-2.648-10.902-5.193 9.952-3.09-.374 1.856-15.324 2.022.245-1.63 13.456 5.225-10.032 2.083.252 2.68 10.989 1.628-13.456 2.012.244-1.855 15.324zm-25.036-6.293 4.594-6.777-5.51-1.362.916 8.14zm.65 2.28-2.298-.568-2.006-16.396 2.108.52.414 4.182 6.755 1.67 2.315-3.507 2.138.529-9.425 13.57zm-8.591-2.229-12.291-4.41.594-1.655 5.157 1.851 4.62-12.874 1.976.709-4.62 12.874 5.157 1.85-.594 1.655zm-15.748-6.032-1.905-.855 6.318-14.083 1.906.855-6.319 14.083zm-12.272-7.724q1.982 1.116 3.985.298 1.994-.824 3.43-3.373 1.43-2.54 1.099-4.673-.34-2.137-2.322-3.252-1.982-1.116-3.967-.288-1.994.824-3.424 3.364-1.435 2.55-1.105 4.682.322 2.126 2.304 3.242zm-.832 1.478q-2.829-1.593-3.452-4.447-.63-2.846 1.166-6.035 1.79-3.18 4.554-4.128 2.76-.938 5.588.654 2.838 1.598 3.476 4.448.629 2.846-1.167 6.035-1.795 3.19-4.554 4.128-2.773.942-5.61-.655zm-10.92-6.987-2.257-1.678 2.213-14.447-7.705 10.363-1.627-1.21 9.21-12.386 2.257 1.678-2.212 14.446 7.705-10.362 1.626 1.209-9.21 12.387zm-22.43-21.97 7.524-3.228-3.904-4.12-3.62 7.348zm-.682 2.271-1.629-1.718 7.156-14.889 1.494 1.576-1.907 3.745 4.787 5.05 3.841-1.704 1.515 1.598-15.257 6.342zm-8.626-9.605-1.682-2.255 6.261-13.206-10.352 7.72-1.211-1.625 12.374-9.227 1.681 2.254-6.26 13.206 10.352-7.719 1.211 1.625-12.375 9.227zm-10.19-17.625 10.444-5.917-1.244-2.195q-1.575-2.78-3.563-3.353-1.993-.582-4.71.958-2.698 1.529-3.215 3.532-.53 2 1.044 4.78l1.244 2.195zm-.464 2.663-2.115-3.733q-2.212-3.904-1.618-6.653.585-2.743 4.039-4.7 3.472-1.968 6.14-1.055 2.668.913 4.87 4.799l2.114 3.733-13.43 7.609zm-14.774-35.388 2.078-.73q-.577 1.32-.638 2.613-.064 1.283.381 2.55.878 2.498 2.875 3.286 1.988.792 4.875-.222 2.878-1.012 3.943-2.876 1.055-1.862.178-4.359-.446-1.268-1.298-2.228-.856-.97-2.132-1.64l2.058-.723q1.065.787 1.824 1.824.756 1.028 1.208 2.315 1.162 3.307-.188 5.919-1.36 2.615-4.863 3.845-3.511 1.234-6.199.042-2.697-1.19-3.859-4.496-.46-1.307-.512-2.582-.067-1.28.27-2.538zm-2.64-11.572q.484 2.223 2.426 3.176 1.94.943 4.8.32 2.848-.619 4.222-2.282 1.371-1.674.888-3.896-.484-2.223-2.422-3.156-1.94-.943-4.789-.323-2.859.622-4.232 2.285-1.376 1.654-.893 3.876zm-1.656.36q-.69-3.172 1.028-5.535 1.709-2.36 5.285-3.138 3.566-.776 6.111.66 2.535 1.438 3.225 4.61.692 3.183-1.015 5.553-1.708 2.361-5.285 3.139-3.576.778-6.11-.66-2.547-1.446-3.24-4.629zm-2.104-12.942-.243-3.103 10.164-4.747-10.78-3.127-.244-3.103 15.389-1.205.159 2.03-13.513 1.059 10.866 3.141.163 2.093-10.243 4.795 13.512-1.059.159 2.02-15.39 1.206zm-1.158-21.01.193-3.106 10.729-3.28-10.238-4.604.193-3.106 15.406.958-.127 2.033-13.528-.841 10.32 4.63-.13 2.094-10.814 3.316 13.528.841-.126 2.023-15.406-.958zm1.782-20.585.404-2.06 9.202 1.803q2.435.477 3.683-.195 1.239-.674 1.626-2.652.386-1.968-.507-3.06-.902-1.093-3.337-1.57l-9.202-1.803.403-2.06 9.456 1.853q2.963.58 4.186 2.348 1.226 1.757.665 4.618-.562 2.871-2.362 4.046-1.798 1.165-4.76.585l-9.457-1.853zm3.898-17.821.876-2.673 14.403-2.482-12.271-4.022.631-1.925 14.668 4.807-.876 2.673-14.402 2.482 12.27 4.021-.63 1.926-14.669-4.807zm5.995-16.746.823-1.92 14.187 6.082-.822 1.92-14.188-6.082zm9.753-17.096 1.944 1.035q-1.362.47-2.355 1.3-.987.821-1.618 2.008-1.244 2.337-.47 4.34.763 2 3.464 3.437 2.693 1.432 4.786.953 2.085-.484 3.328-2.82.631-1.187.76-2.465.135-1.287-.237-2.68l1.926 1.026q.142 1.317-.107 2.578-.244 1.252-.885 2.456-1.647 3.095-4.483 3.87-2.845.769-6.122-.974-3.286-1.748-4.228-4.534-.952-2.79.694-5.884.65-1.223 1.553-2.125.897-.916 2.05-1.52zm6.495-8.337 4.758 6.662 3.193-4.693-7.95-1.97zm-2.364-.184 1.332-1.957 16.071 3.818-1.221 1.796-4.065-1.065-3.914 5.753 2.483 3.39-1.238 1.82-9.448-13.555zm5.066-7.267 8.396-10 1.346 1.13-3.523 4.196 10.475 8.795-1.35 1.607-10.475-8.795-3.523 4.197-1.346-1.13zm11.101-12.674 1.461-1.492 11.032 10.797-1.46 1.492-11.032-10.797zm11.477-8.843q-1.73 1.476-1.653 3.638.085 2.156 1.983 4.383 1.892 2.218 4.007 2.643 2.123.418 3.853-1.057 1.731-1.476 1.638-3.625-.085-2.156-1.976-4.374-1.899-2.227-4.014-2.652-2.107-.431-3.838 1.044zm-1.1-1.29q2.47-2.106 5.365-1.707 2.888.391 5.262 3.176 2.368 2.777 2.304 5.698-.07 2.914-2.54 5.02-2.479 2.113-5.374 1.728-2.888-.39-5.263-3.176-2.374-2.785-2.304-5.698.072-2.928 2.55-5.04zm10.319-7.841 2.352-1.54 12.8 7.054-7.073-10.803 1.695-1.11 8.455 12.914-2.353 1.54-12.8-7.054 7.074 10.803-1.695 1.11-8.455-12.914zm23.963-13.292.913 1.82q-1.318.025-2.385.248-1.068.223-1.946.664-1.525.765-2.06 1.773-.526 1.004.021 2.095.459.915 1.24 1.112.787.184 2.465-.299l1.243-.334q2.288-.65 3.782-.139 1.499.498 2.342 2.18 1.006 2.005.176 3.717-.82 1.707-3.418 3.01-.98.49-2.2.825-1.21.33-2.611.489l-.964-1.922q1.456.067 2.709-.156 1.253-.224 2.306-.752 1.599-.802 2.152-1.866.554-1.064-.03-2.229-.51-1.016-1.426-1.274-.906-.262-2.473.165l-1.248.348q-2.297.632-3.676.213-1.378-.42-2.17-2-.918-1.83-.162-3.527.765-1.703 3.03-2.838.97-.487 2.065-.817 1.095-.33 2.325-.506zm11.254-5.272 12.456-3.92.527 1.676-5.226 1.645 4.107 13.047-2.002.63-4.107-13.047-5.227 1.645-.528-1.676zm16.582-4.884 9.564-1.945.35 1.722-7.517 1.53.91 4.477 7.204-1.465.35 1.723-7.203 1.465 1.115 5.48 7.7-1.565.35 1.722-9.746 1.982-3.077-15.126zm27.065-2.669.198 2.193q-1.138-.883-2.376-1.26-1.228-.376-2.567-.256-2.636.238-3.89 1.981-1.256 1.733-.98 4.78.274 3.038 1.82 4.529 1.545 1.48 4.181 1.242 1.339-.121 2.48-.712 1.15-.592 2.112-1.665l.196 2.173q-1.024.84-2.216 1.321-1.182.48-2.541.603-3.49.315-5.691-1.635-2.201-1.96-2.535-5.657-.334-3.707 1.481-6.02 1.815-2.323 5.306-2.638 1.38-.124 2.628.137 1.258.25 2.395.884zm5.571-1.336 2.088.06-.181 6.325 7.585.217.181-6.325 2.088.06-.441 15.43-2.088-.06.21-7.348-7.585-.217-.21 7.348-2.088-.06.441-15.43zm18.394.935 2.78.425 4.813 13.8 1.953-12.765 2.003.306-2.334 15.259-2.78-.426-4.813-13.8-1.953 12.766-2.003-.307 2.334-15.258zm23.758 6.267q-2.186-.628-3.945.632-1.75 1.262-2.556 4.074-.804 2.803.01 4.8.825 2.001 3.012 2.628 2.186.627 3.926-.638 1.75-1.262 2.553-4.065.806-2.813-.008-4.81-.805-1.995-2.991-2.622zm.468-1.63q3.12.894 4.388 3.527 1.27 2.623.26 6.14-1.005 3.51-3.475 5.07-2.467 1.552-5.587.657-3.131-.898-4.41-3.524-1.27-2.622-.262-6.14 1.009-3.519 3.476-5.07 2.48-1.558 5.61-.66zm11.964 4.248 1.933.791-5.186 12.658 6.956 2.849-.666 1.626-8.888-3.64 5.851-14.284zm17.082 9.472q-1.998-1.087-3.989-.239-1.982.853-3.38 3.423-1.392 2.561-1.03 4.688.37 2.132 2.37 3.218 1.997 1.087 3.97.23 1.982-.853 3.374-3.415 1.398-2.57 1.036-4.697-.353-2.122-2.351-3.208zm.81-1.49q2.852 1.55 3.518 4.396.67 2.836-1.078 6.051-1.743 3.207-4.493 4.195-2.745.979-5.597-.572-2.861-1.556-3.54-4.397-.671-2.835 1.077-6.05 1.748-3.216 4.493-4.195 2.759-.983 5.62.572zm11.822 23.708 2.419-3.367-2.77-1.99 1-1.395 4.45 3.198-3.866 5.382q-1.483-.01-2.927-.499-1.437-.498-2.78-1.463-2.939-2.111-3.37-5.019-.418-2.91 1.784-5.974 2.208-3.073 5.092-3.598 2.9-.526 5.838 1.585 1.226.88 2.109 1.973.891 1.099 1.4 2.356l-1.296 1.805q-.368-1.473-1.136-2.636-.768-1.163-1.935-2.002-2.301-1.653-4.383-1.2-2.073.458-3.9 3.002-1.823 2.536-1.595 4.647.235 2.117 2.536 3.77.898.645 1.712 1 .82.348 1.618.425zm11.707-7.649 1.666 1.502-1.07 7.58 7.406-1.87 1.666 1.503-9.468 2.35-4.921 5.46-1.56-1.405 4.922-5.46 1.359-9.66z" style="font-size:21.1738987px;fill:#4d4d4d;fill-opacity:1;stroke:none;stroke-opacity:1" transform="rotate(112.398 2317.11 373.113) scale(1.02954)"/></g></g><g style="opacity:1;fill:#4d4d4d;fill-opacity:1;stroke:none;stroke-opacity:1"><g style="font-style:normal;font-weight:400;font-size:23.66156006px;line-height:100%;font-family:sans-serif;letter-spacing:.59153903px;word-spacing:0;fill:#4d4d4d;fill-opacity:1;stroke:none;stroke-width:1px;stroke-linecap:butt;stroke-linejoin:miter;stroke-opacity:1"><path d="m268.13 655.601.388 2.077-12.247 5.6 13.441.781.432 2.311-12.247 5.6 13.442.782.39 2.086-15.91-.973-.484-2.585 12.59-5.675-13.796-.768-.484-2.585 14.484-6.65zm-8.344 32.001L272.4 676.89l.727 2.06-10.644 8.952 13.908.296.724 2.05-16.54-.41-.789-2.236zm22.328 13.153-1.826.91q-.021-1.32-.241-2.39-.22-1.071-.66-1.952-.76-1.53-1.77-2.068-1.003-.53-2.097.015-.918.457-1.118 1.239-.187.787.292 2.469l.331 1.246q.644 2.293.128 3.788-.503 1.5-2.19 2.34-2.012 1.001-3.724.165-1.707-.828-3.004-3.432-.49-.983-.82-2.206-.327-1.214-.482-2.618l1.928-.96q-.072 1.46.148 2.715.22 1.255.746 2.312.799 1.603 1.863 2.161t2.232-.024q1.02-.508 1.28-1.424.266-.907-.157-2.478l-.345-1.25q-.626-2.304-.202-3.683.424-1.38 2.009-2.168 1.835-.914 3.533-.152 1.703.772 2.834 3.043.484.974.811 2.072.327 1.098.501 2.33zm1.582 3.491 1.065 1.812-8.097 4.76q-2.142 1.26-2.632 2.593-.48 1.327.543 3.068 1.018 1.732 2.412 1.957 1.403.22 3.545-1.039l8.097-4.76 1.065 1.812-8.32 4.891q-2.606 1.533-4.697 1.02-2.086-.503-3.566-3.02-1.485-2.527-.916-4.603.574-2.067 3.18-3.6l8.32-4.891z" style="text-align:start;text-anchor:start;fill:#4d4d4d;fill-opacity:1;stroke:none;stroke-opacity:1" transform="matrix(.3537 -.8992 .8992 .3537 2550.214 -1344.816)"/></g></g><path d="m1182.646-619.566-4.394-1.7-3.754 2.99.258-4.704-4.003-2.646 4.554-1.21 1.28-4.624 2.556 3.958 4.794-.213-2.974 3.655z" style="opacity:1;fill:#4d4d4d;fill-opacity:1;stroke:none;stroke-width:2;stroke-linecap:butt;stroke-linejoin:miter;stroke-miterlimit:4;stroke-dasharray:none;stroke-opacity:1" transform="rotate(27.281 3691.66 3191.018) scale(1.01022)"/></g><circle cx="3263.831" cy="-1488.018" r="166.515" style="opacity:1;fill:none;fill-opacity:1;stroke:#fff;stroke-width:2;stroke-linecap:butt;stroke-linejoin:miter;stroke-miterlimit:4;stroke-dasharray:none;stroke-opacity:1"/></g><path d="m1182.646-619.566-4.394-1.7-3.754 2.99.258-4.704-4.003-2.646 4.554-1.21 1.28-4.624 2.556 3.958 4.794-.213-2.974 3.655z" style="opacity:1;fill:#4d4d4d;fill-opacity:1;stroke:none;stroke-width:2;stroke-linecap:butt;stroke-linejoin:miter;stroke-miterlimit:4;stroke-dasharray:none;stroke-opacity:1" transform="rotate(-9.08 9142.186 6311.177) scale(1.22253)"/></g><path d="M3263.832-1444.079c-.177-.071-.53-.24-.786-.375l-.68-.36c-.117-.063-.58-.296-1.027-.518-.447-.221-.882-.467-.965-.545-.166-.157-.986-.728-1.366-.954a213.88 213.88 0 0 1-1.007-.607 67.53 67.53 0 0 0-.974-.583 9.898 9.898 0 0 1-.472-.293 33.303 33.303 0 0 0-.653-.416 10.53 10.53 0 0 1-1-.769 89.03 89.03 0 0 0-.897-.763c-.597-.496-1.437-1.24-1.603-1.42-.095-.103-.211-.187-.258-.187-.047 0-.29-.196-.541-.436-.252-.24-.835-.756-1.297-1.147-.462-.392-.84-.735-.84-.763 0-.028-.375-.372-.834-.764a47.86 47.86 0 0 1-1.176-1.036 31.875 31.875 0 0 0-.685-.621c-1.217-1.065-3.237-3.06-3.237-3.198 0-.026-.202-.247-.448-.49a23.67 23.67 0 0 1-.911-.97 64.99 64.99 0 0 0-1.04-1.144c-.764-.818-1.625-1.843-2.14-2.547-.231-.314-.607-.818-.835-1.12-.228-.3-.415-.582-.415-.625 0-.043-.03-.077-.067-.077-.037 0-.087-.064-.112-.142-.025-.078-.18-.31-.347-.518-.359-.446-.975-1.314-.975-1.371 0-.062-.507-.755-.734-1.002a2.64 2.64 0 0 1-.348-.525 2.284 2.284 0 0 0-.23-.393c-.07-.073-.686-1.011-1.302-1.98l-.57-.894a18.384 18.384 0 0 1-.648-1.094 4.685 4.685 0 0 0-.412-.66 1.393 1.393 0 0 1-.229-.372 1.688 1.688 0 0 0-.228-.394c-.097-.127-.157-.232-.134-.232.023 0-.05-.157-.163-.348-.113-.192-.31-.537-.438-.767-.128-.23-.279-.464-.335-.52-.056-.056-.18-.28-.277-.498a6.213 6.213 0 0 0-.422-.768c-.302-.455-1.985-3.812-2.38-4.746-.158-.374-.405-.953-.549-1.287a20.47 20.47 0 0 1-.424-1.072 10.912 10.912 0 0 0-.347-.858 8.787 8.787 0 0 1-.341-.893c-.087-.275-.183-.533-.214-.572-.099-.128-.497-1.18-.497-1.314 0-.117-.14-.465-.576-1.419-.076-.167-.138-.354-.138-.417s-.14-.537-.312-1.055l-.61-1.84a15.954 15.954 0 0 1-.334-1.094 3.134 3.134 0 0 0-.138-.459 11.217 11.217 0 0 1-.427-1.641 7.249 7.249 0 0 0-.22-.858c-.227-.714-.845-3.201-.92-3.697a8.967 8.967 0 0 0-.131-.572c-.103-.4-.174-.71-.444-1.947a95.975 95.975 0 0 0-.318-1.376 26.485 26.485 0 0 1-.504-2.716 13.81 13.81 0 0 0-.213-1.144 9.373 9.373 0 0 1-.182-1 15.105 15.105 0 0 0-.132-.965 24.333 24.333 0 0 1-.186-1.823 67.373 67.373 0 0 0-.152-1.894c-.082-.801-.091-.94-.204-3.144-.086-1.689-.09-1.77-.22-3.717-.047-.708-.095-1.496-.106-1.751-.012-.256-.056-1.108-.097-1.894-.042-.786-.095-2.073-.118-2.859a55.479 55.479 0 0 0-.103-2.18c-.034-.413-.059-.83-.057-.929 0-.098-.037-.902-.087-1.787-.05-.884-.1-1.85-.112-2.144l-.065-1.5a145.855 145.855 0 0 1-.15-4.42c-.042-1.85-.035-2.035.077-2.158.15-.165.473-.276.856-.293.157-.01.548-.07.869-.142.32-.072.773-.146 1.006-.166.234-.019.507-.067.607-.105.1-.038.2-.053.22-.032.022.021.22 0 .44-.046a9.69 9.69 0 0 1 .668-.115c.145-.017.553-.093.907-.169.354-.076.772-.136.93-.135.156 0 .564-.064.905-.145a9.85 9.85 0 0 1 .929-.179c.17-.017.534-.08.81-.138.275-.06.706-.126.957-.15a8.36 8.36 0 0 0 .93-.155c.683-.162 2.523-.502 3.044-.563.118-.014.552-.111.965-.217.413-.106.83-.202.93-.214a8.008 8.008 0 0 0 1.319-.281c.18-.062.4-.112.488-.112.088 0 .413-.08.722-.179.31-.098.613-.179.673-.179.061 0 .21-.03.33-.068.975-.303 1.935-.574 2.036-.574.067 0 .473-.131.903-.29.43-.16.895-.302 1.033-.316.137-.014.475-.112.75-.219.275-.106.605-.223.733-.26.127-.035.232-.095.232-.132 0-.036.042-.05.094-.03.052.02.462-.097.911-.26.45-.163.947-.329 1.104-.369.157-.04.575-.196.929-.347.354-.151.74-.295.858-.319.118-.024.407-.135.643-.246.558-.263 1.326-.572 1.424-.572a.94.94 0 0 0 .275-.104c.188-.098 1.082-.485 2.017-.874.236-.098.643-.288.904-.422.262-.134.519-.244.571-.244.053 0 .483-.19.955-.422 1.476-.726 2.708-1.31 2.79-1.321.042-.01.494-.216 1.003-.465.508-.25 1.053-.516 1.21-.592a25.19 25.19 0 0 0 1.18-.607c.098-.057.473-.244.833-.415.36-.172.778-.391.929-.489a2.72 2.72 0 0 1 .534-.258 2.79 2.79 0 0 0 .607-.329c.192-.136.393-.247.448-.247.055 0 .273-.115.484-.255.537-.356.783-.383 1.174-.128.377.245.868.51 1.495.809.255.121.513.25.572.287.399.247 1.02.573 1.092.573.048 0 .264.106.48.235.395.236 1.475.78 2.073 1.044.177.078.466.222.643.32.368.204.87.437.942.437.027 0 .478.207 1.001.46l1.814.875c.475.23.903.417.952.417.048 0 .335.126.637.28.303.153.727.35.943.435.44.175 1.382.583 1.83.792.162.075.34.137.397.137.057 0 .134.028.171.063.037.035.197.102.354.15.157.05.503.198.768.331.266.133.528.242.583.242.055 0 .417.132.804.292.387.16.915.352 1.173.426.258.074.612.193.786.266.175.073.51.192.746.265.236.073.796.261 1.244.418.449.156.912.296 1.03.31.118.013.555.148.972.3.416.152.885.299 1.042.327.158.028.592.142.965.254 1.081.324 1.644.48 2.18.6.774.173 1.04.24 1.465.363.217.063.56.128.764.145.204.017.664.114 1.023.215.36.101.771.197.916.213.46.052 2.605.446 3.05.56.237.062.574.128.751.147.592.066 1.463.2 1.515.232.029.017.218.048.422.068.203.02.647.103.985.183.34.081.81.16 1.045.176.236.016.654.076.93.133.863.18 2.271.412 2.644.436.196.013.657.09 1.023.172.366.082.696.13.733.107.037-.023.067-.014.067.02 0 .032.152.066.339.074.2.01.412.07.518.149l.179.134-.01 1.564c-.01 1.363-.034 2.386-.141 5.03-.035.86-.08 1.73-.182 3.574a74.617 74.617 0 0 0-.087 1.823c0 .118-.025.536-.058.93a49.343 49.343 0 0 0-.098 2.179c-.02.806-.073 2.092-.115 2.859-.043.766-.088 1.619-.1 1.894-.011.275-.06 1.063-.106 1.75-.119 1.75-.133 1.982-.224 3.753-.121 2.34-.119 2.304-.199 3.074a62.82 62.82 0 0 0-.151 1.894 23.558 23.558 0 0 1-.185 1.822c-.059.354-.12.788-.133.965-.014.177-.109.688-.21 1.135-.102.448-.185.926-.185 1.062s-.045.43-.1.652c-.057.221-.124.58-.15.796a14.28 14.28 0 0 1-.248 1.215 76.56 76.56 0 0 0-.311 1.322c-.287 1.302-.356 1.603-.46 2.001a7.4 7.4 0 0 0-.123.537c-.023.19-.187.959-.251 1.179-.035.118-.147.568-.25 1-.101.433-.28 1.092-.395 1.466a9.122 9.122 0 0 0-.251.964c-.023.158-.061.35-.084.43a2.256 2.256 0 0 0-.061.285c-.01.08-.105.397-.211.707-.106.31-.202.631-.214.715-.012.083-.157.553-.322 1.044l-.613 1.832c-.173.516-.315.99-.315 1.055 0 .064-.16.476-.357.915-.197.439-.358.856-.358.926 0 .134-.4 1.187-.497 1.311-.031.04-.138.33-.238.644a8.6 8.6 0 0 1-.356.929 8.35 8.35 0 0 0-.322.786 18.29 18.29 0 0 1-.41 1.036c-.143.334-.389.913-.544 1.287-.239.571-.868 1.91-1.076 2.287-.032.059-.278.541-.547 1.072-.268.53-.654 1.235-.857 1.566-.204.331-.37.64-.37.686 0 .047-.099.222-.22.39a6.65 6.65 0 0 0-.382.6c-.088.163-.256.457-.374.653a4.379 4.379 0 0 0-.22.393c-.018.113-.193.43-.237.43-.03 0-.071.074-.094.166-.023.092-.138.287-.255.434-.116.147-.35.54-.518.874-.169.334-.356.661-.416.728a5.14 5.14 0 0 0-.352.513 73.01 73.01 0 0 1-.625.982c-.21.324-.38.619-.38.655a.105.105 0 0 1-.065.09c-.035.013-.264.346-.51.739-.245.393-.59.891-.767 1.108-.176.216-.354.465-.395.554-.04.088-.1.16-.134.16-.033 0-.06.034-.06.076 0 .088-.53.854-.975 1.408-.166.207-.323.44-.347.518-.025.078-.075.142-.112.142-.037 0-.067.035-.067.077 0 .043-.187.324-.415.625-.229.302-.604.806-.834 1.12-.52.709-1.373 1.723-2.177 2.588a58.23 58.23 0 0 0-.911 1 54.26 54.26 0 0 1-4.695 4.766c-.27.24-.592.532-.715.649a27.22 27.22 0 0 1-.724.64c-.275.237-.725.651-1 .922-.275.27-.685.637-.911.816-.227.18-.411.354-.411.39 0 .034-.065.086-.145.116-.079.029-.36.262-.625.517s-.658.607-.874.781a31.36 31.36 0 0 0-.976.838c-.32.287-.596.522-.614.522-.017 0-.141.094-.275.209l-.855.734c-.336.288-.786.633-1 .766-.215.134-.508.32-.653.417a9.847 9.847 0 0 1-.472.292 62.9 62.9 0 0 0-.952.57l-.885.536c-.306.184-1.473.996-1.568 1.09-.258.259-3.955 2.008-4.127 1.954-.013 0-.168-.065-.345-.136z" style="opacity:1;fill:#fff" transform="translate(-5113.897 2862.208) scale(1.67826)"/><path d="M3263.898-1451.368a8.968 8.968 0 0 1-.687-.327l-.592-.315a60.65 60.65 0 0 0-.898-.452c-.391-.194-.77-.408-.843-.476-.146-.137-.861-.637-1.194-.833a162.66 162.66 0 0 1-.879-.531 85.79 85.79 0 0 0-.85-.51 8.763 8.763 0 0 1-.413-.255 28.708 28.708 0 0 0-.57-.364 9.174 9.174 0 0 1-.875-.67 77.84 77.84 0 0 0-.783-.668c-.522-.433-1.255-1.082-1.4-1.24-.083-.09-.185-.164-.226-.164-.04 0-.253-.171-.473-.38a33.5 33.5 0 0 0-1.132-1.003c-.404-.341-.734-.641-.734-.666 0-.024-.328-.324-.728-.667-.4-.343-.863-.75-1.028-.905a28.043 28.043 0 0 0-.598-.543c-1.063-.93-2.828-2.673-2.828-2.793 0-.023-.176-.216-.391-.429a20.395 20.395 0 0 1-.796-.847 57.454 57.454 0 0 0-.908-.999 27.687 27.687 0 0 1-1.87-2.224 92.76 92.76 0 0 0-.73-.979c-.199-.263-.362-.509-.362-.546 0-.038-.026-.067-.059-.067-.032 0-.076-.056-.098-.124-.022-.068-.158-.272-.303-.452-.313-.39-.852-1.148-.852-1.199 0-.054-.443-.659-.64-.875a2.306 2.306 0 0 1-.305-.458 2.022 2.022 0 0 0-.201-.343c-.06-.064-.599-.884-1.137-1.73-.077-.121-.3-.472-.499-.781-.197-.31-.452-.739-.565-.955a4.092 4.092 0 0 0-.36-.577 1.205 1.205 0 0 1-.2-.325 1.455 1.455 0 0 0-.199-.344c-.085-.112-.138-.203-.117-.203.02 0-.044-.137-.143-.304a35.669 35.669 0 0 1-.383-.67 3.14 3.14 0 0 0-.292-.454c-.049-.05-.157-.245-.242-.435a5.46 5.46 0 0 0-.368-.67c-.264-.399-1.735-3.331-2.08-4.147-.138-.327-.353-.832-.479-1.124a17.893 17.893 0 0 1-.37-.937 9.615 9.615 0 0 0-.303-.749 7.813 7.813 0 0 1-.299-.78c-.076-.24-.16-.465-.186-.5-.086-.111-.434-1.03-.434-1.148 0-.102-.123-.406-.504-1.24-.066-.145-.12-.309-.12-.364 0-.055-.123-.469-.273-.921l-.533-1.608a13.942 13.942 0 0 1-.291-.955 2.838 2.838 0 0 0-.12-.4 9.8 9.8 0 0 1-.374-1.435 6.364 6.364 0 0 0-.193-.749c-.198-.624-.738-2.796-.802-3.23a7.456 7.456 0 0 0-.115-.499c-.09-.349-.152-.62-.389-1.701a97.131 97.131 0 0 0-.277-1.202 23.13 23.13 0 0 1-.44-2.373 12.002 12.002 0 0 0-.187-.998 8.2 8.2 0 0 1-.158-.874 13.215 13.215 0 0 0-.115-.843 21.007 21.007 0 0 1-.163-1.592 61.003 61.003 0 0 0-.133-1.655c-.072-.7-.079-.821-.178-2.747a141.342 141.342 0 0 0-.192-3.246c-.041-.619-.083-1.307-.093-1.53l-.085-1.655c-.037-.686-.083-1.81-.103-2.497-.02-.687-.06-1.544-.09-1.904a13.7 13.7 0 0 1-.05-.812c0-.086-.032-.788-.076-1.56-.044-.773-.088-1.616-.098-1.874-.01-.257-.037-.847-.057-1.31-.078-1.716-.09-2.13-.13-3.86-.038-1.616-.032-1.778.066-1.886.13-.144.414-.241.748-.256.137-.01.479-.062.759-.124.28-.063.675-.128.88-.145.203-.017.441-.059.53-.092.087-.033.174-.046.192-.028.018.018.19 0 .384-.04s.456-.086.583-.1c.127-.015.483-.081.792-.148.31-.066.675-.12.812-.118.137 0 .493-.056.791-.127.298-.07.663-.14.812-.156a8.53 8.53 0 0 0 .707-.12c.24-.053.617-.11.837-.132a7.28 7.28 0 0 0 .811-.135c.597-.142 2.204-.439 2.66-.492.103-.012.482-.097.843-.19.36-.092.726-.176.811-.187a7.032 7.032 0 0 0 1.153-.245c.158-.054.35-.098.427-.098.077 0 .36-.07.63-.156.271-.086.536-.156.589-.156.053 0 .182-.027.287-.06.852-.265 1.69-.502 1.779-.502.058 0 .413-.114.789-.253.376-.14.782-.264.902-.276.12-.012.415-.098.655-.19.24-.093.529-.196.64-.227.112-.031.203-.084.203-.116 0-.03.037-.044.082-.026.045.017.404-.085.796-.227.393-.143.827-.288.964-.323a7.83 7.83 0 0 0 .812-.303c.309-.132.646-.257.75-.278.102-.021.355-.118.561-.215.487-.23 1.158-.5 1.244-.5a.81.81 0 0 0 .24-.091c.165-.086.945-.424 1.763-.764.206-.086.561-.251.79-.368.227-.117.452-.213.498-.213.046 0 .421-.166.834-.369 1.29-.634 2.365-1.144 2.436-1.154.038-.01.433-.189.877-.406l1.058-.517c.39-.19.859-.431 1.03-.53.086-.05.413-.214.728-.363.314-.15.68-.342.811-.427a2.36 2.36 0 0 1 .466-.226c.125-.039.364-.168.531-.287.167-.119.343-.216.391-.216.048 0 .239-.1.423-.223.47-.31.684-.334 1.025-.112.33.215.759.447 1.306.707.223.106.448.219.5.251.348.216.89.5.954.5.042 0 .23.093.42.206.345.206 1.287.68 1.81.912.154.068.407.194.562.28.322.177.76.38.823.381.024 0 .417.181.874.402l1.585.765c.415.2.789.364.83.364.043 0 .294.11.558.244.264.134.635.305.824.38a41.26 41.26 0 0 1 1.599.692c.14.065.297.12.346.12.05 0 .117.023.15.054.031.031.171.09.308.132.138.043.44.173.672.289.232.116.46.211.509.211.048 0 .364.115.702.255.338.14.8.308 1.025.372.225.065.534.169.686.232.153.064.446.168.652.232.206.064.695.228 1.087.365.391.137.796.259.9.27.103.013.484.13.848.263s.774.261.911.286c.137.024.517.124.843.222.944.283 1.436.418 1.904.523.676.152.909.21 1.28.318.189.055.489.112.667.127.178.015.58.1.894.188.313.088.673.172.8.186.402.045 2.276.389 2.665.49a6 6 0 0 0 .655.127c.517.058 1.278.175 1.323.203.025.015.191.042.369.06.178.017.565.088.86.159.297.07.707.14.913.153.206.014.572.066.812.117.755.157 1.985.36 2.31.38a8 8 0 0 1 .894.15c.32.072.608.114.64.094.032-.02.059-.012.059.017 0 .03.133.058.296.065.175.01.36.061.453.13l.156.117-.01 1.367c-.01 1.19-.03 2.084-.123 4.394-.03.752-.069 1.51-.158 3.122a63.423 63.423 0 0 0-.076 1.592c0 .103-.022.468-.051.812-.03.343-.068 1.2-.086 1.904a100.71 100.71 0 0 1-.102 2.497c-.038.67-.077 1.414-.086 1.655-.01.24-.052.928-.093 1.53a141.26 141.26 0 0 0-.196 3.277c-.105 2.044-.103 2.012-.173 2.685a55.127 55.127 0 0 0-.132 1.654c-.037.567-.11 1.283-.162 1.592-.052.31-.104.689-.116.843-.012.155-.095.6-.184.992-.088.39-.16.808-.16.927 0 .12-.04.376-.089.57a6.746 6.746 0 0 0-.13.695c-.023.189-.12.667-.217 1.061-.097.395-.219.915-.272 1.156-.25 1.136-.31 1.4-.4 1.748a6.624 6.624 0 0 0-.109.468c-.02.167-.163.838-.22 1.03-.03.103-.127.496-.217.874a23.41 23.41 0 0 1-.345 1.28c-.101.326-.2.706-.22.843a3.64 3.64 0 0 1-.073.374c-.02.07-.044.181-.053.25a6.05 6.05 0 0 1-.184.617 6.402 6.402 0 0 0-.187.625c-.01.072-.137.483-.28.912l-.537 1.6c-.151.451-.275.866-.275.922 0 .056-.14.416-.312.8-.172.383-.312.747-.312.809 0 .117-.35 1.037-.435 1.145-.027.034-.12.287-.208.562-.087.274-.227.64-.31.811-.085.172-.21.481-.282.687a16.16 16.16 0 0 1-.357.905c-.126.292-.34.798-.476 1.124a33.91 33.91 0 0 1-.94 1.998c-.028.052-.243.473-.477.936a23.42 23.42 0 0 1-.75 1.369c-.177.289-.323.558-.323.6 0 .04-.086.193-.192.34a5.835 5.835 0 0 0-.333.524c-.077.142-.224.398-.327.57-.103.172-.19.326-.192.343-.016.1-.169.375-.207.375-.025 0-.062.065-.082.146-.02.08-.12.25-.223.38a5.819 5.819 0 0 0-.453.763c-.147.291-.31.577-.363.635-.052.058-.19.26-.308.449-.117.188-.362.574-.545.857-.183.283-.333.54-.333.573a.093.093 0 0 1-.056.079c-.03.01-.23.302-.445.645a11.86 11.86 0 0 1-.67.968 3.55 3.55 0 0 0-.346.483c-.036.077-.088.14-.117.14-.029 0-.052.03-.052.067 0 .077-.463.746-.852 1.23-.145.18-.281.384-.303.452-.022.068-.066.124-.097.124-.032 0-.059.031-.059.067 0 .038-.163.283-.363.546-.2.264-.527.704-.728.978-.454.62-1.2 1.505-1.902 2.261-.294.316-.652.71-.796.874a47.401 47.401 0 0 1-4.101 4.163c-.236.21-.517.465-.625.567a23.99 23.99 0 0 1-.631.56c-.24.206-.634.568-.875.804-.24.236-.598.557-.796.713-.197.157-.359.31-.359.34 0 .031-.057.076-.126.102-.069.025-.315.23-.546.452-.231.223-.575.53-.763.682-.19.152-.573.482-.853.732s-.52.456-.536.456c-.015 0-.124.082-.24.182l-.747.641a9.237 9.237 0 0 1-.874.67c-.187.116-.444.28-.57.364a8.44 8.44 0 0 1-.413.255c-.1.057-.474.281-.831.498l-.773.468c-.268.161-1.287.87-1.37.953-.226.226-3.454 1.754-3.605 1.706-.011 0-.147-.057-.302-.118z" style="opacity:1;fill:#f48128;fill-opacity:1" transform="translate(-5113.897 2862.208) scale(1.67826)"/><g style="fill:#fff;fill-opacity:1"><g style="fill:#fff;fill-opacity:1"><path d="M3251.093-1575.015c-32.209 5.97-58.62 31.297-65.349 64.194-1.267 6.195-1.497 8.74-1.497 16.6 0 7.859.23 10.401 1.497 16.597 7.51 36.715 39.668 64.115 76.873 65.5 14.748.55 27.843-2.244 40.62-8.667 17.936-9.017 31.764-24.138 39.194-42.337l-2.495-.06-3.03-.048a514.72 514.72 0 0 1-6.812-.168l-3.78-.119-.849 1.55c-7.255 13.263-18.864 23.797-32.704 29.679-5.75 2.444-11.439 3.98-18.088 4.889-2.174.297-11.2.548-13.243.368-9.81-.865-17.81-3.145-26.18-7.456-6.68-3.441-11.827-7.285-17.32-12.933-5.04-5.181-8.641-10.24-11.83-16.629-7.285-14.592-9.04-30.966-5.028-46.928 2.452-9.756 7.337-19.147 14.117-27.137 3.187-3.755 8.671-8.671 12.936-11.6 5.324-3.657 11.818-6.822 17.938-8.743 1.277-.4 2.322-.793 2.322-.87 0-.254 2.397-13.156 2.455-13.214l.253-2.468z" style="fill:#fff;fill-opacity:1" transform="translate(-1706.292 1272.92) scale(.63458)"/><path d="m1685.748-361.34-1.262 1.13c-5.207 4.654-9.71 7.378-15.467 9.358-4.222 1.453-7.887 2.119-12.55 2.28-3.765.13-6.405-.088-10.125-.834-5.163-1.036-10.698-3.354-15.035-6.246l-15.102 13.222c1.338 1.04 3.022 2.282 4.229 3.082 8.538 5.667 18.516 9.204 28.734 10.186v-.002c2.97.285 9.173.245 12.268-.08 14.415-1.514 27.587-7.81 37.826-18.076 3.673-3.684 6.298-7.005 9.021-11.41l1.26-2.036h-1.633c-.898-.002-6.252-.132-11.898-.289l-10.266-.285z" style="fill:#fff;fill-opacity:1" transform="translate(-683.867 573.03) scale(.63458)"/><path d="M3220.592-1452.018a655.803 655.803 0 0 1-6.185-7.615c-2.752-3.447-3.303-4.121-3.303-4.121l28.905-23.472 12.748 16.131-29.18 22.44s-.143.069-2.985-3.363z" style="fill:#fff;fill-opacity:1" transform="translate(-1706.292 1272.92) scale(.63458)"/><path d="M1636.12-450.848c-.209-.239-6.759 2.449-9.696 3.979-18.803 9.793-30.96 27.503-33.533 48.848-.379 3.137-.324 10.996.1 14.23.835 6.386 2.55 12.483 5.062 18.082l16.197-12.467c-2.533-7.782-2.767-15.98-.677-23.998 2.58-9.898 8.483-18.398 16.859-24.273.792-.556 1.484-1.192 1.537-1.414.2-.84 4.19-22.94 4.15-22.987z" style="fill:#fff;fill-opacity:1" transform="translate(-683.867 573.03) scale(.63458)"/><path d="M3317.777-1484.963c-5.266-.15-9.59-.294-9.609-.32-.019-.024.13-.979.331-2.12.813-4.615.69-10.523-.321-15.517-.666-3.288-2.43-8.598-2.855-8.598-5.173 4.016-9.512 7.1-14.918 11.471-.14.111-2.246-2.565-6.754-8.117-3.796-4.675-7.04-8.674-7.07-8.76-.038-.116 13.322-10.95 14.584-11.842.29-.205-.342-.689-2.951-2.26-5.916-3.562-12.238-5.513-19.427-5.995-1.465-.098-2.697-.212-2.737-.252-.108-.108 3.392-19.088 3.549-19.245.203-.203 4.848.294 7.842.839 5.872 1.067 10.9 2.747 16.505 5.512 14.677 7.239 25.945 20.033 31.3 35.538 2.534 7.334 3.558 14.182 3.316 22.175-.153 5.057-.465 7.702-.914 7.74-.163.014-4.605-.098-9.87-.249z" style="fill:#fff;fill-opacity:1" transform="translate(-1706.292 1272.92) scale(.63458)"/></g><path d="M3265.998-1534.041c-16.292 0-29.656 13.364-29.656 29.656 0 16.293 13.364 29.656 29.656 29.656 16.293 0 29.656-13.363 29.656-29.656 0-16.292-13.363-29.656-29.656-29.656zm0 14.553c8.428 0 15.104 6.675 15.104 15.103s-6.676 15.106-15.104 15.106c-8.428 0-15.104-6.678-15.104-15.106s6.676-15.103 15.104-15.103z" style="color:#000;font-style:normal;font-variant:normal;font-weight:400;font-stretch:normal;font-size:medium;line-height:normal;font-family:sans-serif;text-indent:0;text-align:start;text-decoration:none;text-decoration-line:none;text-decoration-style:solid;text-decoration-color:#000;letter-spacing:normal;word-spacing:normal;text-transform:none;direction:ltr;block-progression:tb;writing-mode:lr-tb;baseline-shift:baseline;text-anchor:start;white-space:normal;clip-rule:nonzero;display:inline;overflow:visible;visibility:visible;opacity:1;isolation:auto;mix-blend-mode:normal;color-interpolation:sRGB;color-interpolation-filters:linearRGB;solid-color:#000;solid-opacity:1;fill:#fff;fill-opacity:1;fill-rule:nonzero;stroke:none;stroke-width:14.55187416;stroke-linecap:round;stroke-linejoin:round;stroke-miterlimit:4;stroke-dasharray:none;stroke-dashoffset:0;stroke-opacity:1;color-rendering:auto;image-rendering:auto;shape-rendering:auto;text-rendering:auto;enable-background:accumulate" transform="translate(-2063.42 1443.638) scale(.7439)"/></g><path d="M3212.1-1472.233c1.979 5.392 4.57 10.559 7.584 15.434a212.617 212.617 0 0 1 37.492-4.977c5.634-.24 11.276-.255 16.905-.04 12.595.48 25.131 2.106 37.398 4.914 3.023-4.856 5.643-10.005 7.648-15.38-16.304-4.043-33.026-6.155-49.77-6.402a225.14 225.14 0 0 0-7.532.015 228.606 228.606 0 0 0-49.724 6.436zm-9.104 9.71a216.532 216.532 0 0 1 7.768 5.602 211.533 211.533 0 0 0-3.493 8.782 206.673 206.673 0 0 1 12.172-3.216c-2.953-4.278-5.623-8.804-7.865-13.531-2.876.73-5.738 1.518-8.582 2.364zm116.619-2.417c-2.27 4.709-4.962 9.217-7.923 13.477 4.063.963 8.094 2.06 12.083 3.294a191.373 191.373 0 0 0-3.399-8.807 199.963 199.963 0 0 1 7.81-5.535 204.368 204.368 0 0 0-8.571-2.429z" style="opacity:1;fill:#fff;fill-opacity:1;stroke:none;stroke-width:9;stroke-linecap:round;stroke-linejoin:round;stroke-miterlimit:4;stroke-dasharray:none;stroke-opacity:1" transform="matrix(1.24269 0 0 1.44312 -3693.536 2520.294)"/><path d="M3265.625-1463.254c-36.287.785-54.297 6.594-54.297 6.594l1.545 4.756s17.064-5.577 52.86-6.352c35.69-.772 52.439 6.237 52.439 6.237l1.912-4.622s-18.067-7.4-54.459-6.613z" style="color:#000;font-style:normal;font-variant:normal;font-weight:400;font-stretch:normal;font-size:medium;line-height:normal;font-family:sans-serif;text-indent:0;text-align:start;text-decoration:none;text-decoration-line:none;text-decoration-style:solid;text-decoration-color:#000;letter-spacing:normal;word-spacing:normal;text-transform:none;direction:ltr;block-progression:tb;writing-mode:lr-tb;baseline-shift:baseline;text-anchor:start;white-space:normal;clip-rule:nonzero;display:inline;overflow:visible;visibility:visible;opacity:1;isolation:auto;mix-blend-mode:normal;color-interpolation:sRGB;color-interpolation-filters:linearRGB;solid-color:#000;solid-opacity:1;fill:#f48128;fill-opacity:1;fill-rule:evenodd;stroke:none;stroke-width:5;stroke-linecap:butt;stroke-linejoin:miter;stroke-miterlimit:4;stroke-dasharray:none;stroke-dashoffset:0;stroke-opacity:1;color-rendering:auto;image-rendering:auto;shape-rendering:auto;text-rendering:auto;enable-background:accumulate" transform="matrix(1.24269 0 0 1.44312 -3693.536 2520.294)"/><path d="M3212.1-1472.233c1.979 5.392 4.57 10.559 7.584 15.434a212.617 212.617 0 0 1 37.492-4.977c5.634-.24 11.276-.255 16.905-.04 12.595.48 25.131 2.106 37.398 4.914 3.023-4.856 5.643-10.005 7.648-15.38-16.304-4.043-33.026-6.155-49.77-6.402a225.14 225.14 0 0 0-7.532.015 228.606 228.606 0 0 0-49.724 6.436zm-9.104 9.71a216.532 216.532 0 0 1 7.768 5.602 211.533 211.533 0 0 0-3.493 8.782 206.673 206.673 0 0 1 12.172-3.216c-2.953-4.278-5.623-8.804-7.865-13.531-2.876.73-5.738 1.518-8.582 2.364zm116.619-2.417c-2.27 4.709-4.962 9.217-7.923 13.477 4.063.963 8.094 2.06 12.083 3.294a191.373 191.373 0 0 0-3.399-8.807 199.963 199.963 0 0 1 7.81-5.535 204.368 204.368 0 0 0-8.571-2.429z" style="opacity:1;fill:#fff;fill-opacity:1;stroke:none;stroke-width:1;stroke-linecap:round;stroke-linejoin:round;stroke-miterlimit:4;stroke-dasharray:none;stroke-opacity:1" transform="matrix(1.24269 0 0 1.44312 -3693.536 2520.294)"/><path d="M3266.209-1480.111c-36.19.783-55.443 6.586-55.443 6.586l.867 2.87s18.747-5.68 54.64-6.456c35.832-.776 52.844 6.31 52.844 6.31l1.147-2.771s-17.803-7.324-54.055-6.54z" style="color:#000;font-style:normal;font-variant:normal;font-weight:400;font-stretch:normal;font-size:medium;line-height:normal;font-family:sans-serif;text-indent:0;text-align:start;text-decoration:none;text-decoration-line:none;text-decoration-style:solid;text-decoration-color:#000;letter-spacing:normal;word-spacing:normal;text-transform:none;direction:ltr;block-progression:tb;writing-mode:lr-tb;baseline-shift:baseline;text-anchor:start;white-space:normal;clip-rule:nonzero;display:inline;overflow:visible;visibility:visible;opacity:1;isolation:auto;mix-blend-mode:normal;color-interpolation:sRGB;color-interpolation-filters:linearRGB;solid-color:#000;solid-opacity:1;fill:#f48128;fill-opacity:1;fill-rule:evenodd;stroke:none;stroke-width:3;stroke-linecap:butt;stroke-linejoin:miter;stroke-miterlimit:4;stroke-dasharray:none;stroke-dashoffset:0;stroke-opacity:1;color-rendering:auto;image-rendering:auto;shape-rendering:auto;text-rendering:auto;enable-background:accumulate" transform="matrix(1.24269 0 0 1.44312 -3693.536 2520.294)"/><path d="M3259.544-1465.142c-1.101.035-1.9.45-2.385 1.223-.487.773-.676 1.942-.585 3.515.087 1.506.414 2.632.958 3.376.55.746 1.315 1.097 2.307 1.065 1.023-.033 1.771-.418 2.257-1.174.489-.753.738-1.91.727-3.468-.01-1.506-.282-2.645-.839-3.42-.55-.774-1.369-1.152-2.44-1.117zm8.45.01c-1.1-.037-1.923.323-2.458 1.063-.536.739-.803 1.893-.817 3.47-.013 1.508.237 2.653.731 3.432.5.781 1.242 1.182 2.235 1.216 1.024.035 1.798-.301 2.333-1.024.537-.72.86-1.86.951-3.414.088-1.504-.11-2.659-.615-3.47-.498-.807-1.29-1.237-2.36-1.273zm-16.79.553a4.916 4.916 0 0 0-1.176.253 4.01 4.01 0 0 0-.936.463c-.28.188-.623.496-1.025.925.401.357.799.716 1.193 1.077a5.05 5.05 0 0 1 .96-.792 2.332 2.332 0 0 1 1.003-.344c.337-.034.614.027.83.182.22.155.345.41.378.767.022.239 0 .475-.07.706a3.21 3.21 0 0 1-.372.771c-.183.285-.564.781-1.152 1.534-.657.83-1.3 1.667-1.926 2.508l.167 1.302c1.987-.255 3.982-.455 5.982-.602l-.116-1.584c-1.264.093-2.527.207-3.787.343l-.01-.085c.334-.398.672-.795 1.014-1.19.687-.772 1.165-1.347 1.437-1.753.273-.402.47-.786.585-1.154.12-.372.166-.764.135-1.173a2.211 2.211 0 0 0-.46-1.226 2.364 2.364 0 0 0-1.097-.765c-.46-.164-.98-.22-1.558-.162zm25.314.022a4.89 4.89 0 0 0-1.198.017c-.36.05-.696.14-1.006.269-.31.13-.707.363-1.185.703.321.43.639.86.953 1.293a5.12 5.12 0 0 1 1.096-.587 2.328 2.328 0 0 1 1.048-.14c.337.034.596.147.776.342.186.195.258.47.22.826a1.835 1.835 0 0 1-.206.68c-.114.213-.286.44-.516.683-.235.243-.707.656-1.432 1.277-.809.685-1.606 1.377-2.39 2.077l-.096 1.309c2.008.148 4.013.344 6.012.588l.192-1.577a128.947 128.947 0 0 0-3.791-.405l.01-.086c.407-.324.817-.646 1.23-.967.826-.623 1.409-1.094 1.754-1.439.346-.341.613-.68.798-1.018a3.04 3.04 0 0 0 .36-1.125 2.22 2.22 0 0 0-.211-1.292 2.371 2.371 0 0 0-.925-.965c-.417-.25-.915-.407-1.49-.463zm-16.925.942c.448-.014.777.218.989.693.215.472.332 1.253.356 2.348.024 1.08-.057 1.865-.236 2.349-.18.485-.483.733-.912.746-.437.014-.758-.208-.965-.672-.202-.467-.33-1.251-.376-2.344-.046-1.094.017-1.88.194-2.365.176-.487.494-.74.95-.755zm8.35.01c.447.015.761.269.94.756.185.485.25 1.272.203 2.367-.047 1.08-.18 1.859-.39 2.33-.212.472-.53.7-.96.685-.437-.015-.743-.258-.92-.735-.17-.48-.244-1.27-.218-2.364.026-1.095.14-1.876.348-2.348.208-.475.542-.706.997-.691z" style="font-style:normal;font-variant:normal;font-weight:700;font-stretch:normal;font-size:medium;line-height:100%;font-family:&quot;Open Sans&quot;;-inkscape-font-specification:&quot;Open Sans Bold&quot;;text-align:center;letter-spacing:1px;word-spacing:0;text-anchor:middle;fill:#f48128;fill-opacity:1;stroke:#f48128;stroke-width:.74508715;stroke-linecap:round;stroke-linejoin:round;stroke-miterlimit:4;stroke-dasharray:none;stroke-opacity:1" transform="translate(-4638.358 2637.697) scale(1.53284)"/><path d="M4391.82 539.4s-1.39 1.887-2.031 3.46c-.535 1.31-1.02 3.04-1.123 4.093-.103 1.053-.12 2.874-.017 3.306.104.432 1.761.578 1.761.578l1.882-7.32z" style="fill:#fff;fill-opacity:1;fill-rule:evenodd;stroke:none;stroke-width:.81797785px;stroke-linecap:butt;stroke-linejoin:miter;stroke-opacity:1" transform="translate(-4947.447 -165.62) scale(1.20834)"/><g style="opacity:1"><g style="opacity:.95999995"><path d="M-1329.172 631.275a31.43 31.43 0 0 0-1.303.002c-.395.035-.787.067-1.16.086-.727.038-1.501.06-2.273.082-.323.02-.645.034-.967.04l-.793 2.906a112.26 112.26 0 0 0 4.182-.125c2.966-.155 6.431-.726 9.916-1.465-.217-.085-.432-.178-.65-.256a21.78 21.78 0 0 0-6.952-1.27z" style="opacity:1;fill:#fff;fill-opacity:1;stroke:#fff;stroke-width:1.22916186;stroke-linecap:square;stroke-linejoin:bevel;stroke-miterlimit:4;stroke-dasharray:none;stroke-opacity:1" transform="translate(1665.245 -147.452) scale(.9884)"/><path d="M4381.821 537.884c9.93 1.03 17.18 9.93 16.197 19.854l-3.258-.338a14.86 14.86 0 0 0-13.276-16.26c-.675-.07-1.34-.078-2-.058l-.029-.016c-1.088.017-2.176.027-3.265.03-2.13.008-4.261-.013-6.391.035-.117.003-.234.012-.35.015a18.08 18.08 0 0 1 12.371-3.262z" style="color:#000;font-style:normal;font-variant:normal;font-weight:400;font-stretch:normal;font-size:medium;line-height:normal;font-family:sans-serif;text-indent:0;text-align:start;text-decoration:none;text-decoration-line:none;text-decoration-style:solid;text-decoration-color:#000;letter-spacing:normal;word-spacing:normal;text-transform:none;direction:ltr;block-progression:tb;writing-mode:lr-tb;baseline-shift:baseline;text-anchor:start;white-space:normal;clip-rule:nonzero;display:inline;overflow:visible;visibility:visible;opacity:1;isolation:auto;mix-blend-mode:normal;color-interpolation:sRGB;color-interpolation-filters:linearRGB;solid-color:#000;solid-opacity:1;fill:#fff;fill-opacity:1;fill-rule:nonzero;stroke:none;stroke-width:3.27191138;stroke-linecap:square;stroke-linejoin:bevel;stroke-miterlimit:4;stroke-dasharray:none;stroke-dashoffset:0;stroke-opacity:1;color-rendering:auto;image-rendering:auto;shape-rendering:auto;text-rendering:auto;enable-background:accumulate" transform="translate(-4941.406 -173.84) scale(1.20834)"/><path d="M-1204.03 549.494c-.383 3.21-.848 6.32-1.282 8.953-1.144 6.925-6.69 18.075-10.835 26.57-4.02 8.24-9.325 13.357-13.263 18.325-3.575 4.51-11.477 10.197-18.252 14.445-6.725 4.217-13.979 7.55-23.945 10.465-8.338 2.44-17.399 3.087-24.84 2.977a14.538 14.538 0 0 1-1.573-.036c-.771-.023-1.546-.044-2.273-.082-.373-.02-.765-.05-1.16-.086a26.798 26.798 0 0 0-2.606.059c-1.926.148-3.829.56-5.648 1.209-.22.078-.434.17-.65.256 3.484.74 6.949 1.308 9.916 1.463 8.221.428 19.34.046 29.652-2.97 10.176-2.978 17.734-6.443 24.674-10.794 6.89-4.32 14.881-9.925 18.986-15.103 3.742-4.722 9.342-10.137 13.596-18.856 4.13-8.464 9.792-19.497 11.092-27.371.456-2.766.96-6.03 1.367-9.424h-2.955z" style="opacity:1;fill:#fff;fill-opacity:1;stroke:#fff;stroke-width:1.22916186;stroke-linecap:square;stroke-linejoin:bevel;stroke-miterlimit:4;stroke-dasharray:none;stroke-opacity:1" transform="translate(1665.245 -147.452) scale(.9884)"/><path d="m4423.332 549.618-3.25-.922-2.704-.768-.545-.155-.137.453-1.708 6.05 3.25.922 3.25.923.922-3.251.923-3.252zm-6.637-1.392.13-.458-.011-.008-.328 1.156.208-.692zm-.226.753-.33 1.086-2.556-.726c-2.332-.662-2.577-.744-2.776-.932-.215-.203-1.511-2.516-3.524-6.285l-1.032-1.93-.016-.04c-1.737-.493-2.478-.71-4.316-1.231l-.018.066c.73.228 1.21.387 1.274.428.129.083.3.231.38.33.082.1 1.252 2.173 2.602 4.605 2.433 4.38 2.771 4.936 3.313 5.44.603.56.798.642 3.53 1.467l2.58.78-.295 1.12 1.186-4.18zm28.974-6.117-3.361-.047-2.797-.038-.564-.008-.015.47-.08 6.255 3.362.047 3.361.047.047-3.363.047-3.363zm-6.738.377c.01-.357 0-.158.01-.473l-.012-.006c-.01.575-.01.494-.017 1.195l.022-.718zm-.023.782-.036 1.129-2.645-.037c-2.41-.033-2.668-.05-2.907-.178-.26-.14-2.103-2.027-5.011-5.129l-1.49-1.588-.027-.034c-1.797-.025-2.565-.042-4.465-.068v.069c.76.03 1.262.059 1.334.082.145.046.347.145.45.22.104.074 1.764 1.763 3.69 3.752 3.47 3.58 3.939 4.027 4.59 4.372.724.382.932.41 3.77.497l2.682.082.01 1.153.06-4.322zm25.427-15.135-2.84.722-2.364.6-.477.121.095.4 1.35 5.283 2.84-.721 2.84-.722-.722-2.841-.722-2.842zm-5.587 1.843-.102-.4-.011-.003c.124.487.105.419.256 1.01l-.144-.609zm.158.663.225.958-2.235.568c-2.037.518-2.257.563-2.488.509-.25-.06-2.229-1.23-5.38-3.184l-1.613-1-.03-.022c-1.518.386-2.169.546-3.775.954l.016.058c.647-.147 1.076-.236 1.143-.234.132.006.325.044.428.083.104.04 1.885 1.086 3.956 2.324 3.732 2.229 4.228 2.499 4.854 2.641.696.158.877.134 3.286-.435l2.277-.538.265.97-.928-3.653zm21.723-23.541-2.286 1.677-1.902 1.396-.383.282.229.324 3.127 4.25 2.286-1.678 2.286-1.677-1.678-2.287-1.678-2.287zm-4.343 3.68-.236-.323-.011.002.596.813-.35-.494zm.382.537.55.778-1.799 1.32c-1.64 1.203-1.82 1.323-2.047 1.358-.245.037-2.446-.296-5.98-.905l-1.81-.312-.035-.009c-1.222.897-1.748 1.276-3.04 2.224l.034.048c.527-.366.88-.602.94-.624a1.61 1.61 0 0 1 .414-.08c.108-.003 2.084.29 4.391.649 4.156.646 4.698.708 5.312.61.681-.111.836-.199 2.79-1.583l1.847-1.307.59.773-2.158-2.94zm14.546-26.908-1.862 2.17-1.55 1.807-.313.364.3.266 4.043 3.46 1.862-2.17 1.863-2.17-2.171-1.863-2.172-1.863zm-3.426 4.607-.306-.262-.01.004.771.662-.457-.405zm.499.441.717.639-1.465 1.707c-1.336 1.557-1.487 1.716-1.701 1.802-.233.094-2.47.27-6.081.478l-1.85.107h-.036c-.996 1.16-1.426 1.652-2.479 2.879l.044.038c.435-.48.727-.792.782-.827a1.57 1.57 0 0 1 .388-.174c.105-.027 2.114-.191 4.462-.366 4.23-.314 4.778-.377 5.358-.614.644-.265.776-.386 2.38-2.192l1.515-1.707.756.625-2.79-2.395zm-62.025 31.777a3.04 3.04 0 0 0-1.357.01c-1.43.344-2.452 1.652-2.391 3.064l.019.453-2.02 1.123c-1.272.706-2.122 1.211-2.29 1.362-.443.396-.908 1.067-1.145 1.65-.122.302-.806 2.399-1.52 4.66-.846 2.68-1.281 3.99-1.587 4.687l.675.17 1.4-.749.453-.725-.088-.015-.041-.007v-.022l.282-.261c.124-.47.61-2.143 1.155-3.97.843-2.828 1.085-3.551 1.249-3.723.147-.153.781-.53 2.263-1.343l2.057-1.13.387.294c.491.373 1.374.647 1.98.614.991-.052 1.815-.513 2.413-1.349a3.038 3.038 0 0 0 .384-2.79 3.06 3.06 0 0 0-.243-.526v.002a3.15 3.15 0 0 0-2.027-1.48zm-9.63 15.444-.236.22.017.004.097.018.097-.155c.01-.03.02-.072.024-.085v-.002zm.462.409c.022-.024-.162.062-.598.295l-.04.063c.388-.203.616-.335.638-.358zm24.922-21.052a2.91 2.91 0 0 0-1.295.235c-1.31.567-2.069 1.988-1.775 3.328l.093.43-1.744 1.409c-1.098.887-1.826 1.511-1.962 1.683-.357.453-.69 1.171-.819 1.768-.066.309-.371 2.427-.677 4.707-.362 2.703-.56 4.028-.736 4.745l.673.05 1.213-.95.313-.768h-.126l-.012-.018.226-.297c.04-.47.226-2.15.442-3.988.335-2.842.446-3.574.574-3.766.115-.17.66-.636 1.94-1.66l1.778-1.423.418.216c.532.275 1.421.39 1.995.258.939-.215 1.65-.793 2.082-1.691a2.947 2.947 0 0 0-.098-2.73 3.037 3.037 0 0 0-.32-.464v.002a3.056 3.056 0 0 0-2.184-1.075zm-6.631 16.365-.19.25.017.001h.097l.067-.164c.01-.03.01-.072.01-.085v-.002zm.51.314c.015-.026-.145.087-.524.381l-.026.067c.337-.258.532-.422.55-.448zm20.891-28.417a2.725 2.725 0 0 0-1.07.577c-.99.873-1.25 2.338-.608 3.431l.205.352-1.13 1.737c-.71 1.093-1.172 1.85-1.242 2.04-.185.5-.271 1.226-.214 1.788.03.29.368 2.238.752 4.33.455 2.478.66 3.7.71 4.379l.606-.149.795-1.18.055-.765-.077.025-.035.012-.012-.015.113-.326c-.099-.425-.416-1.954-.752-3.63-.519-2.594-.63-3.269-.573-3.474.052-.183.397-.748 1.23-2.013l1.155-1.76.43.07c.546.09 1.36-.063 1.826-.343.763-.458 1.223-1.169 1.345-2.082a2.725 2.725 0 0 0-.866-2.371 2.758 2.758 0 0 0-.414-.316v.001a2.824 2.824 0 0 0-2.227-.32zm-1.145 16.277-.095.273.016-.003.085-.028.012-.164c0-.026-.017-.064-.018-.076v-.002zm.537.13c.01-.028-.102.117-.35.484v.066c.222-.322.347-.523.355-.55zm11.117-34.104a2.725 2.725 0 0 0-.872.877c-.706 1.142-.526 2.646.421 3.52l.303.282-.586 2.025c-.37 1.273-.595 2.146-.607 2.352-.031.541.099 1.274.32 1.803.115.274 1.02 2.071 2.01 3.993 1.175 2.278 1.735 3.406 1.985 4.053l.546-.323.425-1.384-.173-.76-.068.046-.032.021-.017-.009.014-.35c-.221-.384-.982-1.78-1.804-3.312-1.27-2.372-1.579-2.995-1.583-3.212 0-.193.165-.845.601-2.323l.606-2.053.439-.059c.558-.074 1.305-.464 1.676-.874.608-.671.845-1.499.695-2.424a2.77 2.77 0 0 0-1.544-2.052 2.802 2.802 0 0 0-.496-.185v.003a2.872 2.872 0 0 0-2.262.346zm3.691 16.183-.012.293.014-.008.074-.052-.037-.162c-.014-.024-.032-.06-.039-.07v-.003zm.562-.033c0-.029-.065.145-.198.575l.017.066c.12-.38.183-.612.183-.641z" style="opacity:1;fill:#fff;fill-opacity:1;stroke:#fff;stroke-width:1.00542712;stroke-linecap:square;stroke-linejoin:bevel;stroke-miterlimit:4;stroke-dasharray:none;stroke-opacity:1" transform="translate(-4941.406 -173.84) scale(1.20834)"/><path d="m5271.473 852.402-21.782-17.14 25.735-10.294z" style="opacity:1;fill:#fff;fill-opacity:1;stroke:#fff;stroke-width:3.04895091;stroke-linecap:square;stroke-linejoin:bevel;stroke-miterlimit:4;stroke-dasharray:none;stroke-dashoffset:0;stroke-opacity:1" transform="rotate(87.17 1256.307 -488.183) scale(.39847)"/><path d="M95.35 174.824c-.687.007-1.38.047-2.077.12h-.002c-3.043.315-6.027 1.27-8.55 2.664a15.298 15.298 0 0 1 3.027 2.926l.006.02c1.911-.67 3.867-1.416 5.932-1.63a18.388 18.388 0 0 1 2.445-.073l.033-.017c1.33.021 2.662.033 3.992.037 2.605.009 5.21-.017 7.815.041.142.004.285.016.427.02a22.118 22.118 0 0 0-13.048-4.108zm-13.582 4.824a22.402 22.402 0 0 0-2.92 2.793 19.595 19.595 0 0 1 2.965 2.645l-.014.04a18.294 18.294 0 0 1 2.97-2.73l-.027-.004a44.114 44.114 0 0 0-2.974-2.744zm-5.079 5.717a22.088 22.088 0 0 0-3.218 13.85l3.982-.414a18.12 18.12 0 0 1 2.447-11.024l-.017-.011a16.713 16.713 0 0 0-3.194-2.4z" style="color:#000;font-style:normal;font-variant:normal;font-weight:400;font-stretch:normal;font-size:medium;line-height:normal;font-family:sans-serif;text-indent:0;text-align:start;text-decoration:none;text-decoration-line:none;text-decoration-style:solid;text-decoration-color:#000;letter-spacing:normal;word-spacing:normal;text-transform:none;direction:ltr;block-progression:tb;writing-mode:lr-tb;baseline-shift:baseline;text-anchor:start;white-space:normal;clip-rule:nonzero;display:inline;overflow:visible;visibility:visible;opacity:1;isolation:auto;mix-blend-mode:normal;color-interpolation:sRGB;color-interpolation-filters:linearRGB;solid-color:#000;solid-opacity:1;fill:#fff;fill-opacity:1;fill-rule:nonzero;stroke:none;stroke-width:3.27191138;stroke-linecap:square;stroke-linejoin:bevel;stroke-miterlimit:4;stroke-dasharray:none;stroke-dashoffset:0;stroke-opacity:1;color-rendering:auto;image-rendering:auto;shape-rendering:auto;text-rendering:auto;enable-background:accumulate" transform="translate(283.576 302.946) scale(.9884)"/><path d="M84.53 188.738a18.874 18.874 0 0 1 1.827 6.258c.118 1.022.154 2.071-.127 3.06 0 .006-.004.01-.005.014a4.336 4.336 0 0 1-4.297 3.536 4.338 4.338 0 0 1-4.3-3.536c0-.005-.004-.009-.005-.013-.28-.99-.242-2.04-.125-3.06a18.791 18.791 0 0 1 1.824-6.257c-3.62 1.123-6.277 4.514-6.277 8.487 0 4.878 4.004 8.878 8.883 8.878 4.878 0 8.879-4 8.879-8.878 0-3.974-2.656-7.367-6.278-8.489z" style="color:#000;font-style:normal;font-variant:normal;font-weight:400;font-stretch:normal;font-size:medium;line-height:normal;font-family:sans-serif;text-indent:0;text-align:start;text-decoration:none;text-decoration-line:none;text-decoration-style:solid;text-decoration-color:#000;letter-spacing:normal;word-spacing:normal;text-transform:none;direction:ltr;block-progression:tb;writing-mode:lr-tb;baseline-shift:baseline;text-anchor:start;white-space:normal;clip-rule:nonzero;display:inline;overflow:visible;visibility:visible;opacity:1;isolation:auto;mix-blend-mode:normal;color-interpolation:sRGB;color-interpolation-filters:linearRGB;solid-color:#000;solid-opacity:1;fill:#fff;fill-opacity:1;fill-rule:nonzero;stroke:none;stroke-width:3.68090034;stroke-linecap:square;stroke-linejoin:bevel;stroke-miterlimit:4;stroke-dasharray:none;stroke-dashoffset:0;stroke-opacity:1;color-rendering:auto;image-rendering:auto;shape-rendering:auto;text-rendering:auto;enable-background:accumulate" transform="translate(283.576 302.946) scale(.9884)"/><path d="M-1204.03 549.494c-.383 3.21-.848 6.32-1.282 8.953-1.144 6.925-6.69 18.075-10.835 26.57-4.02 8.24-9.325 13.357-13.263 18.325-3.575 4.51-11.477 10.197-18.252 14.445-6.725 4.217-13.979 7.55-23.945 10.465-8.338 2.44-17.399 3.087-24.84 2.977a14.538 14.538 0 0 1-1.573-.036c-.771-.023-1.546-.044-2.273-.082-.373-.02-.765-.05-1.16-.086a26.798 26.798 0 0 0-2.606.059c-1.926.148-3.829.56-5.648 1.209-.22.078-.434.17-.65.256 3.484.74 6.949 1.308 9.916 1.463 8.221.428 19.34.046 29.652-2.97 10.176-2.978 17.734-6.443 24.674-10.794 6.89-4.32 14.881-9.925 18.986-15.103 3.742-4.722 9.342-10.137 13.596-18.856 4.13-8.464 9.792-19.497 11.092-27.371.456-2.766.96-6.03 1.367-9.424h-2.955z" style="opacity:1;fill:#fff;fill-opacity:1;stroke:#fff;stroke-width:1.22916186;stroke-linecap:square;stroke-linejoin:bevel;stroke-miterlimit:4;stroke-dasharray:none;stroke-opacity:1" transform="matrix(-.9884 0 0 .9884 -936.438 -147.118)"/><path d="m4423.332 549.618-3.25-.922-2.704-.768-.545-.155-.137.453-1.708 6.05 3.25.922 3.25.923.922-3.251.923-3.252zm-6.637-1.392.13-.458-.011-.008-.328 1.156.208-.692zm-.226.753-.33 1.086-2.556-.726c-2.332-.662-2.577-.744-2.776-.932-.215-.203-1.511-2.516-3.524-6.285l-1.032-1.93-.016-.04c-1.737-.493-2.478-.71-4.316-1.231l-.018.066c.73.228 1.21.387 1.274.428.129.083.3.231.38.33.082.1 1.252 2.173 2.602 4.605 2.433 4.38 2.771 4.936 3.313 5.44.603.56.798.642 3.53 1.467l2.58.78-.295 1.12 1.186-4.18zm28.974-6.117-3.361-.047-2.797-.038-.564-.008-.015.47-.08 6.255 3.362.047 3.361.047.047-3.363.047-3.363zm-6.738.377c.01-.357 0-.158.01-.473l-.012-.006c-.01.575-.01.494-.017 1.195l.022-.718zm-.023.782-.036 1.129-2.645-.037c-2.41-.033-2.668-.05-2.907-.178-.26-.14-2.103-2.027-5.011-5.129l-1.49-1.588-.027-.034c-1.797-.025-2.565-.042-4.465-.068v.069c.76.03 1.262.059 1.334.082.145.046.347.145.45.22.104.074 1.764 1.763 3.69 3.752 3.47 3.58 3.939 4.027 4.59 4.372.724.382.932.41 3.77.497l2.682.082.01 1.153.06-4.322zm25.427-15.135-2.84.722-2.364.6-.477.121.095.4 1.35 5.283 2.84-.721 2.84-.722-.722-2.841-.722-2.842zm-5.587 1.843-.102-.4-.011-.003c.124.487.105.419.256 1.01l-.144-.609zm.158.663.225.958-2.235.568c-2.037.518-2.257.563-2.488.509-.25-.06-2.229-1.23-5.38-3.184l-1.613-1-.03-.022c-1.518.386-2.169.546-3.775.954l.016.058c.647-.147 1.076-.236 1.143-.234.132.006.325.044.428.083.104.04 1.885 1.086 3.956 2.324 3.732 2.229 4.228 2.499 4.854 2.641.696.158.877.134 3.286-.435l2.277-.538.265.97-.928-3.653zm21.723-23.541-2.286 1.677-1.902 1.396-.383.282.229.324 3.127 4.25 2.286-1.678 2.286-1.677-1.678-2.287-1.678-2.287zm-4.343 3.68-.236-.323-.011.002.596.813-.35-.494zm.382.537.55.778-1.799 1.32c-1.64 1.203-1.82 1.323-2.047 1.358-.245.037-2.446-.296-5.98-.905l-1.81-.312-.035-.009c-1.222.897-1.748 1.276-3.04 2.224l.034.048c.527-.366.88-.602.94-.624a1.61 1.61 0 0 1 .414-.08c.108-.003 2.084.29 4.391.649 4.156.646 4.698.708 5.312.61.681-.111.836-.199 2.79-1.583l1.847-1.307.59.773-2.158-2.94zm14.546-26.908-1.862 2.17-1.55 1.807-.313.364.3.266 4.043 3.46 1.862-2.17 1.863-2.17-2.171-1.863-2.172-1.863zm-3.426 4.607-.306-.262-.01.004.771.662-.457-.405zm.499.441.717.639-1.465 1.707c-1.336 1.557-1.487 1.716-1.701 1.802-.233.094-2.47.27-6.081.478l-1.85.107h-.036c-.996 1.16-1.426 1.652-2.479 2.879l.044.038c.435-.48.727-.792.782-.827a1.57 1.57 0 0 1 .388-.174c.105-.027 2.114-.191 4.462-.366 4.23-.314 4.778-.377 5.358-.614.644-.265.776-.386 2.38-2.192l1.515-1.707.756.625-2.79-2.395zm-62.025 31.777a3.04 3.04 0 0 0-1.357.01c-1.43.344-2.452 1.652-2.391 3.064l.019.453-2.02 1.123c-1.272.706-2.122 1.211-2.29 1.362-.443.396-.908 1.067-1.145 1.65-.122.302-.806 2.399-1.52 4.66-.846 2.68-1.281 3.99-1.587 4.687l.675.17 1.4-.749.453-.725-.088-.015-.041-.007v-.022l.282-.261c.124-.47.61-2.143 1.155-3.97.843-2.828 1.085-3.551 1.249-3.723.147-.153.781-.53 2.263-1.343l2.057-1.13.387.294c.491.373 1.374.647 1.98.614.991-.052 1.815-.513 2.413-1.349a3.038 3.038 0 0 0 .384-2.79 3.06 3.06 0 0 0-.243-.526v.002a3.15 3.15 0 0 0-2.027-1.48zm-9.63 15.444-.236.22.017.004.097.018.097-.155c.01-.03.02-.072.024-.085v-.002zm.462.409c.022-.024-.162.062-.598.295l-.04.063c.388-.203.616-.335.638-.358zm24.922-21.052a2.91 2.91 0 0 0-1.295.235c-1.31.567-2.069 1.988-1.775 3.328l.093.43-1.744 1.409c-1.098.887-1.826 1.511-1.962 1.683-.357.453-.69 1.171-.819 1.768-.066.309-.371 2.427-.677 4.707-.362 2.703-.56 4.028-.736 4.745l.673.05 1.213-.95.313-.768h-.126l-.012-.018.226-.297c.04-.47.226-2.15.442-3.988.335-2.842.446-3.574.574-3.766.115-.17.66-.636 1.94-1.66l1.778-1.423.418.216c.532.275 1.421.39 1.995.258.939-.215 1.65-.793 2.082-1.691a2.947 2.947 0 0 0-.098-2.73 3.037 3.037 0 0 0-.32-.464v.002a3.056 3.056 0 0 0-2.184-1.075zm-6.631 16.365-.19.25.017.001h.097l.067-.164c.01-.03.01-.072.01-.085v-.002zm.51.314c.015-.026-.145.087-.524.381l-.026.067c.337-.258.532-.422.55-.448zm20.891-28.417a2.725 2.725 0 0 0-1.07.577c-.99.873-1.25 2.338-.608 3.431l.205.352-1.13 1.737c-.71 1.093-1.172 1.85-1.242 2.04-.185.5-.271 1.226-.214 1.788.03.29.368 2.238.752 4.33.455 2.478.66 3.7.71 4.379l.606-.149.795-1.18.055-.765-.077.025-.035.012-.012-.015.113-.326c-.099-.425-.416-1.954-.752-3.63-.519-2.594-.63-3.269-.573-3.474.052-.183.397-.748 1.23-2.013l1.155-1.76.43.07c.546.09 1.36-.063 1.826-.343.763-.458 1.223-1.169 1.345-2.082a2.725 2.725 0 0 0-.866-2.371 2.758 2.758 0 0 0-.414-.316v.001a2.824 2.824 0 0 0-2.227-.32zm-1.145 16.277-.095.273.016-.003.085-.028.012-.164c0-.026-.017-.064-.018-.076v-.002zm.537.13c.01-.028-.102.117-.35.484v.066c.222-.322.347-.523.355-.55zm11.117-34.104a2.725 2.725 0 0 0-.872.877c-.706 1.142-.526 2.646.421 3.52l.303.282-.586 2.025c-.37 1.273-.595 2.146-.607 2.352-.031.541.099 1.274.32 1.803.115.274 1.02 2.071 2.01 3.993 1.175 2.278 1.735 3.406 1.985 4.053l.546-.323.425-1.384-.173-.76-.068.046-.032.021-.017-.009.014-.35c-.221-.384-.982-1.78-1.804-3.312-1.27-2.372-1.579-2.995-1.583-3.212 0-.193.165-.845.601-2.323l.606-2.053.439-.059c.558-.074 1.305-.464 1.676-.874.608-.671.845-1.499.695-2.424a2.77 2.77 0 0 0-1.544-2.052 2.802 2.802 0 0 0-.496-.185v.003a2.872 2.872 0 0 0-2.262.346zm3.691 16.183-.012.293.014-.008.074-.052-.037-.162c-.014-.024-.032-.06-.039-.07v-.003zm.562-.033c0-.029-.065.145-.198.575l.017.066c.12-.38.183-.612.183-.641z" style="opacity:1;fill:#fff;fill-opacity:1;stroke:#fff;stroke-width:1.00542712;stroke-linecap:square;stroke-linejoin:bevel;stroke-miterlimit:4;stroke-dasharray:none;stroke-opacity:1" transform="matrix(-1.20834 0 0 1.20834 5670.214 -173.506)"/><path d="m5271.473 852.402-21.782-17.14 25.735-10.294z" style="opacity:1;fill:#fff;fill-opacity:1;stroke:#fff;stroke-width:3.04895091;stroke-linecap:square;stroke-linejoin:bevel;stroke-miterlimit:4;stroke-dasharray:none;stroke-dashoffset:0;stroke-opacity:1" transform="matrix(-.01968 .39798 .39798 .01968 22.136 -1718.51)"/><path d="M84.53 188.738a18.874 18.874 0 0 1 1.827 6.258c.118 1.022.154 2.071-.127 3.06 0 .006-.004.01-.005.014a4.336 4.336 0 0 1-4.297 3.536 4.338 4.338 0 0 1-4.3-3.536c0-.005-.004-.009-.005-.013-.28-.99-.242-2.04-.125-3.06a18.791 18.791 0 0 1 1.824-6.257c-3.62 1.123-6.277 4.514-6.277 8.487 0 4.878 4.004 8.878 8.883 8.878 4.878 0 8.879-4 8.879-8.878 0-3.974-2.656-7.367-6.278-8.489z" style="color:#000;font-style:normal;font-variant:normal;font-weight:400;font-stretch:normal;font-size:medium;line-height:normal;font-family:sans-serif;text-indent:0;text-align:start;text-decoration:none;text-decoration-line:none;text-decoration-style:solid;text-decoration-color:#000;letter-spacing:normal;word-spacing:normal;text-transform:none;direction:ltr;block-progression:tb;writing-mode:lr-tb;baseline-shift:baseline;text-anchor:start;white-space:normal;clip-rule:nonzero;display:inline;overflow:visible;visibility:visible;opacity:1;isolation:auto;mix-blend-mode:normal;color-interpolation:sRGB;color-interpolation-filters:linearRGB;solid-color:#000;solid-opacity:1;fill:#fff;fill-opacity:1;fill-rule:nonzero;stroke:none;stroke-width:3.68090034;stroke-linecap:square;stroke-linejoin:bevel;stroke-miterlimit:4;stroke-dasharray:none;stroke-dashoffset:0;stroke-opacity:1;color-rendering:auto;image-rendering:auto;shape-rendering:auto;text-rendering:auto;enable-background:accumulate" transform="matrix(-.9884 0 0 .9884 445.231 303.28)"/><path d="M4392.99 549.24s-.866-1.72-1.77-2.819c-.903-1.099-2.026-2.149-2.71-2.686-.684-.537 2.075-.464 2.075-.464l3.59 5.787.049 1.294z" style="fill:#fff;fill-rule:evenodd;stroke:none;stroke-width:.81797785px;stroke-linecap:butt;stroke-linejoin:miter;stroke-opacity:1" transform="translate(-4941.406 -173.84) scale(1.20834)"/></g><path d="M4398.39 536.745c.256-.181.523-.348.798-.5.362-.202.74-.377 1.125-.53.28-.11.565-.21.854-.298l.08.719-1.978.528-.88.081z" style="fill:#fff;fill-opacity:1;fill-rule:evenodd;stroke:none;stroke-width:.81797785px;stroke-linecap:butt;stroke-linejoin:miter;stroke-opacity:1" transform="translate(-4947.447 -170.079) scale(1.20834)"/></g><path d="M4391.695 532.186s1.122.452 1.637.723c.515.272 2.214 1.338 2.693 1.799.655.506 1.707 1.88 1.707 1.88l-7.155-4.09z" style="fill:#fff;fill-opacity:1;fill-rule:evenodd;stroke:none;stroke-width:.81797785px;stroke-linecap:butt;stroke-linejoin:miter;stroke-opacity:1" transform="translate(-4947.447 -165.62) scale(1.20834)"/><circle cx="364.403" cy="375.987" r="149.695" style="opacity:1;fill:none;fill-opacity:1;stroke:#fff;stroke-width:3.0099535;stroke-linecap:square;stroke-linejoin:bevel;stroke-miterlimit:4;stroke-dasharray:none;stroke-dashoffset:0;stroke-opacity:1"/></g></svg>