<svg xmlns="http://www.w3.org/2000/svg" width="436.839" height="460.515" viewBox="0 0 115.58 121.845"><path d="m64.897 71.595 2.575 1.913s3.52-3.284 8.08-5.268c4.558-1.984 8.574-4.465 15.685-5.008 7.11-.544 11.221-.425 11.221-.425l-2.197-3.45 1.678-3.992 4.205-1.559s4.063 1.465 4.18 1.512c.119.047 2.245 2.976 2.245 2.976s-.378 3.591-.449 3.686c-.07.094-2.646 3.165-2.551 3.165.094 0 6.52 4.158 6.52 4.158l4.772 5.41 1.866 3.472s-.165 6.26.071 6.332c.236.07 5.693 1.204 5.693 1.204s6.733 2.056 6.828 2.08c.094.023 3.52 2.763 3.52 2.763l-.119 3.567s-2.953 2.977-2.976 3.142c-.024.166-1.82.614-2.268.425-.449-.189-3-2.197-2.977-2.362.024-.165-5.764-6.331-8.693-6.803-2.93-.473-40.69 20.443-41.09 21.913-.402 1.47 1.737 2.806 1.737 2.806s7.015-1.203 7.35-1.203c.334 0 5.612.602 5.612.602l2.005 2.138-1.704 4.41-6.548 2.272-7.083.835-7.216.735s-1.47 1.971-1.67 2.64c-.201.667-.268 3.875-.134 4.777.133.902 1.203 2.706 1.203 2.706l8.251-1.437s4.678 1.838 4.811 1.904c.134.067 3.542 7.384 3.575 7.517.033.134-.902 7.818-.902 7.818s-2.806 7.016-2.572 7.116c.233.1 2.873.936 2.873.936l2.472 2.405s-2.238 3.174-2.439 3.34c-.2.168-5.713.903-5.913.77-.2-.134-7.851-6.382-7.851-6.382l-4.21-3.24-8.686-5.413-8.52-4.877-6.982-8.954-2.205-7.016 9.655-.267 4.577 11.259 2.34 1.87-.502-8.752 1.503-11.426 3.742-10.954-2.338-2.443-5.68-4.31-.969-6.982.869-9.923 1.87-6.414-3.774.4-3.308-1.703-1.704-4.41 2.239-4.944 2.773-.802 4.643 1.37z" style="fill:#ffa000;fill-opacity:1;stroke:none;stroke-width:.26458332px;stroke-linecap:butt;stroke-linejoin:miter;stroke-opacity:1" transform="translate(-43.617 -52.976)"/><path d="M87.687 94.44c.067-.134.393-4.037.935-5.98.718-2.574 1.539-5.207 3.04-7.417 1.147-1.688 3.375-3.742 4.41-4.243 1.036-.501 3.613-1.385 5.513-1.47 1.829-.082 3.696.296 5.412.935 2.388.89 4.6 2.3 6.548 3.942 2.191 1.849 5.613 6.515 5.613 6.515s-25.925 9.588-26.226 9.622c-.3.033-5.245-1.904-5.245-1.904z" style="fill:#fff;stroke:none;stroke-width:.26458332px;stroke-linecap:butt;stroke-linejoin:miter;stroke-opacity:1" transform="translate(-43.617 -52.976)"/><path d="M112.382 172.82c-2.01-.102-2.051-.106-4.363-.458-1.618-.245-2.26-.378-4.07-.844-1.182-.304-2.383-.639-2.67-.744-3.156-1.16-3.462-1.287-5.483-2.28-1.566-.77-2.49-1.275-3.647-1.992-1.812-1.123-1.744-1.076-3.763-2.63-3.203-2.465-6.148-5.53-8.587-8.938-3.04-4.25-5.425-9.42-6.646-14.41-.563-2.302-.585-2.412-.88-4.525-1.488-10.652 1.17-21.573 7.401-30.414.637-.904 1.364-1.88 1.616-2.17l1.44-1.668c1.368-1.586 3.57-3.662 5.402-5.09 1.914-1.493 1.845-1.445 3.753-2.647a42.737 42.737 0 0 1 7.767-3.84 41.143 41.143 0 0 1 8.179-2.165c1.83-.293 2.283-.341 4.323-.46 2.204-.13 2.352-.13 4.46-.028 1.97.096 2.391.138 4.331.43 1.897.286 2.401.39 4.298.88 3.074.797 5.245 1.602 8.13 3.017 1.714.84 2.412 1.226 3.852 2.129a42.78 42.78 0 0 1 18.854 26.105c2.598 10.603 1.014 21.74-4.454 31.31-2.724 4.768-6.431 9.053-10.721 12.389-1.858 1.444-1.709 1.34-3.81 2.665a41.632 41.632 0 0 1-11.395 4.948 421.68 421.68 0 0 0-2.117.56c-.125.033-1.15.208-2.279.388-1.825.291-2.295.341-4.265.454-2.47.143-2.435.142-4.656.029z" style="fill:#f48128;fill-opacity:1;stroke:#000;stroke-width:3.79999995;stroke-miterlimit:4;stroke-dasharray:none;stroke-opacity:1" transform="translate(-43.617 -52.976)"/><g transform="translate(-18.876 92.479) scale(.18459)"><circle cx="486.724" cy="-82.787" r="221.839" style="opacity:1;fill:#fff;fill-opacity:1;stroke:none;stroke-width:4.92743015;stroke-linecap:round;stroke-linejoin:round;stroke-miterlimit:4;stroke-dasharray:none;stroke-opacity:1;paint-order:stroke fill markers"/><path d="M474.795 148.256c-10.891-.557-11.113-.58-23.636-2.482-8.769-1.332-12.24-2.052-22.048-4.575-6.403-1.647-12.912-3.461-14.464-4.031-17.1-6.283-18.76-6.974-29.708-12.355-8.482-4.17-13.492-6.905-19.756-10.788-9.817-6.086-9.448-5.827-20.386-14.245-17.354-13.356-33.306-29.962-46.519-48.428-16.476-23.026-29.391-51.027-36.006-78.061-3.053-12.477-3.168-13.07-4.767-24.518-8.06-57.707 6.338-116.874 40.096-164.768 3.45-4.895 7.39-10.187 8.754-11.76 1.364-1.573 4.876-5.638 7.803-9.033 7.407-8.593 19.34-19.839 29.263-27.579 10.366-8.085 9.997-7.824 20.332-14.337 13.071-8.238 27.462-15.354 42.074-20.805 15.022-5.605 28.726-9.231 44.311-11.726 9.912-1.587 12.372-1.85 23.423-2.494 11.936-.698 12.74-.703 24.165-.149 10.67.518 12.95.744 23.46 2.33 10.274 1.55 13.007 2.11 23.283 4.77 16.652 4.312 28.415 8.676 44.046 16.339 9.285 4.552 13.066 6.643 20.865 11.536 51.253 32.155 87.765 82.705 102.146 141.421 14.071 57.446 5.489 117.775-24.129 169.624-14.758 25.835-34.843 49.044-58.085 67.12-10.062 7.825-9.256 7.26-20.638 14.437-18.69 11.785-40.25 21.147-61.736 26.806a4020.546 4020.546 0 0 0-11.465 3.03c-.68.185-6.235 1.133-12.347 2.107-9.889 1.575-12.434 1.846-23.107 2.46-13.38.771-13.194.77-25.224.154zm74.613-52.534c20.318-2.45 37.39-7.475 55.114-16.224 15.625-7.713 28.256-16.424 41.16-28.386 5.499-5.098 13.077-13.24 17.497-18.8 6.06-7.623 15.635-22.28 16.111-24.663.138-.686.047-1.059-.282-1.163-.266-.084-4.724-.25-9.908-.37l-9.424-.218-4.547 6.098c-14.61 19.589-32.149 34.247-53.73 44.903-17.51 8.646-35.624 13.294-55.872 14.335-8.928.46-15.925.017-28.751-1.818-22.394-3.203-43.995-12.515-63.897-27.543-15.062-11.374-27.71-25.65-38.337-43.269-10.861-18.01-18.122-39.23-20.852-60.944-3.87-30.784 1.083-61.4 14.539-89.85 10.37-21.93 27.762-42.922 47.163-56.93 19.701-14.224 38.425-21.968 63.862-26.412 1.848-.323 3.571-.718 3.83-.877.54-.334.874-1.696 3.245-13.225.955-4.64 1.736-9.105 1.736-9.923 0-2.4-.166-2.444-7.331-1.965-21.733 1.453-42.896 7.305-62.696 17.336-17.326 8.778-30.508 18.328-44.29 32.087-19.462 19.43-33.41 41.708-42.74 68.267-3.55 10.104-5.594 18.53-7.489 30.869-1.814 11.815-2.323 16.6-2.848 26.81-.185 3.615.32 15.864.901 21.873 2.846 29.365 13.049 58.434 29.144 83.031 8.216 12.557 19.113 25.195 30.986 35.938 6.662 6.028 19.58 15.254 28.575 20.407 8.496 4.867 21.114 10.408 30.777 13.515 11.599 3.73 26.621 6.652 39.073 7.603 6.133.468 23.772.172 29.28-.492zm4.41-31.619c34.288-3.017 67.33-19.99 90.937-46.715 4.576-5.18 7.976-9.518 8.326-10.622.365-1.15-.367-1.464-4.014-1.718-5.616-.391-20.52-1.934-29.22-3.026-6.1-.765-8.413-.935-8.932-.657-.385.206-2.237 1.446-4.116 2.756-11.2 7.81-22.48 13.073-33.985 15.858-11.388 2.756-20.498 3.432-31.728 2.356-6.285-.603-10.401-1.278-15.192-2.492-14.685-3.72-29.813-11.765-41.362-21.995-1.416-1.255-2.759-2.156-3.213-2.156-.429 0-3.382 1.367-6.562 3.038-6.893 3.622-25.547 12.925-31.624 15.77-5.88 2.755-5.948 2.337 1.588 9.772 15.919 15.706 33.93 26.773 55.02 33.804 7.438 2.479 14.667 4.043 25.528 5.521 8.859 1.206 18.623 1.38 28.548.506zM435.31 8.18c13.157-5.333 35.673-15.381 52.428-23.398l6.065-2.901 3.273 2.888C508.892-4.804 523.342 2.05 539.114 4.71c4.545.766 15.397 1.055 20.363.542 19.256-1.989 36.149-9.973 50.315-23.778 16.226-15.812 25.414-36.17 26.93-59.67.356-5.51-.051-14.394-.89-19.428l-.529-3.169.973-.783c2.713-2.186 10.751-7.9 10.901-7.75.7.698 2.431 11.673 2.989 18.94.927 12.072-.798 27.232-4.485 39.42-1.364 4.508-1.5 5.957-.582 6.213 3.653 1.02 26.451 5.265 28.486 5.303l2.117.04.761-2.292c2.306-6.948 4.8-22.485 5.442-33.905 1.613-28.66-5.739-58.879-20.504-84.28-18.882-32.484-49.2-56.055-84.65-65.811-5.308-1.461-6.935-1.553-7.396-.419-.178.437-.813 4.366-1.412 8.731-.6 4.366-1.798 12.224-2.663 17.463-1.655 10.027-1.731 10.688-1.311 11.349.144.227 3.356 1.209 7.138 2.182 15.298 3.939 25.557 8.69 36.643 16.972 4.795 3.582 11.155 9.204 11.155 9.862 0 .251-2.566 2.2-5.701 4.33l-5.701 3.874-3.824-3.1c-12.296-9.967-25.01-15.485-41.924-18.197-1.673-.268-5.84-.447-10.23-.44-8.398.015-12.664.534-20.147 2.452-23.489 6.02-43.664 22.355-54.893 44.446-4.931 9.702-7.58 17.975-9.343 29.174-.914 5.811-.886 20.376.05 26.036 1.097 6.622 1.95 5.39-7.39 10.665-10.578 5.974-30.284 16.813-38.982 21.44-11.971 6.37-12.162 6.483-12.28 7.308-.194 1.339 19.76 37.049 22.279 39.874.911 1.022 1.718 1 4.493-.125zm117.095-46.932c-17.679-1.646-32.662-13.988-37.885-31.206-1.603-5.284-2.07-9.063-1.89-15.311.225-7.798 1.582-13.426 4.788-19.85 7.432-14.893 21.84-24.076 37.768-24.07 20.536.008 37.592 14.046 42.429 34.924.896 3.869 1.24 12.114.682 16.404-2.84 21.862-19.844 38.239-40.6 39.103-2.037.085-4.419.088-5.292.006zm-137.9-7.575c8.473-4.417 23.125-12.174 30.003-15.884 2.843-1.533 5.252-3.003 5.353-3.267.1-.263-.066-2.205-.37-4.314-.72-4.986-.815-20.743-.154-25.532 1.274-9.217 2.944-16.512 5.375-23.47 5.664-16.211 13.777-29.228 25.514-40.936 7.366-7.348 13.563-12.033 22.617-17.1 6.517-3.647 6.404-3.542 7.403-6.851 2.152-7.128 9.62-36.216 10.763-41.923.671-3.355.031-3.608-5.916-2.335-20.326 4.352-38.784 12.605-54.94 24.564-25.916 19.186-44.396 46.398-53.96 79.458-1.87 6.465-4.001 18.949-5.113 29.954-.772 7.638-.394 20.728.898 31.095.748 6.007 2.857 16.777 3.85 19.667.326.945 2.084.31 8.677-3.126z" style="fill:#f48128;fill-opacity:1;stroke-width:.35277778"/></g><path d="m130.16 94.076 1.47 2.672s1.938.869 2.072.902c.133.034 1.603-.467 1.804-.534.2-.067 3.214-2.985 3.214-2.985s.594-2.528.56-2.661c-.033-.134-2.973-3.842-5.278-4.176-2.305-.334-7.534-2.269-7.534-2.269l-1.125-.095s-1.973.88-.703 1.683c3.797.984 5.447 2.518 5.988 4.187.34 1.049-.468 3.276-.468 3.276zm-59.434 41.827s.267-1.536 3.542-2.74c3.274-1.202 8.686-1.336 8.953-1.269.267.067 5.045 2.54 5.045 2.54l2.773 6.38-1.637 10.123-2.974 5.513 2.74.1 2.105 1.002.567 2.372s-1.67 2.305-1.804 2.439c-.133.134-3.942.735-3.942.735l-5.546-2.372-11.125-19.344zm.702-23.018c.467.1 2.906 1.603 7.951 1.035 5.045-.568 9.488-1.804 10.925-1.737 1.436.067 3.842-.468 5.111.468 1.27.935 2.072 3.007 2.072 3.007l-1.27 3.04s-5.446 3.307-6.247 3.04c-.802-.267-17.473 1.403-17.674 1.403-.2 0-3.54-.334-3.54-.334z" style="fill:#ffa000;fill-opacity:1;stroke:none;stroke-width:.26458332px;stroke-linecap:butt;stroke-linejoin:miter;stroke-opacity:1" transform="translate(-43.617 -52.976)"/><path d="M84.845 164.075c-.8-.112-1.872-.416-2.381-.675-2.672-1.361-6.059-4.394-7.874-7.05-.752-1.103-.96-1.239-2.135-1.394-1.527-.203-2.933-1.134-5.11-3.384-.82-.848-1.713-1.546-1.984-1.551-.99-.019-4.302-1.528-6.512-2.969-7.062-4.603-13.523-14.1-15.037-22.104-.384-2.026-.182-5.265.439-7.037 1.214-3.468 5.27-4.881 8.655-3.014 1.99 1.098 2.693 2.912 3.875 10.01.889 5.336 1.886 8.67 3.596 12.026 1.42 2.784 1.769 3.23 1.42 1.818-.14-.563-.325-2.699-.413-4.745-.35-8.103 1.191-15.607 4.508-21.958l1.393-2.667-1.87-.988c-2.194-1.16-4.848-3.25-6.271-4.939-.978-1.16-1.019-1.29-1.249-3.968-.505-5.893.539-14.566 2.252-18.713.106-.256-.025-.271-.564-.066-1.98.753-4.7-.025-6.246-1.785-1.292-1.47-1.818-2.868-1.818-4.828 0-3.537 2.424-6.5 5.752-7.033 1.243-.198 3.631.427 5.051 1.324 1.401.884 2.944 2.69 2.944 3.446 0 1.11-.539 1.05-1.68-.185-1.924-2.083-4.96-3.225-6.886-2.59-1.26.416-2.937 2.356-3.307 3.827-.5 1.983.07 3.725 1.678 5.137 1.192 1.047 1.874 1.214 4.044.991 1.406-.144 1.915-.33 2.633-.96 1.086-.953 2.058-1.07 1.786-.215-.099.312-.524 1.11-.945 1.773-1.486 2.344-2.657 6.73-3.043 11.396l-.184 2.226 1.736-1.24c1.875-1.337 4.307-2.527 7.155-3.5 1.819-.621 2.42-.617 2.663.018.175.455-.205.927-1.772 2.206-1.966 1.605-6.405 6.556-7.93 8.846-.75 1.127-1.46 2.05-1.576 2.05-.116 0 .2.361.703.802l.913.803 1.94-1.938c1.83-1.829 5.213-4.536 6.485-5.19.715-.368 1.408-.128 1.408.488 0 .255-.595 1.367-1.323 2.47-.728 1.104-1.98 3.247-2.781 4.762l-1.458 2.755 1.524.676c.838.372 1.956.853 2.484 1.069 1.182.484 1.399.806 1.019 1.516-.208.388-.502.527-.993.469-.634-.075-.813.135-1.956 2.298-2.105 3.989-3.723 9.609-4.284 14.883l-.12 1.125H64.9c1.55 0 1.727.057 1.997.65.236.52.21.784-.134 1.308-.513.782-2.61 2.275-3.198 2.275-.326 0-.416.305-.416 1.406v1.406l1.589-.115c1.784-.13 2.38.17 2.38 1.192 0 .819-2.054 4.313-2.536 4.313-.268 0-.151.59.457 2.315 1.767 5.008 4.42 8.863 6.697 9.733.668.255 1.275.404 1.349.33.073-.074.011-.456-.139-.85-.395-1.04-.344-2.268.094-2.268.298 0 1.751 2.548 1.751 3.069 0 .37 1.85 2.788 3.292 4.304 2.612 2.744 4.478 3.93 6.925 4.402 1.198.231 2.568.332 3.218.236 2.304-.34 3.765-2.052 2.96-3.47-.59-1.039-1.655-1.705-2.961-1.853-.965-.108-1.384-.004-2.305.578-.618.39-1.166.67-1.215.62-.05-.05.89-2.06 2.088-4.467 3.467-6.959 4.02-9.397 3.061-13.508-.693-2.973-1.203-4.046-2.539-5.344-1.64-1.593-3.395-2.106-6.703-1.959-4.878.217-8.07 1.854-11.084 5.685-1.78 2.262-2.618 2.795-2.288 1.455.455-1.85 3.11-5.186 5.302-6.663 2.52-1.698 6.927-2.836 9.983-2.58 1.891.158 4.148 1.018 5.616 2.14 1.156.882 2.97 4.615 3.487 7.169.887 4.396.11 7.857-3.25 14.46-.492.967-.47 1.018.462 1.018 2.134 0 3.938 1.974 3.986 4.362.06 3.013-3.347 4.775-7.98 4.127zm-20.197-16.493c-.08-.182-.463-1.104-.85-2.05-.387-.946-1.079-2.115-1.536-2.598-.826-.872-.845-.877-2.624-.7-2.79.277-3.187-.387-1.75-2.932l.823-1.459-.503-1.225-.502-1.225-2.059.06c-2.228.065-2.816-.178-2.816-1.165 0-.57 1.654-2.346 2.763-2.966.392-.22.45-.456.3-1.25l-.183-.978-1.073.968c-1.474 1.333-2.678 1.782-4.787 1.786l-1.79.004.833 1.482c2.236 3.984 6.176 8.684 9.292 11.086 1.504 1.159 5.664 3.482 6.248 3.49.198.001.294-.145.214-.327zm1.576-23.695c-.25-.404.471-1.008 1.75-1.467.857-.308 3.26-.471 9.992-.68 9.92-.308 11.816-.584 15.36-2.233 2.278-1.06 3.314-1.97 3.569-3.13.393-1.79-1.591-3.109-4.99-3.319-2.082-.128-6.871.47-7.847.98-.222.116-1.652.42-3.179.673-2.948.491-5.965.425-7.966-.175-1.262-.377-2.355-1.57-2.355-2.568 0-1.007.717-1.939 1.414-1.84.494.071.56.227.49 1.176-.075 1.012-.02 1.114.733 1.377 2.557.891 9.092.594 13.932-.634 5.145-1.305 9.385-.502 10.957 2.076.715 1.173.651 1.994-.266 3.44-1.343 2.117-6.075 4.74-9.136 5.064-1.785.188-4.435.427-5.714.514-.668.046-1.323.146-1.455.223-.132.077-3.038.22-6.457.317-3.42.098-6.768.246-7.44.328-.722.089-1.293.039-1.392-.122zm66.379-25.559c-1.048-.464-2.092-1.467-2.648-2.542-.336-.65-.424-1.337-.346-2.714.087-1.542.205-1.925.723-2.345 1.018-.824 1.375-.258 1.178 1.869-.193 2.077.243 3.211 1.48 3.851 1.147.593 1.733.498 2.824-.458 2.474-2.17 3.142-4.224 1.809-5.558-1.397-1.396-6.312-3.481-10.444-4.43-2.468-.567-2.781-1.323-.548-1.323 3.189 0 9.702 2.389 11.882 4.358 2.058 1.86 2.054 4.178-.012 6.791-2.06 2.608-3.899 3.387-5.898 2.501zm-10.605-13.51c-.096-.379-.101-1.05-.013-1.49.148-.74.077-.836-.961-1.295-.617-.272-1.955-.64-2.974-.818-1.036-.18-2.077-.534-2.364-.802-.494-.462-.496-.498-.037-1.005.593-.655 2.91-1.155 4.805-1.037 1.55.096 1.86-.159.719-.593-.978-.371-6.516-1.302-7.75-1.302-.588 0-1.257-.207-1.619-.5-.527-.426-.565-.56-.262-.924.475-.573 3.47-1.478 5.534-1.673l1.671-.158-1.407-1.429c-1.47-1.494-4.789-3.87-7.492-5.366-2.012-1.113-3.307-2.067-3.307-2.435 0-.189.413-.23 1.202-.123 1.094.15 1.285.089 2.143-.691 1.255-1.14 1.682-2.035 1.682-3.52 0-3.594-4.138-5.995-7.514-4.36-1.755.849-2.805 2.156-2.805 3.49 0 1.598.884 3 2.077 3.295.79.195.966.359.966.9 0 .645-.053.663-2.153.738l-2.153.076-.189 1.763c-.261 2.44-.503 2.98-1.336 2.98-.595 0-.801-.256-1.556-1.92-.479-1.054-.943-2.126-1.033-2.38-.17-.487-1.61-.667-1.877-.234-.077.126.28 1.688.793 3.473.975 3.388 1.077 4.835.35 4.972-.269.051-1.619-1.321-3.704-3.764-3.261-3.82-3.287-3.844-4.208-3.681-.509.09-.957.189-.994.22-.038.03.531 1.517 1.266 3.304 1.262 3.07 1.312 3.283.923 3.877-.227.347-.58.63-.784.63-.203 0-1.814-1.406-3.578-3.125l-3.207-3.125-1.8.7a41.713 41.713 0 0 0-8.896 4.826c-2.656 1.905-3.582 2.094-2.398.49 1.934-2.623 6.95-5.651 12.742-7.696 5.283-1.864 12.409-3.18 17.244-3.181 1.491 0 2.708-.09 2.703-.2-.005-.109-.174-.418-.378-.686-1.13-1.492-.663-4.165 1.023-5.851 2.027-2.027 5.025-2.733 7.715-1.817 1.674.57 3.92 2.759 4.323 4.212.69 2.484-.111 5.496-1.793 6.739l-.808.597 2.12 1.198c4.631 2.616 7.967 5.973 10.15 10.215 1.001 1.948 1.027 2.066 1.017 4.734-.01 2.888-.369 4.195-1.194 4.354-.303.058-.509-.14-.624-.602zm-23.466.017c-.424-.322-.33-.412.973-.941 1.095-.444 1.541-.796 1.857-1.462.735-1.549.678-1.59-2.163-1.591-2.099 0-2.815-.109-3.84-.582-1.552-.716-1.733-1.133-.951-2.19 1.984-2.684 9.7-3.948 10.545-1.728.33.87-.118 2.467-.933 3.318-.812.847-.7 1.211.529 1.725.721.302 1.074.298 2.282-.024.787-.21 1.641-.382 1.899-.383.435-.003.439.043.05.635-.914 1.397-3.506 1.91-5.014.995l-.792-.48-.45 1.005c-.753 1.681-2.844 2.573-3.992 1.702zM80.184 81.09c-1.487-.745-1.855-2.496-.786-3.74.53-.616 1.348-.94 2.125-.96.695-.016 1.452.27 1.94.765.39.395.588 1.35.588 1.557 0 1.883-2.18 3.223-3.867 2.378zm-22.045-4.304c-1.023-.549-1.869-1.924-1.869-3.039 0-.485.286-1.037.805-1.557.748-.748.911-.796 2.294-.682 1.216.101 1.605.259 2.123.861.854.993.463 1.398-.944.976-1.958-.587-2.621-.33-2.314.893.099.395.561.848 1.198 1.172 1.249.637 1.485.965 1.062 1.474-.431.52-1.268.485-2.355-.098zm48.799-4.33c-.725-.412-.917-.75-.922-1.62-.006-1.05.378-1.643 1.309-2.03 2.286-.946 3.86 2.113 1.82 3.542-.704.493-1.462.53-2.207.107zm.397-10.656c0-.067.186-.67.414-1.341.321-.948.344-1.303.1-1.597-.745-.897-2.628-.069-2.635 1.158-.009 1.545-1.147 1.869-1.365.388-.307-2.092.894-3.512 2.972-3.512 1.817 0 2.895.932 2.895 2.502 0 1.372-.794 2.526-1.739 2.526-.353 0-.642-.056-.642-.124z" style="fill:#000;stroke-width:.26458332" transform="translate(-43.617 -52.976)"/></svg>