<svg xmlns="http://www.w3.org/2000/svg" width="216" height="217" fill="none"><g fill="#000" clip-path="url(#a)"><path d="M164.119 73.505h-3.87V56.008c0-3.215-2.605-5.832-5.806-5.832h-23.222c-3.201 0-5.806 2.617-5.806 5.832v17.497h-3.87c-1.07 0-1.935.87-1.935 1.945 0 5.36 4.34 9.72 9.676 9.72h27.092c5.336 0 9.676-4.36 9.676-9.72a1.938 1.938 0 0 0-1.935-1.945Zm-34.833-17.497a1.94 1.94 0 0 1 1.935-1.944h23.222a1.94 1.94 0 0 1 1.935 1.944v17.497h-27.092V56.008Zm27.092 25.274h-27.092c-2.524 0-4.676-1.625-5.475-3.888h38.042c-.799 2.263-2.951 3.888-5.475 3.888Z"/><path d="M150.573 57.952h-15.481c-1.071 0-1.936.87-1.936 1.945v7.776c0 1.075.865 1.944 1.936 1.944h15.481c1.07 0 1.935-.869 1.935-1.944v-7.776a1.938 1.938 0 0 0-1.935-1.945Zm-1.935 7.777h-11.611V61.84h11.611v3.888ZM88.647 156.17v-10.732c0-5.36-4.34-9.72-9.676-9.72H59.62c-5.335 0-9.675 4.36-9.675 9.72v11.665c0 5.36 4.34 9.721 9.675 9.721h36.769c.822 0 1.554-.523 1.825-1.301a1.957 1.957 0 0 0-.615-2.161l-8.95-7.192Zm-29.028 6.766c-3.2 0-5.805-2.617-5.805-5.833v-11.665c0-3.215 2.605-5.832 5.806-5.832h19.35c3.201 0 5.806 2.617 5.806 5.832v11.665c0 .591.267 1.149.725 1.519l5.369 4.314H59.62Z"/><path d="M63.49 149.327h-3.87v3.888h3.87v-3.888Zm7.74 0h-3.87v3.888h3.87v-3.888Zm7.742 0h-3.87v3.888h3.87v-3.888ZM59.62 98.78h11.61a1.93 1.93 0 0 0 1.59-.837 1.95 1.95 0 0 0 .224-1.786L68.579 84.12a5.828 5.828 0 0 0 2.652-4.883c0-3.216-2.605-5.833-5.806-5.833-3.2 0-5.805 2.617-5.805 5.833a5.834 5.834 0 0 0 2.649 4.883l-4.465 12.037a1.956 1.956 0 0 0 .225 1.786c.362.525.958.836 1.59.836Zm2.784-3.89 3.02-8.141 3.022 8.142h-6.042Zm3.02-17.597a1.94 1.94 0 0 1 1.936 1.944 1.92 1.92 0 0 1-1.747 1.905 1.59 1.59 0 0 1-.374 0c-.977-.097-1.75-.898-1.75-1.905a1.94 1.94 0 0 1 1.936-1.944Zm-4.477-5.825c2.471-2.339 6.487-2.339 8.958 0l2.653-2.829c-3.93-3.725-10.334-3.725-14.264 0l2.653 2.829Z"/><path d="m73.538 65.26 2.736-2.749c-6.036-6.063-15.857-6.063-21.892 0l2.736 2.75c4.526-4.55 11.893-4.55 16.42 0Z"/><path d="m77.603 59.195 2.736-2.75c-4.023-4.041-9.368-6.27-15.052-6.27-5.683 0-11.03 2.227-15.053 6.27l2.736 2.75c3.296-3.31 7.667-5.131 12.317-5.131s9.024 1.822 12.316 5.13Zm86.516 80.411h-27.092a1.938 1.938 0 0 0-1.936 1.944v23.33c0 1.075.865 1.944 1.936 1.944h27.092c1.07 0 1.935-.869 1.935-1.944v-23.33a1.938 1.938 0 0 0-1.935-1.944Zm-25.157 11.665h23.222v3.888h-23.222v-3.888Zm0-7.777h23.222v3.889h-23.222v-3.889Zm23.222 19.442h-23.222v-3.889h23.222v3.889Zm-59.99-48.604c4.269 0 7.741-3.488 7.741-7.776 0-4.289-3.472-7.777-7.741-7.777s-7.74 3.488-7.74 7.777c0 4.288 3.471 7.776 7.74 7.776Zm0-11.664c2.135 0 3.871 1.743 3.871 3.888 0 2.144-1.736 3.888-3.871 3.888-2.134 0-3.87-1.744-3.87-3.888 0-2.145 1.736-3.888 3.87-3.888Z"/><path d="M86.712 112.388h1.13c.03.08.066.16.099.238l-.8.802a1.947 1.947 0 0 0 0 2.75l5.475 5.5c.726.728 2.01.728 2.737 0l.799-.803c.077.036.156.066.236.099v1.135c0 1.075.865 1.944 1.935 1.944h7.741c1.07 0 1.935-.869 1.935-1.944v-1.135c.079-.03.159-.066.236-.099l.8.803a1.925 1.925 0 0 0 2.736 0l5.475-5.5a1.952 1.952 0 0 0 0-2.75l-.8-.802c.037-.078.066-.158.099-.238h1.13c1.07 0 1.935-.869 1.935-1.944v-7.776a1.938 1.938 0 0 0-1.935-1.945h-1.13c-.036-.08-.066-.159-.099-.237l.8-.803a1.948 1.948 0 0 0 0-2.749l-5.475-5.5c-.726-.73-2.011-.727-2.736 0l-.8.803c-.077-.036-.156-.066-.236-.099v-1.135a1.938 1.938 0 0 0-1.935-1.945h-7.74c-1.071 0-1.936.87-1.936 1.945v1.135c-.08.037-.159.066-.236.1l-.8-.804a1.926 1.926 0 0 0-2.736 0l-5.474 5.5a1.947 1.947 0 0 0 0 2.75l.799.802c-.037.078-.066.157-.099.237h-1.13c-1.07 0-1.935.869-1.935 1.945v7.776c0 1.075.865 1.944 1.935 1.944Zm1.935-7.776h.57c.855 0 1.61-.564 1.853-1.388.236-.792.54-1.536.908-2.215a1.951 1.951 0 0 0-.333-2.303l-.396-.399 2.736-2.749.396.398a1.93 1.93 0 0 0 2.293.335 11.593 11.593 0 0 1 2.205-.912 1.937 1.937 0 0 0 1.379-1.86v-.572h3.871v.572a1.94 1.94 0 0 0 1.381 1.862c.788.237 1.529.542 2.205.912a1.932 1.932 0 0 0 2.293-.335l.396-.398 2.737 2.75-.397.397a1.955 1.955 0 0 0-.333 2.304c.366.678.672 1.421.908 2.215a1.932 1.932 0 0 0 1.852 1.386h.569v3.888h-.569c-.855 0-1.61.564-1.854 1.388-.236.791-.54 1.536-.908 2.215a1.95 1.95 0 0 0 .333 2.303l.397.399-2.737 2.749-.396-.399a1.939 1.939 0 0 0-2.293-.334c-.675.367-1.415.675-2.205.912a1.937 1.937 0 0 0-1.379 1.86v.572h-3.871v-.572a1.94 1.94 0 0 0-1.381-1.862 11.466 11.466 0 0 1-2.204-.912 1.934 1.934 0 0 0-2.294.334l-.396.399-2.737-2.749.397-.399a1.952 1.952 0 0 0 .333-2.303 11.74 11.74 0 0 1-.908-2.215 1.932 1.932 0 0 0-1.852-1.386h-.569v-3.888Zm0-44.715h-3.87v3.888h3.87v-3.888Zm7.74 0h-3.87v3.888h3.87v-3.888Zm7.742 0h-3.871v3.888h3.871v-3.888Zm7.741 0H108v3.888h3.87v-3.888Zm7.74 0h-3.87v3.888h3.87v-3.888Zm42.573 31.106h-3.87v3.888h3.87v-3.888Zm0 7.777h-3.87v3.887h3.87v-3.888Zm0 31.105h-3.87v3.889h3.87v-3.889Zm-32.896 21.386h-3.87v3.888h3.87v-3.888Zm-7.742 0h-3.87v3.888h3.87v-3.888Zm-7.74 0h-3.87v3.888h3.87v-3.888Zm-7.741 0h-3.871v3.888h3.871v-3.888Zm-7.74 0h-3.87v3.888h3.87v-3.888Zm-40.64-23.33h-3.87v3.888h3.87v-3.888Zm0-7.776h-3.87v3.888h3.87v-3.888Zm0-7.777h-3.87v3.889h3.87v-3.889Zm0-7.776h-3.87v3.888h3.87v-3.888Zm104.499 17.497h-3.87v3.888h3.87v-3.888Zm0-7.777h-3.87v3.889h3.87v-3.889Zm0-7.776h-3.87v3.888h3.87v-3.888Z"/><path d="M77.037 131.829h63.86c.327 0 .639-.106.916-.282 7.247-1.359 12.631-7.805 12.631-15.271 0-8.576-6.946-15.553-15.482-15.553 0-5.727-4.095-10.557-9.666-11.468-2.32-.465-4.718-.096-6.82.907-2.887-9.804-11.822-16.657-22.217-16.657-12.805 0-23.222 10.465-23.222 23.33 0 1.302.11 2.603.329 3.892-8.649-.169-15.81 6.863-15.81 15.549 0 8.576 6.945 15.553 15.48 15.553Zm0-27.217c.803 0 1.621.087 2.432.262a1.918 1.918 0 0 0 1.825-.585 1.952 1.952 0 0 0 .431-1.874 19.607 19.607 0 0 1-.818-5.58c0-10.72 8.681-19.441 19.352-19.441 9.459 0 17.465 6.814 19.04 16.2a1.944 1.944 0 0 0 1.234 1.5 1.922 1.922 0 0 0 1.91-.328c1.429-1.19 3.126-1.82 4.908-1.82.393 0 .788.045 1.25.133a7.72 7.72 0 0 1 6.491 7.644c0 .535-.066 1.1-.209 1.726a1.968 1.968 0 0 0 .483 1.768 1.926 1.926 0 0 0 1.732.577c.722-.124 1.316-.183 1.864-.183 6.403 0 11.611 5.232 11.611 11.665 0 5.77-4.291 10.728-9.976 11.535a1.581 1.581 0 0 0-.435.13H77.036c-6.403 0-11.61-5.232-11.61-11.665 0-6.433 5.207-11.665 11.61-11.665v.001Z"/></g><defs><clipPath id="a"><path fill="#fff" d="M0 0h216v217H0z"/></clipPath></defs></svg>