<svg xmlns="http://www.w3.org/2000/svg" width="933.333" height="933.333" version="1.0" viewBox="0 0 700 700"><path d="M302.02 30.746C175.82 54.136 72.335 153.365 45.97 282.263c-4.966 24.275-5.874 34.254-5.874 65.05s.908 40.751 5.873 65.026c29.425 143.858 155.426 251.226 301.203 256.654 57.787 2.15 109.089-8.791 159.152-33.96 70.278-35.331 124.469-94.583 153.58-165.893l-9.78-.23-11.867-.197c-6.532-.11-18.553-.406-26.7-.662l-14.81-.458-3.316 6.078c-28.428 51.963-73.916 93.231-128.146 116.28-22.532 9.575-44.822 15.604-70.875 19.162-8.52 1.164-43.887 2.142-51.893 1.435-38.438-3.39-69.784-12.315-102.58-29.208-26.173-13.482-46.334-28.545-67.86-50.675-19.746-20.3-33.861-40.129-46.357-65.159-28.544-57.177-35.424-121.33-19.706-183.874 9.608-38.226 28.75-75.024 55.318-106.33 12.487-14.713 33.977-33.977 50.687-45.453 20.863-14.328 46.304-26.723 70.284-34.25 5.005-1.57 9.105-3.108 9.105-3.412 0-.993 9.385-51.558 9.612-51.785l1-9.66Zm75.989 72.346c-2.002-.109-3.287-.084-3.486.13-.614.615-14.328 74.987-13.904 75.41.153.154 4.981.606 10.72.989 28.17 1.89 52.943 9.535 76.121 23.492 10.224 6.155 12.701 8.048 11.566 8.852-2.033 1.437-13.944 11.038-25.06 20.019-21.358-13.942-46.784-22.094-74.01-22.094-74.836 0-136.215 61.38-136.215 136.215 0 17.37 3.343 34.002 9.359 49.324l-87.77 71.273s2.159 2.642 12.94 16.148c7.093 8.886 18.004 22.31 24.239 29.835 11.138 13.445 11.698 13.181 11.698 13.181l88.325-67.932c22.036 15.345 48.732 24.397 77.423 24.397 74.836 0 136.214-61.39 136.214-136.226a134.69 134.69 0 0 0-8.212-46.382c8.657-6.532 17.23-12.943 26.543-20.176 1.668 0 8.58 20.813 11.192 33.695 3.964 19.565 4.439 42.71 1.253 60.793-.788 4.473-1.365 8.211-1.29 8.31.066.084 17.017.661 37.65 1.253 20.633.59 38.036 1.032 38.675.977 1.757-.153 2.983-10.514 3.582-30.33.948-31.319-3.063-58.144-12.988-86.878-20.987-60.755-65.142-110.888-122.647-139.253-21.963-10.833-41.671-17.415-64.676-21.599-8.8-1.601-21.239-3.1-27.243-3.413zm-90.822 10.902c-.814-.936-26.478 9.586-37.988 15.581-73.672 38.372-121.308 107.768-131.39 191.4-1.484 12.294-1.273 43.093.385 55.764 3.274 25.023 9.993 48.912 19.838 70.85l63.458-48.854c-9.927-30.49-10.843-62.614-2.653-94.029 10.11-38.784 33.242-72.082 66.063-95.103 3.102-2.177 5.81-4.677 6.017-5.547.786-3.29 16.426-89.878 16.269-90.062zm72.768 162.734c38.713 0 69.38 30.655 69.38 69.367s-30.667 69.391-69.38 69.391c-38.712 0-69.38-30.678-69.38-69.391 0-38.712 30.668-69.367 69.38-69.367zm121.683 187.974-4.945 4.426c-20.402 18.24-38.041 28.913-60.6 36.674-16.545 5.691-30.909 8.306-49.18 8.936-14.753.51-25.089-.344-39.664-3.269-20.229-4.059-41.915-13.149-58.911-24.48l-59.177 51.808c5.242 4.071 11.842 8.946 16.57 12.084 33.454 22.202 72.552 36.057 112.59 39.905v-.01c11.637 1.118 35.945.959 48.07-.313 56.481-5.932 108.095-30.597 148.213-70.827 14.394-14.434 24.677-27.443 35.347-44.705l4.932-7.971h-6.404c-3.516-.007-24.487-.522-46.61-1.134l-40.231-1.122z" style="fill:#1a1a1a;fill-opacity:1;stroke-width:6.17456198"/></svg>